<mxfile host="app.diagrams.net" modified="2024-02-01T13:51:13.180Z" agent="Mozilla/5.0 (Windows NT 10.0; Win64; x64) AppleWebKit/537.36 (KHTML, like Gecko) Chrome/121.0.0.0 Safari/537.36" etag="l5MM_MsP7KvPVj68QtJ9" version="23.0.2" type="device" pages="2">
  <diagram name="EJEMPLO 2" id="0wx6cCa_KxXsJg630utA">
    <mxGraphModel dx="1900" dy="1173" grid="0" gridSize="10" guides="1" tooltips="1" connect="1" arrows="1" fold="1" page="0" pageScale="1" pageWidth="827" pageHeight="1169" math="0" shadow="0">
      <root>
        <mxCell id="0" />
        <mxCell id="1" parent="0" />
        <mxCell id="BnQTYj2Zhu8p9JdD_gyr-2" value="-26" style="text;html=1;strokeColor=none;fillColor=none;align=center;verticalAlign=middle;whiteSpace=wrap;rounded=0;fontSize=30;" vertex="1" parent="1">
          <mxGeometry x="-21" y="454" width="60" height="30" as="geometry" />
        </mxCell>
        <mxCell id="BnQTYj2Zhu8p9JdD_gyr-5" value="" style="edgeStyle=orthogonalEdgeStyle;rounded=0;orthogonalLoop=1;jettySize=auto;html=1;" edge="1" parent="1" source="BnQTYj2Zhu8p9JdD_gyr-3" target="BnQTYj2Zhu8p9JdD_gyr-4">
          <mxGeometry relative="1" as="geometry" />
        </mxCell>
        <mxCell id="BnQTYj2Zhu8p9JdD_gyr-3" value="$" style="ellipse;whiteSpace=wrap;html=1;aspect=fixed;fontSize=30;" vertex="1" parent="1">
          <mxGeometry x="271" y="446" width="80" height="80" as="geometry" />
        </mxCell>
        <mxCell id="BnQTYj2Zhu8p9JdD_gyr-7" value="" style="rounded=0;orthogonalLoop=1;jettySize=auto;html=1;" edge="1" parent="1" source="BnQTYj2Zhu8p9JdD_gyr-4" target="BnQTYj2Zhu8p9JdD_gyr-6">
          <mxGeometry relative="1" as="geometry" />
        </mxCell>
        <mxCell id="BnQTYj2Zhu8p9JdD_gyr-9" value="" style="edgeStyle=none;shape=connector;rounded=0;orthogonalLoop=1;jettySize=auto;html=1;labelBackgroundColor=default;strokeColor=default;align=center;verticalAlign=middle;fontFamily=Helvetica;fontSize=11;fontColor=default;endArrow=classic;" edge="1" parent="1" source="BnQTYj2Zhu8p9JdD_gyr-4" target="BnQTYj2Zhu8p9JdD_gyr-8">
          <mxGeometry relative="1" as="geometry" />
        </mxCell>
        <mxCell id="BnQTYj2Zhu8p9JdD_gyr-4" value="&lt;font color=&quot;#0000ff&quot;&gt;K&lt;/font&gt;I" style="ellipse;whiteSpace=wrap;html=1;aspect=fixed;fontSize=30;" vertex="1" parent="1">
          <mxGeometry x="271" y="606" width="80" height="80" as="geometry" />
        </mxCell>
        <mxCell id="BnQTYj2Zhu8p9JdD_gyr-6" value="-" style="ellipse;whiteSpace=wrap;html=1;aspect=fixed;fontSize=30;fontColor=#0000FF;" vertex="1" parent="1">
          <mxGeometry x="99" y="698" width="80" height="80" as="geometry" />
        </mxCell>
        <mxCell id="BnQTYj2Zhu8p9JdD_gyr-11" value="" style="edgeStyle=none;shape=connector;rounded=0;orthogonalLoop=1;jettySize=auto;html=1;labelBackgroundColor=default;strokeColor=default;align=center;verticalAlign=middle;fontFamily=Helvetica;fontSize=11;fontColor=default;endArrow=classic;" edge="1" parent="1" source="BnQTYj2Zhu8p9JdD_gyr-8" target="BnQTYj2Zhu8p9JdD_gyr-10">
          <mxGeometry relative="1" as="geometry" />
        </mxCell>
        <mxCell id="BnQTYj2Zhu8p9JdD_gyr-13" value="" style="edgeStyle=none;shape=connector;rounded=0;orthogonalLoop=1;jettySize=auto;html=1;labelBackgroundColor=default;strokeColor=default;align=center;verticalAlign=middle;fontFamily=Helvetica;fontSize=11;fontColor=default;endArrow=classic;" edge="1" parent="1" source="BnQTYj2Zhu8p9JdD_gyr-8" target="BnQTYj2Zhu8p9JdD_gyr-12">
          <mxGeometry relative="1" as="geometry" />
        </mxCell>
        <mxCell id="BnQTYj2Zhu8p9JdD_gyr-8" value="D&lt;font color=&quot;#ff0000&quot;&gt;I&lt;/font&gt;" style="ellipse;whiteSpace=wrap;html=1;aspect=fixed;fontSize=30;" vertex="1" parent="1">
          <mxGeometry x="273" y="790" width="80" height="80" as="geometry" />
        </mxCell>
        <mxCell id="BnQTYj2Zhu8p9JdD_gyr-10" value="2" style="ellipse;whiteSpace=wrap;html=1;aspect=fixed;fontSize=30;" vertex="1" parent="1">
          <mxGeometry x="273" y="950" width="80" height="80" as="geometry" />
        </mxCell>
        <mxCell id="BnQTYj2Zhu8p9JdD_gyr-15" value="" style="edgeStyle=none;shape=connector;rounded=0;orthogonalLoop=1;jettySize=auto;html=1;labelBackgroundColor=default;strokeColor=default;align=center;verticalAlign=middle;fontFamily=Helvetica;fontSize=11;fontColor=default;endArrow=classic;" edge="1" parent="1" source="BnQTYj2Zhu8p9JdD_gyr-12" target="BnQTYj2Zhu8p9JdD_gyr-14">
          <mxGeometry relative="1" as="geometry" />
        </mxCell>
        <mxCell id="BnQTYj2Zhu8p9JdD_gyr-12" value="D" style="ellipse;whiteSpace=wrap;html=1;aspect=fixed;fontSize=30;fontColor=#FF0000;" vertex="1" parent="1">
          <mxGeometry x="478" y="939" width="80" height="80" as="geometry" />
        </mxCell>
        <mxCell id="BnQTYj2Zhu8p9JdD_gyr-14" value="6" style="ellipse;whiteSpace=wrap;html=1;aspect=fixed;fontSize=30;" vertex="1" parent="1">
          <mxGeometry x="478" y="1099" width="80" height="80" as="geometry" />
        </mxCell>
        <mxCell id="BnQTYj2Zhu8p9JdD_gyr-16" value="" style="shape=image;verticalLabelPosition=bottom;labelBackgroundColor=default;verticalAlign=top;aspect=fixed;imageAspect=0;image=data:image/png,iVBORw0KGgoAAAANSUhEUgAAAvMAAAIrCAYAAABiaBaVAAAgAElEQVR4Ae2dXbKsKhJGHZcD8u3OxSH0KJxHPzuJGz0BOrDKXZKg8qug60ScqNqWArkygQ9E7BT/IACBRxH473/+Uf/884/65z//fZRdGAMBCEAAAhCAgE2gsw9xBAIQgAAEIAABCEAAAhBogQBivgUvUUYIQAACEIAABCAAAQg4CHT/+9//FP9hQAwQA8QAMUAMEAPEADFADLQXA92///6r+A8DYoAYIAaIAWKAGCAGiAFioL0YYJmN43YFhyAAAQhAAAIQgAAEINACAcR8C16ijBCAAAQgAAEIQAACEHAQQMw7oHAIAhCAAAQgAAEIQAACLRBAzLfgJcoIAQhAAAIQgAAEIAABBwHEvAMKhyAAAQhAAAIQgAAEINACAcR8C16ijBCAAAQgAAEIQAACEHAQQMw7oHAIAhCAAAQgAAEIQAACLRBAzLfgJcoIAQhAAAIQgAAEIAABBwHEvAMKhyAAAQhAAAIQgAAEINACAcR8C16ijBCAAAQgAAEIQAACEHAQQMw7oHAIAhCAAAQgAAEIQAACLRBAzLfgpTeWcZ7VNA6q73vVdd3mf6/6flDjNKu5di67NnTt2FA7Y8oHAQhAAAIQeDmBYDE/j1JcbYWWx/d+PBVh0+CRjiHwfucPk59HS9rhSjulXP3olq2ufEzh++OiRfEwjIsI9iO0PWtWY/9Lq+sG5Yl5m4jn91lNg2+M9WqY3Gw8Mytz2jypsXUbypAhVQhAAAIQgAAEMhNAzO8MCvZE8d/xg0GJU2R7qXkpmj8COoeY/yv3Ym+vhnE6HVT9Yk2Wq5CYn0fVR/ij92L7s6bkt3ka4mzYGbCVLCtpQwACEIAABCDQPgHEfIR4XIRxqJj3mc3eE7M7YtU5aAix58AGM7SvEPOTGmTZv8tptmWZ50kN1tKbTnU7jLbXlv6uhbw5aPosp5lm8+7BPI1qMO506EFbr9DzpT1E+hCAAAQgAIHnEUgW83drKClofcsTe51PCMi0V4F3Vra96/aEqjx/N/2/tdvbpTLf716CvrSYl+l/xLkpgU3y0nbNeNd+89KCf23t6E+WNG3PDfFFweKTNAQgAAEIQAACzRFAzH9ng3MKwe2af+MBzsNMtuJOP+S5Ed4710lBu3OaEZTyGi2C95bx/C7clk2XK+8yG6tMXgMMpWKv+9lV4tusxmFQXkv5rTsxzM6X8AhpQgACEIAABJ5MADFfWsyP42b5yIEI3gq7YVLbAUHyzLyIYEsEn4rzkmJeLq8JEbTy2hpm5wXswz8lV5+B1WGC/AgBCEAAAhCAwMsIIOaLi/nJ2Almb/Z8K971Odu/u52ZainK99K2YzpUBEvReTAosTM7PiLXmfsbsaQrGewNfI4Lcd+vhp91LAbab5R83qzF188bHK1TMi7kDwhAAAIQgAAEWiWAmM8u5k3hq5ewGILTKda24vojlA2Rl13Mi8HC6VIb06Z8y2xkuhEz69s7GosvMw40LqjVRmykiHmLw2eZljPcLrCLLCAAAQhAAAIQuIYAYr6wmF/ElCG0HGJzOzv9VV+lxbwUkcfr5qXodtgQFa/bQUzsWnxZtpBlOlGFznqR9EPszLwRL9+YXh68Rs1n9ReJQQACEIAABGojgJi/QswrU3BKfbUVYutvhsgrMDNvpH86I2yWP9vM/HYQo8uwY+dZpdny83ug9yzF636XZY8T89I/m4enI5leR4CcIAABCEAAAhBIIYCYv0TMK72u5bcH+arYF89tZ6d/M96m2P4d3zrbPCdsiYq89o6ZeVmGOCFr72pzbMuW4N3fbRFuhEZA8axBwTeuYwdIAVlzKgQgAAEIQAACNxJAzGcX81txvhXY2+Mbcb4R+VsRagrdzfmbYDHP2ea1OWnnqxR/xyJSik53eXay2j0sy7+1f/ci1w8bhk0tLZHlTnlxlJUWa+ZdocIxCEAAAhCAwNMIIOYvE/PmQ6ereP6JanOttyl03eLZPCdEzG8HFj5r1cuI+Z/ticJTCtkmlpZIpok72eiWSe5m47XZ/dOaNOyBAAQgAAEIvItAsphfZkLXW/oen6uIzYU5VtDK6/LZYQplw96t6Fx+2JwrBKhZPlPor+zMc/zFvBTR5zPiUni6BxdruXw/ZTkMVr6J6PO2XHUMCpYhSV11rvSdjr9o+68qNPlAAAIQgAAEIFAdAcS8xwDEJfR3hZexc40UaBvxrl/UtBGhUlCbYi+XmJ/VNPa/tfuL7T7CHDGfteZu/P4XW7sBlTVnEoMABCAAAQhA4GEEEPNFxbwtwuVs9EfM2eeZs82O35dVFaYw39OD86xF/KB6y1Z3unaMI+ZtJpFHxGDv43+fAVVkflwGAQhAAAIQgMCjCSSL+T0BeRU1cwZbzoTvlyL2uv0Uv78YYs0hll2zsq5lIcZ5jnQcYv5vltcS7ZutCtffgt4Q2piYvzsod4Nke2dm9Ynbt7tJ8AMEIAABCEAAAhDYEEDMf8VtNv13KsJtQSeX2Cz+MdJxD1LkgMRPzPeqHyY1b4Lg/Os1Yt7J4bxw9pr5bM70ydz3HMkw8aFf32w5DwIQgAAEIACBRxNAzF8u5s1dbbq97QhzivleC/hBjdMcKOLX2JdCNM+yEGswEinCZTrRg4LV3Oyfkt9HyNdXzuyGkyAEIAABCEAAAoUJIOZvEPPGenjXEhvt9AgxH6mFPUJMitE8Yl7aGPvSKPkcQjkOHqgcp8jy6TsoCHkHKA5BAAIQgAAEIBBMADF/h5j3cZOx9t4t/uSMdDkRW0jMCxs7vcOPDxvjHLlsqa416NJHi5Av5yiDDH9AAAIQgAAEIPB8Aoj5zGLeFG8x4vQbdELoumZyzbzc6+rzhHAhMa8yCHHBqaY95qV/lmcaEPJ5QpJUIAABCEAAAhBYCDQv5s0lDP6zslJo5dJYZrqI+bN6ZvrPfQfiKI3U64/STvpNLJNCyCfR5GIIQAACEIAABHYINC7m42eMTdGdb1bbTBcxvxN3v8OW6A1hJmf2Q679FSH7t8mxp3/wDkIRpZpHNfTfLS+Dth6NyItLIAABCEAAAhCogkDbYl4usQiYXjdFdz4xb84UJ4hLD9tK2WBHZvygyU5LHpFpd8r3QViTdfisvixJlr+l3/QyrouEvP1SsHxxnYUNiUAAAhCAAAQgkJ1AhWJ+UuMwqul0I3RbBAZoeVVKCJsCEzHvFbHW7PyZMJ/VNJhvv417eNardAEnyTsFnbpqDb8Zd+sLqfwHRgFGcioEIAABCEAAAhURSBbzy1rg70OkXt/3tmL8g7IRRHqpwDSp2RD2s5qnzXKCNe8QJZ/69lSd544dpqhKEPPy4VCHfaUGJH+u+PtiD5y8fL365oDXmoXJ7bdUZDKdr+Z5+i0l+Uvf/1mJNb8Sn04b/sq4EdgexxzuPijygX924vQgMX6CAAQgAAEIQKAhAnWLeQ/Rs4jKCMEihXAucWoIuohy/WJnM6jRHBxpSRvCBOAvp/NvB2Ixo4/s2XYfAVyHkNcMDd/7ctk5L9SXu3k74ubc35wBAQhAAAIQgEArBCoU80rNrgcId0RPH7keWQrhPGJeiN4kIfU+Ma8rTZjvx8g32papnruCeid2j2IuVMxbL+D65hmcThk0pAoBCEAAAhCAQCECwWK+UDmcyerlNOPQq37doeMrUPq+V8Mol984k+BgkwTWpVS9kg914vsDh8rdbM4fPDlIjJ8gAAEIQAACEGiBQNVivgWAlBECEIAABCAAAQhAAAJ3EUDM30WefCEAAQhAAAIQgAAEIJBIADGfCJDLIQABCEAAAhCAAAQgcBcBxPxd5MkXAhCAAAQgAAEIQAACiQQQ84kAuRwCEIAABCAAAQhAAAJ3EUDM30WefCEAAQhAAAIQgAAEIJBIADGfCJDLIQABCEAAAhCAAAQgcBcBxPxd5MkXAhCAAAQgAAEIQAACiQQQ84kAuRwCEIAABCAAAQhAAAJ3EUDM30WefCEAAQhAAAIQgAAEIJBIADGfCJDLIQABCEAAAhCAAAQgcBcBxPxd5MkXAhCAAAQgAAEIQAACiQQQ84kAuRwCEIAABCAAAQhAAAJ3EUDM30WefCEAAQhAAAIQgAAEIJBIADGfCJDLIQABCEAAAhCAAAQgcBcBxPxd5MkXAhCAAAQgAAEIQAACiQQQ84kAuRwCEIAABCAAAQhAAAJ3EUDM30WefCEAAQhAAAIQgAAEIJBIADGfCJDLIQABCEAAAhCAAAQgcBcBxPxd5B+X76ymcVBD36u+61S3/u9HNT/OVgyCwNUEZjX2m3rVdarvezWME/XraleQHwQgAIHKCCDmK3NIi8WZx8EU8KuQ15+I+RZdSpmrI2CL+b8Bc6dFPUPm6lxGgSAAAQhcRCCfmJ8nNWpR1/e/WdlV1OnZ2mFU4xTR4cyfGV9Xun0/LGlGpHoR3udnM48Of69+R8w/PwByWvit69bdnW886TagHwY16tno11X6IzH/mbHvEfQ5o5G0IAABCDRDIFnMz5MW8Obt39+Mkeu4561hPTgYToTin2js1RAzUGjGTZUWdB6tGXk9aJtClNY02IO/blCTr8ni+sG6cFLDX5y44jHi2C13G55ih8Ox86SGoDbk47MaxOvpYHYTe8uymNhJDYFtdraPvULPC1D8CQEIQOAFBBLE/PlM0ZGot0XXj/YyQNh0gkfpbH+roXP/WfH8b9NgCuEo/kKMr/70Tktcb8fVU0TwU+ww60WIGF5jY/30jhEzy6x/xZffc1LjpLS6rVx5LJ92BThJgZ8hAAEIQKB1AnFiXs+kucT2uuxF3gKfZzVP4/Jw5Nrx7PU5Vue0POg1WLO9n/RMMdl1zExdF5BiMBc7Wy3FyBpXvumJ6+242onVNZ+YT9+yZXXGU+z4QXEK4b02RCk1L+3IZznfshSngmlopw0hMZUcS6IehtzV+rmCbxCAAAQg0DCBCDHvEhV9wHr4WU2DPn+P2rZzOkt3e+5X2Cd3jnvl4rhJwIyD6FlSIcbXwZ7+tIW5WYLlL3G91zUiGSnIYtIQSd7yZ1N2uJZoVSDOQx3nzfzv2R85AZH+kLhZBiY0Qn3I+RCAAARaJxAs5uXSik7PBMmZ+GQqsxoHz3QtUUBnlozfJwHBPVoACzG+FfNeO+GI62PKYYohz0GED6OLz2nJDqsdiXHcxXxd2cUwl9fomI8eDOtCGXWA9s/lJ45BAAIQeDKBMDFvdBp6hqmGjsOenU/qGJ/s7Zy2FRLzcteiU40nYvL0fAcDKa5i0nAke/mhduww7+p434W5nOh5hrHM5XXLpMh5du4zjDpQQ5vsLiZHIQABCECgDIEAMV+vaH7KLF8ZFxdKtZCYHyYh9M6WTRlCJm5WXQorxHyhmFmTFbFTx6TAWriwz/jYEXHuu6zMVTyjDiDmXYg4BgEIQODJBPzFvNFh6Fn5gO0DCxOUHWrXqhorzClr8kKQRSMXcaXTMQdnJ+LEcX2onTJ+om0JzTjz+c3YIWLnnWJexnnCUhujDpzUl8wxR3IQgAAEIHA/AW8xbwqsTtUkmKWIqals97u4UAmEIIsWwIYQ+c6si7QP/em6PtBkGT/RtgTmm/v0duywZ6VbXRqXwlxeG83AqAOI+dz1ivQgAAEI1E7AU8zbnW9NgqfmgUbtARBdPiG4o+PBECLrMhm5pOtAoDivD7NKiqpoW8KyzX52O3ZI/9by/E24S1KYy2sPB61HRTPqwEFdOUqD3yAAAQhAoFkCfmJeCLe6bovbwqBVMdZUFImYiGZuCJFVzMsdOg7uBO1dHwBTiqpoWwLyLHFqS3bIsn52MWrvTc7SjpDYkdcyM1+iVpAmBCAAgecT8BPzQjB5bRl4FTtZtip22LnK+BvzKS3mlRyk7cw4Cv+HiKmVnhRVMWmsad352ZYd0r+b/de/L466k6Vv3inM5R3F6LjLUAd87eU8CEAAAhCoj4CXmJcdVj1i3iEIonvEnM6xlyUZ+6df+obInHZt0jIExI7Q3py++9VIZzMzr9/4Ofbnr6o/uH43T/GDzKeKEBJl9PmzPTsc9deoG70axkllf42FD0zPc+KZyzYiYUMBMbCOnuH3tJnTIAABCECgLgJxYv5I7QhxtSdic3Q4siOtZ79q2VFvZh0NseJx/GxrxlviSYiwlDKKeDFDS3J0CJ7D6/3gyDgyy+CXRg1ntWnH543Qe+3EerwfxgIvp0v3WixzOSuf1h6K+ljkRX7prEgBAhCAAATKEGhXzAsRt3T61agwKUI9RPueyE8RytljZlbzNKqhN+1Jwi78KNOSYskSPSfX+yCQecgy+KRRwzlN2zFPaujFnRhHnahN1Iczn9Uk7zjl2OZX1AP9XNNyV6Pm2xo1VBrKAAEIQOABBNoU8+K28mf2zjFr+wAH3W6CJRK2Qj7DA4sifVtIy4GR8PPp9ecEwwXZeZp3nPEIO2afmfoMcZfJQb7MZ23XOKjeGqAkLFETNsyTK/1ffbXrlkiAPyEAAQhAoEkCcWI+ZrZYiC5rhtUbnxR3urPK1yF6F+MtJwq/fQZOvdIzpHOOWT+RvktwSMFkxI7H9Weukum7ynCWRg2/P8WOD0t9F2hQvbgLtC670Z9GHNzkAMl8W77T7/pB3xx1yLD9O2hwcGs1rg3z+AMCEIAABCwCXmJeCcEU9QCsSCOuI5ZrQz+zTnRSll/zHRB+MwWKvpWfqEZE+k5fWndiNrPzPtef0JCCzFmGkzRq+PkpdkiWrqVdnzi8fxAvmZv14zcrbh7Xg+ECD/Za9cTMv9W4lvHA3xCAAAQgYBKIE/MxazyF6AoX824hH56OCYC/AgjM7tnSJB+IuNgTHPKBwb/zPK8/slIKsr+0jy6q8Len2OFGu7P8JuYuoTuDqKOSuSnaN2K61wJ+UOM0l9mdRwr57/aeiUPtKCZcBAEIQAAC1xLwE/Oyo4hZ1iJEV6gAlGJOd5qhaVyH1rUUaNOxW+tmD367Way4mUn7NjPl7gv2j4q42BXSMgZXLr7X75fA2gJztwwHadTwkxSWrdpxxNJuB+6dna+FucFlrRtHIPkNAhCAAAQeQ8BPzFsv8IkQ0kJ0hQhx2WEuQr5qpSLF7oFYPxP2tXbMwp/R7ghIxxAs64Ay4Pq9WivjK9qWvQwuOv4UO45x2XXrTn/VwdxkciePY9/xKwQgAAEIlCDgKeaVMoVUp4LXzQvR5SvmZWe53MauvrcyO9fdW+9nQl7/XquYFzPl0S4RcXGYjsiz0yeHXL9Tg2SMHZZhJ40aDj/FjmOW9nK7O/1VBXOjXtx7p+LYd/wKAQhAAAIlCHiLeWV0GHqmObDTEKLLS8yLa9oQ8iXcVGGaIh68/OkyQ/j4WJhJIdercRyMt8QeX+8qgP2m2Zg03CmvR8313qX2Si8vLK+xY6Xm/rQHyuH+ymdHeeZuCsZRoy4GtstGQvwBAQhAAAItEvAX846lNkGzxkK0nYo/157JJXaAaNFrNZTZEBARy65WG0RcnAozcX4vXjR0ev2a7+aztCCT6X/u1CQ8Z7Ap+/arzCeGxTY9+V2mX8oOma/xt4i74EkFZQ/eUuyQTHIzN2zf+8OoE4j5PUwchwAEIPBUAgFiXllLGnQneCrKV3JGh3NyndVhd0ovqWBnhhVmBZ/CR95xIIsu4uJcDMnZefN5hPPrZQFscReThp3qemS/vNHM1qTFZ1lheZ0dwizjz+Tlfq5Jie9ytxh/lGVumL7/h1GHEPP7oPgFAhCAwDMJhIn5Rc+b4mkR9D5C2+hwjsS8fRs96A7AM/1Un1W3iXn3oPIzu9qpGCFeVpDti+Dccf0UO/aCXdqnfR7u77z+kGUKL8+etQHHjbYVMR9AjlMhAAEIPIJAsJhXSq83tQW9vt39WQss589nNc+TGofeWNu8NwvmTtuV3/mxWzrWR4SFhxF3ivmD2dUYn5cWZDL9deDRxbyv4cA1Mp8YFgfJW1t4xtqhy9n3gxrGUU3TpGb9/gLZbHwLon+bxlENjjea6hcvxfyTnGLt0HnLtCKLFGPG7xrE/I8F3yAAAQi8kECEmNeUzAfIfp3hucBez0XMNx5tt4p5W0StcRUjpq4QZO5Bat51863YIcu5+i7kM1bIr7Uulz+kLTHxt5Yp+hMxH42OCyEAAQg8gUCkmP+Yvv+a9WNRf7Sbh7uTPU5vTwTc0rE+ISp8bLhZzCvlWI4VtezCHhiUiRtXedsT827uYXZIAbxXf53H+0FNO7P4PmH7OyePP6QtZWLnV2rnN8S8EwsHIQABCLyFQJKY/4Okl9GMg9I7i/Ry73R9bL2lvncv/S8hvjRDIJeYb8bg1II61mrX+g6BQ1Pz2LEsn5lGNQzfdkPsSrQK+aVNGQY1jrkfgM9jxyGqq35EzF9FmnwgAAEIVEkgj5iv0jQKVZQAYj4Qry0e95aaBSZ88enYcTHw8+wQ8+eMOAMCEIDAgwkg5h/s3LKmiWUKt6wvKGth1tTF4Cdmf/Ss5YlNDDtiyZW7DjFfji0pQwACEGiAAGK+ASfVWUQxQ9vkkpGryApWeilak4Mf7LgqYkLyMZ8zCnt+ISQfzoUABCAAgToJIObr9EsTpTJFxNG7A5owJ38hl20VB8dzJGNbL0DDjvyxkStFY1a+1UFiLhikAwEIQOCdBBDz7/R7HqutJRfdzrsG8mTXSipykLM+zLl8NnQHAzsqjjg9wBLv7tDx1eQNn4oxUzQIQAACLRBAzLfgpYrLKLfmM4SrXk7SkHjNhdktgns1ZN+RJVeJ3elgh5vLPUcdS5zkzmEo+XtcQ64QgAAEbiaAmL/ZAU/Iftbbkkphsf79ZjGvt2XV2ypOc1vLar5B+SfmsaOCanos5lNfolWBgRQBAhCAAAQiCSDmI8FxmSQwq2kc1CDfNfBCMS/J8DcE0gnYYl7vwb/c7cnyEq30EpICBCAAAQjcQwAxfw93coUABCAAAQhAAAIQgEAyAcR8MkISgAAEIAABCEAAAhCAwD0EEPP3cCdXCEAAAhCAAAQgAAEIJBNAzCcjJAEIQAACEIAABCAAAQjcQwAxfw93coUABCAAAQhAAAIQgEAyAcR8MkISgAAEIAABCEAAAhCAwD0EEPP3cCdXCEAAAhCAAAQgAAEIJBNAzCcjJAEIQAACEIAABCAAAQjcQwAxfw93coUABCAAAQhAAAIQgEAyAcR8MkISgAAEIAABCEAAAhCAwD0EEPP3cCdXCEAAAhCAAAQgAAEIJBNAzCcjbCGBWU3joIa+V33XqW79349qbqH4lBECEIAABCAAgUYIzGrsN1qj61Tf92oYJzRHIQ8i5guBrSXZeRxMAb8Kef2JmK/FTZQDAhCAAAQg8BACtpj/m0TstKhnGjG3oxHzuYlWlN489r9Z+K2IX7+/XczPnzsWesbg19DoQU6v+mFU00yDc1k47/limdEZ1DjNVc/ozPOkxvXul5iRWmJriamPHZcxJSMIQKAYgaXOD73qrfquj31noRvoQuZpVIO2Y9UF3880G47E/GfGvkfQZ41NTzE/qUE42hA/Mb+9XUhmdaMjsXm0KycC9QtqVtMgBPxeDPeDmhpokD+GOewaJkdwVHRIi2BfX+gZnQqdMQ3m7eTztrHRmSlHm6Jtra1TPp3E2Kvry/FetaExZvUnwuRkxNe+u/2S5gdZpwZVS0u2cLcEvCzv7289MVRjFxJiRz+kLY9ZBz5m29hKXauovzwoCmL+AE7LP0mBcXfDXg/L8xkDs8HRjXLtjc73DoNLpFQs5ufpYAmYy5ZKRIqMZVnX7Pj5dezGbxX7Rtqo/96zs7a2JU1EVl7X52l59smIo526crdf0vwg60wdYj7epjrKv9brKDsyTMDqNt+I3cbawJVfjZ+I+Rq9klwmIVgzVMLkIlWRgOCydIKf2d7fzIme8XKJzLoa4xWnu6ybjrDSxtJq1L/LaeTSJvfsUV2CS4vcvh/UOE7L0ix7ddZ3FtUxm3e34Frj6PRTdsIbAVmbDVFC5c+eumLr5xfHXbe/Mm/q++bY3X5J84O0qYL216oDejnmpGZZ4dclgxtfLAK2kn7Y9stqxy/alNqZIEruT2QfXIFft2Y3/N1TzJ9bKAMk2efnWXLGLgFzWdTdjfpuMS/+Qcbo4QPAegZMNsYVBbVL5OqOZZRLPioqs+nubaPeL2vizd+3f23P/XbylXSM21L6fLdnt1vozBx1YVM3amtfzHreAt+zyHHEv+b/HUBaYvIsuRZ+l0u6bq/vsg54DPocfcjtzbHkenbX2bLBw+6T+DLrZ3p6J9m95mfE/BNdLSrs7Q1IFYxlY+zRyQuOVSy3WW6zy1mr31pySyxW7fxZjYPnMwk1+iIqrmUcdqpqFymlzM63U8Ng3ipHzEcFgudFDiHf1HM8nmaK02Q7dnsdEbPy3jEvrutuNcSOJa/i5LbBSA8xL0I/+k/EfDS6ii8UwserwlZsTo6iSUHi2xjLTuXextixbrnXu+78CNVW3l/JUr/ZHZGvD1Nzzn299FHV9VO0JUv8G51x7Q/Aegzaczs4Y3qx7VbGIlyflIy522flZbsbIEBrsiW6LLLtDbDfFT1G+5GYliv9lx5DzD/R8aLSVi0WLuEvG6OADl6w7LqAa0vYtmkIXWJWCsW7Bx85ETzFNmmHy485ucWnJevNt+PdxKBeC1xb+U0BfHN9jYevb4mYO5K9pCGX9aMGs80yhQhQcSfuxoGJWS/C6m3KtVYVMNqPEJZWShzYEEDMb2A85qvoBGpoDG9lK3iECdwdQXObQXppyn4DaHY6nQqz9TajvDKWHUqrtkkfVVs/jU530/nvHffyYvmTzDhpV8ybcdKuHUEel231jeJ3W27TF/vt7/aaz/d6xLxpQ+DyPumXlEbLaD9CWNp0OfIjgJj/sXjON1HxUurdI6AYjUdYI+baLaa2mcitj2SD3arg3dq0fjdFWqsDldoGhytd+XkgQkR9qq0+mHHSqgg2+RaLftoAACAASURBVNfGWEZLrr9N320GkLkyiEwnulzV1BXZ7oT1g0qZ8Xi4ecQZY4MJYv4Ml+/viHlfUi2dh5g3vGUKXP/GY/fFUhWPjkxbWxW8hvv+/niEbUZHVq9/TNaizggbahOapvBqVMwbjAX/vxrxtC9CMN69pHGL1/CH3oDAxyepAnpbgNTvqWWR1yfUK4OlD8dU299xPWL+iX5GzG+8GtMIyWvE7jGV3PrdGPn31RRh9YrFvwJ7f7F9UvGYym2VqJd+gsCdVNGjRmfriCHxO2I+vzeMelxxe5PTcnMQVs+s/MdGu/1Znp/abD4gWRg+XLYSvfdNsLI8Ye2ntB8xL/1999+I+bs9UCJ/IRrCKm2JAt2ZZmAjZG39qLd9HM095yvuXGWD/ZhlNkJAViuEHaGu9wHXd3n6zd7s9Zbfo74IXyDmHU5POiR8sGnA9fsl9DMzvfUCMn1sWN7XcKAvk0pV9uKKZ+VXw0W/+nmT6W9b4PW05YVL8n0fFdxlkIOl0L7B7FsSZtRF+7EJ7x9CvgUTeKGYl42GmHU1OtyT32oVdUZlSah0weFU4wXC3wc+s9fHr+xEGhU0zHukzQbXMau6d2HVx4W40XW0yh7AUU5He9IP5naiNaGXHb4Ts9G+1DaDau+Lb7w+/uuPvtdvvdTid1L1iV/R3uh4GV1vpd7rn1wCs6Yos8si467O+r28dEEMyr8++O79rwdb5qBd/+75Lg0bS94j1mAkbHbd7FvWvjGiiKIctU0GRFhUxSWIeUdn62r8nccOhOF93hWCosoyXklHdIw7PKzOxDhPMEXMX+lA66VFui46RealpXJlJuPELbb0DOokXwHvSu7qY6KT3X3I7QFiXrbnH59cDXwnP+mHyD6qHZEk2miv9eg77K44bN29dddzHWN64F7PYNHRPg0+g9nZMZhMEPNKlqOSwc4VsVMwD8R8ZEO5dAaG4CvoJa+kZ6VnBQZx+7VO0eNlUKaTREdh+Uw2LLoBlg2cPCdsRiOTIV7JmLMntc5ge5nyOUkIx6XeVRvUMk72O/n62o+AF+MIn9QmGq2BuXcbX8mM9oGYX+7qTLMQiLrtH5xLb8Z6lORupbf8VW393prwWTq31OO9+LL6mu31N30XdffTDrmWZ330hF7S5bYxsQ+0ytGrYZxUjXMcN3kqONsXivlgRvVeYFWIrXiopGO6nd6BmHfMsLiFiRRpiQ1ZQSaPEvNOUVMv+123zrpjnJa1znbHWIk9oi1x14OvhSHn7kK57wf9DMNn4sMtVG7Xklbcf4XOKTLZTnVq9+7KaVpXnSDa59pn5Rcsn3d92HV52/+u3+vrh63B095g5PB4ertlL2tdmX0+b6+HV1WBTPkg5jOBvCUZ0al+Ghe9FnTMP8K1Ohiz4rkbtvQKn85VdBbrbIllz9FtQ9lJ1mCXm8xzxLzw29KxHPnIzaO6o/OkRnH37H7BJVmfxLdodw6Ff3UOEAWy2gHdrp3YL5LI/mcKX8ueyuuMsLXatfKrky2+Ol6+gv37oLurL7Tv9q4J3vN5JqRNGz6DSaPdWvvR5OJ/l/DINrHapZTJBhdLADFfDO0FCcuG0BhJ6wqY8R6rsxE7E/Q3d4qLC4QQ7/XDZGJG7vvw0r7HhNjJ1pDt5xj7yzPEvPDZN66fM1Nj23enbXKm7rQsot1pWszriuZo204ZxFZQn+sE31CBK9uAev1TVz04dY1eymT0sTtr4h13fBdxfGtQuaz73aGy7Op7NSwP6q8aQvgqhy2OercdROTIwmX1U48h5p/i2eXWsb1uMltDflLxtpXw971CMW81xnJ9vCsghJivuJWRHXmoEHBZf+0x0Wl8/ZUtjq81Zj+3RMG2n3DgL7Je+8S2KPsTfFNVvYnxycbtcnBWbRsg4uj+O1QbiNZX0Qfoh1sPJ8v0mnp7suv4GivTig6Y9ifbIWO86W1V63DTC8W8GZQ/4WlXvNPfqpyhlfbVIKjvDXZXo6p9690gyYbHR/DcZLJla8VldSGyyh/iJ1eCtR6TMXVLWyIHTp5thRBh3vWoVl8sk/Pybt2Nu5DI2Aitw8I/dYp5GXu17lD1CVqrXfLyiW3j7Uu4YuugEVPpS7cMnre0fbEg6r0OMS9mak8F/Pb8WoPQqHh1N5JXVA1rpir0IauGeBqNpI5Vr07nCi+c52H76bOz0PmVDZ4hBdstbYkc+EdMaGzbw8331gS+FXu3+GONY+GX0LKI9qrKNkCWMdTGFdUln8IfIf2HrOeNrgU3+pVkX5k8G+qiLom22EwQ85sOKEjI6+uSgzrWbSfXiQbk9ZUlseMwGrKQhvzETSV+Nsvajpi3xJSuX08OXBmTt9hqdqrB7d9B29m8mL/FH2uLIGd0Pe+YrJdXEVtrYVyf0r6Au6Su5EofE/1p2Oy6beutoRXFymwnkuu2wTN9lj/KpAde9EIx/0AvSpOMylJ5QynLbvxt7uUb/+ZMszHSuw8cLnc0yiCujRrA5bLDKJjzj7JivpAdUnwUF/KF7HB6xH1QDl7iOshUO0RsH4jzUKEfZk+qHW7GIUdlvQkr/5pTPjtkeUIEYHps5bNjJWN8WvU9cLBiJHb0RyY7ZHmD+gBbzIfHViY7jlAd/GbGYgZfGfokpC8+KCQ/KcT8E4PAqCztinnZKX0ERVxjYjZI/kxkGcIb4r3Xy8fZcRau0s6cs9uSRYo//uxw7BChy7zuofB3XsYvRewIKp/s4OM6tNvsEOImpk5scd1mx1oI0V6GDfbXRDLXc8HYvx6nx1ZZf8jy+bfFP9J+37LZIX0RtHWpbW/IwExbms0OP2ybs/Qgwlx6F1r2TWK/rwbPuLbvlxjfVgKI+ZXEkz5F55Ta2d6Dxm4E19nBKHsEE79bpXLmMkaAZ7bjxBmy8fUXAScJW6/g/jXyUf7Q2Vk++SytKSnkVQk7ztCJ363OOWimb03s2rhac10+jc44VYzdaMdijCP/KMXiSOd7pyOufsi2x1P0CN+ELwXNbYcROfo1w+KNojFtqkjT+WdGOxztlHeIWNd6+vHPpox2/KV5/sX1NvlsfYkRA6E8zsv+1jMQ80/0vGhA4jqTu8HsN2LhHdTHFkvoHoooO/84jnY666Ak1o4jz1g2evc6R6nq33LbIcXKVc+g5LbjjNv2d/2CFLFrStCSLzMt4yUu2yUyh3G9TSPyu9EZlxPzJeqHYbHrBV5Bs67b1PLHVfCgT7T7cXcY8tuxpSTbp7g2dZvi3vecdrjS8hGhjjYuuD125f2dSMlYzz9vRZ7UONp76ev+KutLr4z2w4fjno85viWAmN/SeMp30aiXazDLArM6sz/BEjub42hcv/vb/izRL9JwNGjBjfAmRUvArbPaMXY4bPjjsqbr8xmed05/yE79b4ATYUuoa3LaoWcaex1D46Qm/a6Hn9u/32Y1z5OadjrJ0LJvk89qxzbhs+9GZ5wq5veWEegYDo9RpSY19IMaVn9YDvn4YxzkoErnlyYs8vvDUddd+3HvvHk0tt3Pb8daFUbx0qU03mdhmtUO0aeu7dXnOS4RZNofzvoeZ29WO3T9CGpjv2+3PYMd8rvRfsQxCcnuLeci5p/oadHwxDbqNaBxi76YTv5rjWCzNsqHnxlmQPLZEdoY7wn7OIa57HCns1fW4+MxgtidfwQTo2M6LqcZY3k6sWx2hFR2YXOO9iWfHZH14/Qt0H6A8tmR0F5leDdDdjuUXmEj6kdMxfVzw99ZVp6LkI2o5/repIh7sz4L2yzBnFbf89nhWz/6vLPxfx5ZAmGz1CqNyzbZt39HzD8xAoRgzdHZ3ofJ1fjENcZ/Nuy9bttqgHPeXsxlhyuds47E9XssQ1f+4Wm5OydXOc+PxWmCPHbYa4DPypu7k8xkx1/l8PgiRE2e9iWXHa50jnySe+bRlX94/TC8ENBeddadRiOlgD8y2yH6pNS7IP6G5LZD3/k5iif7t/hd2LZW5rLDlU6n+l63S+sdrW2+Bb4b7QdiPhfhbGI+V4FIJwMB0XDm6WwzlCsqCceawQwz5booevmDvt3ei8ZZN2z6Nv0s7p5GFf/vonJ2/GVxyRfskJiXONK31Xv30o0lnoZxWYYjr03/G39YDJdlDqMaHHVbi8hP/db+sK7McKCcP/baq24RYrnjq5wdGSAHJFHIDt13fOt8LyeBtD++S+/yhVghOwJIZjsVMZ8N5TYhxPyWxlO+P1zMtzk4sRtj7LizwuGPO+nbeeMPm8mdR/DHnfTtvJ/iD5bZ2L7NcwQxn4djZamIW2lx6xDqsEkMTK67PZvZfOzIDDQxOfyRCDDz5fgjM9DE5PBHIsDMlz/FHxoLM/OZg+OTHGK+CNa7ExWj+EzLUq63Stihb2c2OTDBjutj5yhH/HFE5/rf8Mf1zI9yxB9HdK7/7Sn++JAzn5dKfJ7kemdUmyNivlrXpBXMrDDp28ellSbw6r2tvVoblGBHoOMLn44/CgMOTB5/BAIrfDr+KAw4MPmn+GNrtjEr3+rk3Nager4j5uvxRd6SWLfl9M4suR+SyltkOQAxtv5qSMhjR964SE0Nf6QSzHs9/sjLMzU1/JFKMO/1T/GHQUUPTBzvdmjyRrthWD1/IObr8UX2kuy/bOK7fVZlAtndiH13lslOp1yC2FGObUzK+COGWrlr8Ec5tjEp448YauWueYY/HEuD5K4/KPmsQYSYz4qzvsRm55voKhfz3z1vx8n1Rs36GMsS/TXG2CHR3PI3/rgF+26m+GMXzS0/4I9bsO9m+gx/HIv5HiG/6//YHxDzseSauu7zeulBi8vt6LiymfmmkFJYCEAAAhCAAAQcBGwxX+b9LY6sX3oIMf9Sx2M2BCAAAQhAAAIQgED7BBDz7fsQCyAAAQhAAAIQgAAEXkoAMf9Sx2M2BCAAAQhAAAIQgED7BBDz7fsQCyAAAQhAAAIQgAAEXkoAMf9Sx2M2BCAAAQhAAAIQgED7BBDz7fsQCyAAAQhAAAIQgAAEXkoAMf9Sx2M2BCAAAQhAAAIQgED7BBDz7fsQCyAAAQhAAAIQgAAEXkoAMf9Sx2M2BCAAAQhAAAIQgED7BBDz7fsQCyAAAQhAAAIQgAAEXkoAMf9Sx2M2BCAAAQhAAAIQgED7BBDz7fuwEgtmNY2DGvpe9V2nuvV/P6q5khJSjNoIzGrsN7HSdarvezWMEzFTm6soDwQgAAEIVEsAMV+ta9op2DwOpoBfhbz+RMy348jLS2qL+b9BYKdFPcPAy11ChhCAAAQg0BwBxHxzLqurwPPY/2bhtyJ+/Y6Yr8thVZXmSMx/Zux7BH1VHqMwEIAABCBQHwF/MT8NDtE2qMnXJnH9YF04qWEVgLk+EZK+3ok7bx6tGfl+GNU0h82oygGBHRvu4snruq5Xt2o/B4/fTLO5nGT/eECdcmNJOmoz3Sm3Xk7VD2oYtb+Tsvy7eJ4nNQ5ycHizT/9KxxcIQAACEIBAnQQSxXynvGfOEPN1RkBCqabBFHresSDylALSS8yLeNLi2Os6kXfWP98k5q0Bd6+Gac6y1n2Wvr3dsVmjhMQgAAEIQAACWQkki3nvNdGig7b7Z2bms3q2eGJiiUTCXZBwMW/HSuxAIiumV4v578CuHzLM1IvY6u69W5E1RkgMAhCAAAQgkJlAupj3nRE9FfPnloWLvvM0OSOWgCmoU8R0mF+l0OtUZ48MY40qdl2YjcWKcZqwXzlnNc+f3Yt6sRvNZ/lQ+tIYsxzp6Z0azgkQgAAEIACBRglkEfNes/OI+UZDZKfYYhY6RU+bwu14uYw81yv2dky48rAsdwqvkuWOKadeFmNsR7oswUmcTTfaC8R8SZ+TNgQgAAEItE0gWszr/aC3D/GdihOjcz4WbHtIY4TGXlocTyRwh5gXMdQ1tPyildiNLqeIh6VtOG0UDmLQ8DVi/oAUP0EAAhCAwMsJRIv5YTKXWZzOkBqdM2K++bgT4i1Ft/kJSBFvd+9cE+hAPxsDEy1weko55bVJuwsZ7QVivoCrSRICEIAABB5CIEHMK2XuZnLS4RqdM2K++fi5VMzb6+RT1ujfwV4K3ZTBT8nyp5Uzo5+M9uKkbSkJhLQhAAEIQAAClRNIEvNKCLrDBxGNzhkxX3lcnBdP+D5FnJ4JSPn7YZydl/yWM6QNKbxKGpBaTnn96R27PWOM9gIxv4eJ4xCAAAQgAIE0Ma/kTNxBp2t0zoj55kPvKjEv4iZaHN4MXIrcp4p5Jf0V+1yDkc5Bu3KzX8keAhCAAAQgcDeBRDGv9Fob40HY3VlTcV6MmGlFEN3t1Evyv0TMy3XyiTukXALGnUkrsZteTumzSCFutBeRabhdwVEIQAACEIDAowiki3nf2Xmjc2ZmvvkoKi7mA+76NAAzXSRfY2R6OaWYj6vrcpIgZvB/DTFygQAEIAABCNxLIIOYV0oKAOfs/KvEvC1ottt4Bn1PeLNq0dAy/Jk2cyrjRws317Gi9hROvBV70sspB2GdinpYWQwWo9Io7FOShwAEIAABCNRAIIuYV0qKV8dyCEP8xc3WpQuNq5BLHt9X3S8v0wn8XqWYF4ItsYyWXwdz6dYThJxl43RVLIblk15OERtdpJi37vgNaprDbOFsCEAAAhCAwBsIZBLz9kyqJcAQ8+azBb7CPlEo5w3iWc3TqIbeHJCkLoGQAlLeubBiKa9Rl6QmbUxlVqrQ6eXMJeYdz+N0vRrGSc2I+lLuJ10IQAACEGiQQDYxfzo7/yox32Ak7BVZ+M0U2r0aMkyXWgJyHFUvBju1it89bPK4ZSMz8xKR8+95GqxY2MZg63HhNJqDEIAABCAAgQACGcX8yey8EIUxnXArgiiAf/2nCr99hFSv+mHMNkPq9KuVb9q6/LtBO228u1CO/NPLac/Mx9R1s2izmsZB9eKOkI7F9LTNnPgLAhCAAAQg0BqBrGLeeonUdo9pIc5iOuF0odGaeyoor/Dbdla0W5Y9pK952POr+YbhTrW6x7z24p6NFXjYKEJ6Oe3nRWLq+l+hxIOwZvwh5v848QUCEIAABF5LIK+YX5a57qynFqIwpoNPFxqv9XMew2e9Zt6eIU1d077vV3uW17lTUh7riqayb2PRbIMTTy6nJb4T7qjItPpBjdOs0oePwVi4AAIQgAAEIFAtgexi3pqdXx/gfJWYt2cn5Yyi998rv6pCSNrn2L0ooLyHAlIKuujdUQIKVODUQxsL5BebZHI5RT1PuZti3Jmpsh7EUuY6CEAAAhCAQD4C+cW8NTv/nZkTnfyzZ+al2DXvVngLef0QaK0iJoM/1zA+FZAiL80vJn7W/O74PLXxjkI58kwtpyHAkwZeZh1qzd8OtByCAAQgAAEIFCFQRMxbs/O6JxaCLKZzThUaRQg6EzWFSJB4F7u4VCvmxYx5jD9XdD5+lSKx2z6PsSZU8aePjTUUP6mcIib0MxVj7JoYI62EdGqAShkgAAEIQAACBQmUEfPWC196NY7mi4BixF+S0CgI8ZVJG2Ir9sVAH3J+fnWsn89y12JW09D/vQNA79KTYbdNKyT8bLQuCziQx474cjr8E1PJV4uN+ELMr1j4hAAEIAABCEgChcS8/cKXvv8JpthlEvFCQ5rN38kEDLF1hZhftoSx9xxPEYyOXWY+d1HSngFwsS0duzL9WDtkOr54twOiT96JAty4k5eYlsshHIMABCAAAQg8hEA5MW/Nzpvrxn1FwpZzrNDYpsH3TATuEPO66IbI+8RU/G46jtnk7zKn+DTdfMvGbj47gss5T2p07P+ezM/wM2LeHVUchQAEIAABCChVUMy7hddn1i7uAcZgoYGHyxG4S8w7Z9Njxd6+CM79rELZ2M1nh1c5ly1KRzWIu21r3U4W8jpqEfPl6i4pQwACEIDAowiUFfMHs/PMzDceRzeKeeWMq7ilMVK8roI06gFbweSXlnlX6vj4vXbs8/CxoVdDrgcOEPONNxAUHwIQgAAEriJQWMzbb75chQxi/ioXF8pHCNeU2VgpIP1iw7FjUOQDsfZOOVq4RohqwWSN9bDPiHy/Ls5hh/SFX9l7NYxT3pc5IeYLVVyShQAEIACBpxEoLuaVcoiuyH3CpdDwE31Pc1kl9gjher2Yl0sxvjPHUUHhitEIUS2Y+AlhOeMdke9fSKTbIeuY04a+V30/LAI+10T8nwnrF8T8SoJPCEAAAhCAwCEBfzF/mAw/vo6AEK4pYv5+do4155Gz/Pfa8hQ75EAt9pmIe71B7hCAAAQgAIErCCDmr6D8xDweLubbHJzYYr5NOxDzT2wysAkCEIAABMoQQMyX4fqCVMWSjqjlLZVgEgOTpDeX3mnSU+zQDFlmc2ckkTcEIAABCDREADHfkLPqKqqYBW5yWYomKuzQ+8w3OTB5ih2fKDcf5k15jqCuWkNpIAABCEAAArkJIOZzE31ReqbgSnsL7OXY5llN42C/Uba1QclT7NgGgDEr3+rgamsQ3yEAAQhAAALlCCDmy7F9fsrWso5O9cOopnmu1nY5ADF2a2lIyD/FDiNQ9MBk6JXhk8idr4x0+QMCEIAABCDwYAKI+Qc79wrTTrcyrEwgu0VwgX3SC8N/hh2OpUF6mdP2f5NLngo7n+QhAAEIQAACGwKI+Q0MvsYRmF3LVVZBVquY13ulD4Mapznvy47iEAZf9Sfmm7bjWMz3CPnguOACCEAAAhB4HwHE/Pt8Xsjizxr0QYvLVcjrz8rEfCHjSTaKgC3m+/57l6TelVpRlnIRBCAAAQhAoBQBxHwpsqQLAQhAAAIQgAAEIACBwgQQ84UBkzwEIAABCEAAAhCAAARKEUDMlyJLuhCAAAQgAAEIQAACEChMADFfGDDJQwACEIAABCAAAQhAoBQBxHwpsqQLAQhAAAIQgAAEIACBwgQQ84UBkzwEIAABCEAAAhCAAARKEUDMlyJLuhCAAAQgAAEIQAACEChMADFfGDDJQwACEIAABCAAAQhAoBQBxHwpsqQLAQhAAAIQgAAEIACBwgQQ84UBkzwEIAABCEAAAhCAAARKEUDMlyJbUbrT0Kmu+/zvx7miklEUCEAAAhCAAAQgAIEUAoj5FHpNXDursf+J+WFqotAUEgIQgAAEIAABCEDAgwBi3gNS26dMavjOynddr5iYb9ublB4CEIAABCAAAQhsCaSL+XlW0ziooe9V/ycafzPBvT4+DGocJzWzwmPL/prv87jxy6CYmL8GO7lAAAIQgAAEIACBKwjEi/l5UsNm+ca6JvvskzXbhd06T2o8GFxp/+gB1jCOamJ0VdgZJA8BCEAAAhCAAATKEogS8/PY/z1QeSbe5e+I+TIOnaeRwVUZtKQKAQhAAAIQgAAEqiUQLOadQr4f1DjNzmU08zyredrMFrNoO3MwzGoaGFxlhkpyEIAABCAAAQhAoAkCYWLeWH/NVoc1eHi77eR6F6QfPkto9CMK298/d0X0oGv6PefA4KoGN1IGCEAAAhCAAAQgEEUgSMxvheEiHNnnMAp6toumQSx3krvVsC1lNtYkBAEIQAACEIAABCokECDmt1scfmbl0fJ3etQU6npwZftj6zMp9O8sO3lDAAIQgAAEIAABCOQg4C/mrSU2iMMcDohOw/KHY9tJ4xzH79GZcyEEIAABCEAAAhCAQA0EEPM1eCGmDNYSG4dY357Tj4pt/mNAcw0EIAABCEAAAhCol4C/mFfbJRs8/Hq7S41Zd+0Px50SxPztbqIAEIAABCAAAQhAoCSBADFvr9F2CsiSpSXtDQF7cNWJRfPGNqLit01CfIUABCAAAQhAAAIQaJRAgJhXyhCH3Wd2Xgv6YWIBxx3+t3YX0j7p9baUn9Jsf+dlXXd4iDwhAAEIQAACEIBAWQJBYl4p1+z8V9R/XxxVtrikbhJwzM5/B1l6r/mhXwdcrp1uzJT4CwIQgAAEIAABCECgPQKBYl4beCDoFyHZq2GcKn7Ycl8Ary9d8v6s4aFSa+38T8D/7HCsp28vVikxBCAAAQhAAAIQgIAgECHmdQqzmoZevLDIFpGfN5GKHG//82FifuE5q/HUH73qh0nNrIi6PQIpAAQgAAEIQAACEMhFIFLMf7OfJzX0rYn6J4r5lv2RK5RJBwIQgAAEIAABCLyPQJqYX3nNPjP1PCi74ir/6emPkWn68r4gBwhAAAIQgAAEIFCOQB4x/1e+Wc3ToPrNg5e/ddufZTjsqvIHq+gX985DrqVQU9FykDgEIAABCEAAAhCAQDkCmcX8r6DzZO6m8hP1PIz5o1Tum7Ut5cHdEwZY5fxAyhCAAAQgAAEIQKAkgWJi/lPoneUeNewCU5Lq7WmbOw4Z74vSzzn8vSNgnakfFPPztzuNAkAAAhCAAAQgAIFgAoXF/Kc821nizwz9nbPzLjG7itrAz2oHJaaNhpjXLnFsZ2mdExxKXAABCEAAAhCAAAQgcDWBS8S8Uqa41IL+PvFol+W3BOiJYt41cDJn7rX9LLW5uuqRHwQgAAEIQAACEEgncJGYt8UjYj7debspGDPvriU0tj8Q87s0+QECEIAABCAAAQhUS+AiMW/Pht8n5qv1Rb6CTcPvhV7OpUD4Ix9sUoIABCAAAQhAAAL3EbhGzBszxXopi2vpx30QnpazsS2la9S0FfvLw7Cu2funUcEeCEAAAhCAAAQg8DwCl4h56wFY52zx8+DeZZHBW4p5a2DFevm7/ES+EIAABCAAAQhAIJVAcTFvzBJ/t0SU+jLViDder7n2/aCGcVTTNKt5ntXnfa7mevjPWnj9Mi+973//W36zbk/JwOqN4YPNEIAABCAAAQg8hIC3mDfF4/QRjx/1aKHQwnIa3S+N6lHyFq+YA65BUvCuPAj5GPRcAwEIQAACEIAABKohECTmg8XiOvv7/UTI5/N7kpjvezVMOyOxfEUkJQhAAAIQgAAEIACBwgSuEfP9oNCO+T05z5Oa9PKZYVB936teDJ5+g691Sc6EH/K7gRQh8MmgjQAAIABJREFUAAEIQAACEIDAbQS8xbwu4bJ8ZiseXWuw9QuItLAcBjWO03cd9232vS/j7U41LKN5n/+xGAIQgAAEIACBVxEIEvOvItOoscbyG55PaNSLFBsCEIAABCAAAQj4EUDM+3Fq5qzDbSmbsYKCQgACEIAABCAAAQj4EEDM+1Bq6JytmP9sS9lQ4SkqBCAAAQhAAAIQgEAQAcR8EK7aTzb3mGeVTe3+onwQgAAEIAABCEAgjQBiPo0fV0MAAhCAAAQgAAEIQOA2Aoj529CTMQQgAAEIQAACEIAABNIIIObT+HE1BCAAAQhAAAIQgAAEbiOAmL8NPRlDAAIQgAAEIAABCEAgjQBiPo0fV0MAAhCAAAQgAAEIQOA2Aoj529CTMQQgAAEIQAACEIAABNIIIObT+HE1BCAAAQhAAAIQgAAEbiOAmL8NPRlDAAIQgAAEIAABCEAgjQBiPo0fV0MAAhCAAAQgAAEIQOA2Aoj529CTMQQgAAEIQAACEIAABNIIIObT+HE1BCAAAQhAAAIQgAAEbiOAmL8NPRlDAAIQgAAEIAABCEAgjQBiPo0fV0MAAhCAAAQgAAEIQOA2Aoj529CTMQQgAAEIQAACEIAABNIIIObT+HE1BCAAAQhAAAIQgAAEbiOAmL8NPRlDAAIQgAAEIAABCEAgjQBiPo0fV0MAAhCAAAQgAAEIQOA2Aoj529CTMQQgAAEIQAACEIAABNIIBIn5eexV13Ve//u+V8MwqnGa00rI1RCAAAQgAAEIQAACEICAk0AxMW+K/l4N46SQ9U4fcBACEIAABCAAAQhAAAJRBC4S89/Z/H5E0Ee5iYsgAAEIQAACEIAABCBgE0gS88NkJ7gcmWc1jYPqe8eSHAT9DjQOQwACEIAABCAAAQhAIIxAGTG/KYNrnX0/suBmg4ivEIAABCAAAQhAAAIQiCJQXMzrUtmCflB7k/pRVnARBCAAAQhAAAIQgAAEXkjgEjGv1KQGsQvO7hKdFzoBkyEAAQhAAAIQgAAEIBBD4CIxr9Q0mOvnWWoT4y6ugQAEIAABCEAAAhCAwI/AZWJeLrVBzP+cwDcIQAACEIAABCAAAQjEELhNzHess4nxF9dAAAIQgAAEIAABCEDgj8BtYp6Z+T8f8AUCEIAABCAAAQhAAAJRBC4T83LNPBPzUf7iIghAAAIQgAAEIAABCPwRuEjMy91s7tyaUpbFfDC3E7vuHP7NC7D+AokvEIAABCAAAQhAAALXE7hEzMtZ+XuX2CDmrw8zcoQABCAAAQhAAAIQKEGgsJif1TT2ypzdvnNWXiNEzJcIJNKEAAQgAAEIQAACELieQBExP89axA+qt5as9GqcrzeSHCEAAQhAAAIQgAAEIPBEAkli3pxxP1l73g8I+SdGEDZBAAIQgAAEIAABCNxG4AIx36t+mBQT8rf5mIwhAAEIQAACEIAABB5KoIyY77WAH9Q4zYj4hwYOZkEAAhCAAAQgAAEI3E8gScy3uVc8D8DeH3aUAAIQgAAEIAABCEAgBwHEvPWQ7sna/+357DOfIwZJAwIQgAAEIAABCEAgkgBifivOQ78j5iPDjssgAAEIQAACEIAABHIQeKGYz4GNNCAAAQhAAAIQgAAEIHA/AcT8/T6gBBCAAAQgAAEIQAACEIgigJiPwsZFEIAABCAAAQhAAAIQuJ8AYv5+H1ACCEAAAhCAAAQgAAEIRBFAzEdh4yIIQAACEIAABCAAAQjcTwAxf78PKAEEIAABCEAAAhCAAASiCCDmo7BxEQQgAAEIQAACEIAABO4nECTm7y8uJYAABCAAAQhAAAIQgAAEVgKI+ZUEnxCAAAQgAAEIQAACEGiMAGK+MYdRXAhAAAIQgAAEIAABCKwEEPMrCT4hAAEIQAACEIAABCDQGAHEfGMOo7gQgAAEIAABCEAAAhBYCSDmVxJ8QgACEIAABCAAAQhAoDECiPnGHEZxIQABCEAAAhCAAAQgsBJAzK8k+IQABCAAAQhAAAIQgEBjBBDzjTmM4kIAAhCAAAQgAAEIQGAlgJhfSfAJAQhAAAIQgAAEIACBxggg5htzGMWFAAQgAAEIQAACEIDASgAxv5LgEwIQgAAEIAABCEAAAo0RQMw35jCKCwEIQAACEIAABCAAgZUAYn4lwScEIAABCEAAAhCAAAQaI4CYb8xhFBcCEIAABCAAAQhAAAIrAcT8SoJPCEAAAhCAAAQgAAEINEYAMd+YwyguBCAAAQhAAAIQgAAEVgKI+ZUEnxCAAAQgAAEIQAACEGiMAGK+MYdRXAhAAAIQgAAEIAABCKwEioj5aehU133+9+O85sUnBCAAAQhAAAIQgAAEIJCRQAExP6ux/4n5YcpYWpKCAAQgAAEIQAACEIAABP4IFBDzkxq+s/Jd1ysm5v9Y8wUCEIAABCAAAQhAAAJZCeQX8/Oo+j8xPygm5rP6i8QgAAEIQAACEIAABCDwRyBdzM+TGsdBDX2/EfG/ZTZ67Xzf92oYRzXNrJ//I9/Il3ns/55/0L70XTYlrzu8S2MMAM3YWZ+9OP9k4NhISFFMCEAAAhCAAAQyEogW8/M0qmGzNv5cbPFAbEa/XZaUFOVeYn4ajAHA6SAAMX+ZP8kIAhCAAAQgAIFnEYgQ87OaBnO21lfI6/PY3aatAAoX89tnJjwHcIj5toKC0kIAAhCAAAQgUA2BYDG/3XZyFfH98FlCoxfRbH//CPdZzfOkpnUpDk/EVuN8n4KEiXlzJ6MlPrym8vdLEpb/fjr8AgEIQAACEIAABJ5IIEzMW8sn5G41pphL1HFP5N2cTSFiWp7b9aNKfUpCpklMNRdCFBgCEIAABCAAgYIEAsS8KdT1rKstrLZLLKTQL2hF5UlrQdoPU7KwvcNMbzFtDfTyPJDqnf8dcMgTAhCAAAQgAAEI3EzAX8xb65odYs04x/H7zcbekb0hRjPMVF9tg1F+5wBOl2g7iNPr5PMN5Pzyv5oK+UEAAhCAAAQgAIE6CPiLeZ+Z1+05DQrX7C4xBjffLRf7QU2pa0+yF3Q/wXMxbd+xyfmQ83n++2XnFwhAAAIQgAAEIPB0Av5i3hKmjtlXxLwdLxa3vDPXdoZ5j5yJafl7Z6+9SiqQTD9z8kll42IIQAACEIAABCBwNwF/MW8tpeiUFG6G8EJ1/Xw7T849+YcGpugNn8plNtvBm37rb4G7MYf5/wjzDQIQgAAEIAABCLySQICYN7edXLel1AJu1aT2tpSvZLpjtL0cRTPUD8bW/G9fTMt18mWekdjPv2ZqlA0CEIAABCAAAQhcQyBIzNsPOn7XgS+i1HwjbOUa9Rq6jlykOF0GRQVmtB1ZRx2S5f34VQ5MHEuuonKzL3Lnb5/HEQhAAAIQgAAEIPBGAoFiXinlXAP+E/WfGfty4u4JTpqnQfV6Wcr2f6UPxrrEtOtYKb9cmVcpG0gXAhCAAAQgAAEIlCIQLuaXksxqHHpTjG6F6fL9u7d6Qzu3lILsTNc5KKpvEGSJ6WEw/J5z5xoXJyv/ulcluUzgGAQgAAEIQAACEChGIFLMf8uzPNh5Jur1uvDfuvpilrSYsPPB2F7V9GCsFNPG3QS9vGosO1qT+bN8q8VAp8wQgAAEIAABCJQikCbm/0o1q8ljpn4oLPz+itPUF7n+/LP8prRI9kVkielxtJYIlRTYVv7MzPu6jvMgAAEIQAACEHgBgUxiXi+lP5+h17O6Ve3e4lzqItayW8uHrtm1ZZkBr+DBWOnXRbjLLSkzvvFV1jln/vIk/oYABCAAAQhAAAIvJZBNzFvbUs77s/W1zDr7PcwrxX0ZMa/jTwrXRdAPkyq7kOU48mWZ1ln4rb9LDjz28j8uNb9CAAIQgAAEIACBdxDIJObNpSKr4FsQ6nXhF81uB7uMmflTZPti2vT5OvA4TTDwhP38AxPidAhAAAIQgAAEIPBAApnEvCnYDTGvoTlEs3XOA+H6meS+g1HL3YtDMe3wa+5yH+bvB5izIAABCEAAAhCAwGMJFBDzru0V7Vnc3KKvTQ/ZXLqu7t1srEGYtX6+U9Y5Cc5BzCfA41IIQAACEIAABB5PII+YN2ZoXWvKbdH6ejFvMFvX5bsGQvfGoI+YttbPd64YiLPDJ/+4lLkKAhCAAAQgAAEItE8gj5jfzs46d2Axl+Ho9dU5Z29bc0Prb4C1eduDtc4ZB/aVZ0cQ82eE+B0CEIAABCAAgTcTyCLmDcHlUulbsb88DJtv5rY15xms1geDMwnfEixkeV3uXfJ13WnYPdm/pN75+yfJmRCAAAQgAAEIQOAxBLKIeWOZhRRwDpH3ziU2Ow+6Sl6VhVaQmLYGbelviA3KvzJ2FAcCEIAABCAAAQiUJuAt5rWo6vtBDeOopmlW8zx/9z83l1h8hPqs5mlUQ+94kVTFs9DlYJuMlm0cl6VGd+4g72dtqJiW5+sHelNe/CvTq3zs4weVsyAAAQhAAAIQgEAmAkFifhWh0Z9vFPKOOxOpAjeT772SCRfTroHLybIqJ6P1oWDfz5M8vKzlJAhAAAIQgAAEINAWgWvEfF/XdouXucglUvtBTfVPyP8hChfz+lL7gefDB2JdnNbnCbw/EfN/TuMLBCAAAQhAAAKvIeAt5jWReZ7UpJfPDIPq+171u0JrXZIzNSVcS3jdEMMN3pkwyh+yC5Fj/Xy3t0YGMV8i9EgTAhCAAAQgAIEXEAgS804eW9HWoFh12pT5oBbE/TB9nzHInDjJQQACEIAABCAAAQi8lkCymDdmbvdmXl+LF8MhAAEIQAACEIAABCBQjkCymD/clrJcuUkZAhCAAAQgAAEIQAACryeQVcy/c//418cQACAAAQhAAAIQgAAEbiKQKObNbQhZZXOTF8kWAhCAAAQgAAEIQOCVBBLF/CuZYTQEIAABCEAAAhCAAASqIICYr8INFAICEIAABCAAAQhAAALhBBDz4cy4AgIQgAAEIAABCEAAAlUQQMxX4QYKAQEIQAACEIAABCAAgXACiPlwZlwBAQhAAAIQgAAEIACBKggg5qtwA4WAAAQgAAEIQAACEIBAOAHEfDgzroAABCAAAQhAAAIQgEAVBBDzVbiBQkAAAhCAAAQgAAEIQCCcAGI+nBlXQAACEIAABCAAAQhAoAoCiPkq3EAhIAABCEAAAhCAAAQgEE4AMR/OjCsgAAEIQAACEIAABCBQBQHEfBVuoBC3EpgG1XXd93+vxvnW0pA5BCAAAQhAAAIQ8CaAmPdGxYmPJYCYf6xrMQwCEIAABCDwdAKI+ad7GPvOCSDmzxlxBgQgAAEIQAACVRJAzFfpFgp1KQHE/KW4yQwCEIAABCAAgXwEEPP5WJJSqwQQ8616jnJDAAIQgAAEXk8AMf/6EACAalrMz2oaB9X36wO838++V8M4qZmHeQlwCEAAAhCAwKMJIOYf7V6M8yLQqJiftYj/24VHiPm/41rUo+i94oCTIAABCEAAAg0SCBLz89hvtvDr1DD5WSyv6zq2//Mjx1mXEGhQzNt1ak/Mf4771tVLeJMJBCAAAQhAAALZCJQX84ZQQlhk8xwJ5SNgxGgDA815FDPyvRqmWf3m32c1DebAu+sG5Tn2zseVlCAAAQhAAAIQKE6gsJif1PB3u/8j5Htu+Rd3KhkEEmhMzE+DOQu/N+suz6PuBcYFp0MAAhCAAAQaIFBQzM9qlA/l7amOBkBRxAcTaErMiwFyP25m5IWP5Aw+9U8A4k8IQAACEIBA+wSKiXlrTe+R6GifIxa0TKAlMR8i0EPObdl/lB0CEIAABCDwYgJlxLwhjvSSgHev19UDm36Y9mdQXxyAVZhuxGvla+ZDBHrIuVU4gkJAAAIQgAAEIBBKoICYF8sAXr5zjXGHgrsTofF5zfkti/mjmDLs6hRr5q8JJ3KBAAQgAAEIXEkgs5i318m/WkDImVH9MHA/qOm37ciVviavPQKG6K18Zl75DpZlXazdrj3ncBwCEIAABCAAgSMCWcW8MQuthSsP3CnlEvQvv1txFJC3/NaUmFdK7lJj1zMp5KmLt8QVmUIAAhCAAAQuIJBPzBuCSM9AH+yycYFhVWUxT2qQO/t0+qVbTNFX4ScjdhuYwTbKK97d4Iy1dz+zUkWMUQgIQAACEIBAIQKZxLy89Y94sP3lmC3tuuXBWPtcjlxKwBDHDYh55Zid7wY1WC+K+j58zpjx0nAiMwhAAAIQgMCVBDKIeSlS2xBDV0Le5mUtRVrW0XMXY8vo8u8Ninn38i3zZVL9QFxdHktkCAEIQAACELiYQLKYl+KUZfLnHpynQfXizbg8GHvOrdgZLYp5pR/H6FUn42gZHA5qZAlXsXAhYQhAAAIQgEBNBNLE/DAYYuLVO9eEepUHY0OJlTu/QTE/j44B4VfYM6AuFyqkDAEIQAACEKiNQJKYl7OCiPlA9zofVux5MDYQY/LpTYn5WU3OtfHbJTY7S93kABLVnxw6JAABCEAAAhC4m0CSmB/G0Vougj4Idal85uAjyhgYhXJMOL8hMW9tS9npwd+oBmu5jeMhdMR8QpBwKQQgAAEIQKBOAmliflq21TCW2nQt7aEuxY0liLaznet3h0jK4Fvn+ueatvesiFUG3GYSrYh5o5w6Hjcz8C7/yPgR5zBgNMOAvyAAAQhAAAItEkgX865t8qSIqJWMEDdy2ZD77zJiXiNyCvphUlXsLFgZq6whZYjkjUDOmklqYvYdHOsumGHHd/C5PUn8jphP9QnXQwACEIAABO4nkEXMK2ULDfutlPcba5WgIoHqFPI1DYoqYmX5MfWAIXIrFfNGGfff6OqKoz/RLtLY6vxUhFwPAQhAAAIQgMA9BDKJ+WVa2Vo//yci7rGtkVzdDzTC7kL3GSK3TjEvRfqRELfX1eu3Dcs7P3XaeaHXyQoCEIAABCDwCAL5xLzGYYiiz23+I9HxCIJJRjjuaCwPNFaxsCbJsqYuNuK2TpFrCvSzMso3Muu6qN8Q+116szwbUm65WFO+p7AQgAAEIACBxgnkFfOu9fMdosEZI85lK2cizZkSB1MJPE7Mu++UGc+AMMpOjRquhwAEIAABCFRBILuYd66fr2ntdwXYeQNsBU7YFuGJYl7bZ9i1nZX/LLvZIuA7BCAAAQhAAAJtEigg5ndmBZkJXCJErn1eZksZ7NxbewzRW+fdERk3vs9UyOs+s/PcLbs34MgdAhCAAAQgkI9AGTGvy2cIpM+soK8AyWdeTSntPOjKIOd+JxmxWqeYt+uTryDXcWfOymtBT9jdH3aUAAIQgAAEIJCDQDkx79w3vVKhlIPkYRquB121oOJB10NsV/3Ygph3bf/qcUfHPTOvxf1b6+JVQUU+EIAABCAAgWsIFBXzzvXzb3sglgddr4nklFyaEPPuu11d3y+DQmNYOM9qeS6jt2fkjYdgPQYDKVi5FgIQgAAEIACB8gQKi3ltgGObvLeICJeQ7wfFhHz5wA7KoRUx77zbdSLYl20oO9XpuDPs/F7HepugUOFkCEAAAhCAQG0ELhDzOzOKLxERxjKHtwxiaovys/IYIrf+5SfO3ZBW0W599moYJ7XO3Bvx+D333c+ynAUHv0MAAhCAAATqJhAk5us2pd7SaQHVDz9BVW9JX1qyxsT86qV5GtUw9KqXy2l6HW+DGrkFtKLiEwIQgAAEIPBYAoj5x7oWw7wJNCrmve3jRAhAAAIQgAAEHksAMf9Y12KYNwHEvDcqToQABCAAAQhAoC4CiPm6/EFp7iCAmL+DOnlCAAIQgAAEIJCBAGI+A0SSaJwAYr5xB1J8CEAAAhCAwHsJIObf63ssXwkg5lcSfEIAAhCAAAQg0BgBxHxjDqO4BQgg5gtAJUkIQAACEIAABK4ggJi/gjJ51E0AMV+3fygdBCAAAQhAAAK7BBDzu2j44TUEEPOvcTWGQgACEIAABJ5GADH/NI9iDwQgAAEIQAACEIDAawgg5l/jagyFAAQgAAEIQAACEHgaAcT80zyKPRCAAAQgAAEIQAACryGAmH+NqzEUAhCAAAQgAAEIQOBpBBDzT/Mo9kAAAhCAAAQgAAEIvIYAYv41rsZQCEAAAhCAAAQgAIGnEUDMP82j2AMBCEAAAhCAAAQg8BoCiPnXuBpDdwmwz/wuGn6AAAQgAAEIQKBuAoj5uv1D6a4ggJi/gjJ5QAACEIAABCBQgABivgBUkmyMAGK+MYdRXAhAAAIQgAAEVgKI+ZUEn+8lgJh/r++xHAIQgAAEINA4AcR84w6k+BkIIOYzQCQJCEAAAhCAAATuIICYv4M6edZFADFflz8oDQQgAAEIQAAC3gQQ896oOPGxBBDzj3UthkEAAhCAAASeTiBMzM+j6rtOdUn/BzU9nepD7JvH3s/Xfa/6flDDOKppbtD4RsT8Zf6gnjcYxBQZAhCAAATeSgAx/1bPe9jtLR6twV2vhmlWzej6p4n5VH8g5j1qB6dAAAIQgAAE6iCAmK/DD1WWIl7Mf+/e9EMbM/WPF/OB/kDMV1kfKRQEIAABCEDARSBMzLtS+B6Twm9gLc0BrTZ+8vPprOZ5VtM4qL53LcHq1Vj7FH2jYt5dx8r6wy8m2ohvSgkBCEAAAhB4AgHE/BO8WMiGGOE2T4PjuYrKn5N4lJg3gyG3P2JiwiwRf0EAAhCAAAQgkJMAYj4nzZ20tADqh6mdNeRfO6KFm2uZhnsaeYfYxYcfLOYXkhn9ER0TF7uU7CAAAQhAAAJvIYCYL+xpQ/z0Y1OC3ih716kQPS6v7bqKl9s8XcwrpXL5Q6YTEhOFqxrJQwACEIAABF5JADFf0u2uGdFWHgp1CMAw4TarUayh72tdPP8CMa9UHn8g5ks2GKQNAQhAAAIQCCeAmA9nFnaFS9DXPEu9sS5VuMnru1rvTLxCzDtm5yP8IX0aNsDbBBdfIQABCEAAAhDIQgAxnwXjSSLzpAYxS61fvKX3Yq/5X7JwM0Sy3umm0gdhjXLWuxyoBn8kl6HmgKdsEIAABCAAgQYJIOYvc5q9zEELev1gbK3/0oXbpAbjBUaVCuW3iHmV7o/0mKg12ikXBCAAAQhAoE0CiPmL/SbFkBb0tS4/kWUNH3dI8Rj2EO1lrnmtmA/3R3pMXOZVMoIABCAAAQi8ggBi/gY3O/f+rvDB2HThZt+NqPIh2NeI+XR/pMfEDRWOLCEAAQhAAAIPJoCYv8u5DTwYmy7c0sXjJe5BzHtjTo8J76w4EQIQgAAEIAABDwKIeQ9IxU5xPhjbV/NgbLpwQ8znjJ0a/JFehpxESAsCEIAABCAAAcT87TFgC97lwdgK9mRPF262bSyziQ+4GvyRXoZ4+7kSAhCAAAQgAAGbwLvFvHOpi95C8eh/me0VpUiq4cFYWabwB2BtMR+ehh202Y+8eJlNqD/SYyK790gQAhCAAAQg8GoCiPlD4e4S9WXEvI5CKZQWQT9M6q7d6GV5QoWfsrZCDN895ZLa+Roxn767UHpMXOJRMoEABCAAAQi8hgBivhIxL0XSI2bmrTsf7DOf0rLIGAkeXGXwR3IZUgBwLQQgAAEIQAACFoF3i3kLxx0HZjUNvbW0p4a15cnCzZjxrnc/fWWUs9IBh+POTbCYN+yM80dyTNxRxcgTAhCAAAQg8GACiPlbnWuvKe+65+xmMw3mMqUaBihOdxsi97liPoc/EPPOCOIgBCAAAQhA4DYCiPm70FtLHrTwrUtIJgk3y766bDPc/gYxn8kfSTFhQOcPCEAAAhCAAARyEEDM56AYmMbz3wDruOMQvCYkEGrK6Y8X8/n8gZhPCTSuhQAEIAABCOQngJjPz/QwRSmGanjQda/Asqy+etx+BqDiWXlt/MPFfE5/xMbEXoxxHAIQgAAEIACBNAKI+TR+AVfvPOjqq5ADcsp1arBwmyc19uY6eT1YqXat/ArqqWK+gD+CY2JlzCcEIAABCEAAAkUIIOaLYJWJOpY5dHrP9bt2kJflc//tJdzmWc3TqIbe3pGnCSGvTX+SmC/sD6+YcIcTRyEAAQhAAAIQKEAgTMxbD9HZs7DLspHDvdvLvXSpAJ/0JJ3MKl928rVaCrdz327joZ5deU6d2KiYL+YPZ8xufevz/WX1/DTIOAECEIAABCBQhgBivgzXT6ouUdQPqvIJ+T8icWK+V8N431tr/wof8uXRYj7CH664PRygu8Q9Yj4kBDkXAhCAAAQgEEsAMR9LzvM6QxD3o6p7YY1plFH2PTHX96rvh0XAtzJIMa1sd5mNc2Y+hz8Q81aIcAACEIAABCBQK4EwMV+rFZWXS4vifmhstrpyplmL18jMfFabSQwCEIAABCAAgUcQQMw/wo0YkUQAMZ+Ej4shAAEIQAACELiPAGL+PvbkXAsBxHwtnqAcEIAABCAAAQgEEkDMBwLj9AcSQMw/0KmYBAEIQAACEHgHAcT8O/yMlUcEEPNHdPgNAhCAAAQgAIGKCSDmK3YORbuIAGL+ItBkAwEIQAACEIBAbgKI+dxESa89Aoj59nxGiSEAAQhAAAIQWAgg5gkECCDmiQEIQAACEIAABBolgJhv1HEUOyMBxHxGmCQFAQhAAAIQgMCVBBDzV9ImLwhAAAIQgAAEIAABCGQkgJjPCJOkIAABCEAAAhCAAAQgcCUBxPyVtMkLAhCAAAQgAAEIQAACGQkg5jPCJCkIQAACEIAABCAAAQhcSQAxfyVt8oIABCAAAQhAAAIQgEBGAoj5jDBJCgIQgAAEIAABCEAAAlcSQMxfSZu8IAABCEAAAhCAAAQgkJEAYj4jTJIqQOApe8BjR4HgSEgSfyTAK3Ap/igANSFJ/JEAj0shcD0BxPz1zMkxhACdSgit8ufij/KMQ3LAHyG0yp+LP8ozDsnhKf4IsZlzX0kAMf9Ktzdk9FMaY+yoK+jwB/4oQYC4KkE1Ps2n+COeAFe+hABi/iWObtbMpzTG2FFXCOIP/FGCAHFVgmp8mk/xRzwBrnwJAcT8SxzdrJnytQu1AAAWm0lEQVRPaYyxo64QxB/4owQB4qoE1fg0n+KPeAJc+RICiPmXOLpZM5/SGGNHXSGIP/BHCQLEVQmq8Wk+xR/xBLjyJQQQ8y9xdFYz51lN46D6vldd1/3+973qh1FN85wvu6c0xqXs2PNF16m+H9Q4zSqjN5TKbMc8T2ocBzXo2Ok3sbTG1RJTHzvyBZXKbkfWsoUkltkfIVlnPRc7suJMTqygP5Y6P7jquz7Wq2GcVLYupKQd06gGbcfaVn0/s9uQ7EwSeAMBbzE/j0K4iQD+E3VLpzyoYdSi7g0I32TjrKbBNw6GPP4v2Bj/POewa5h+P+f4ltsOLYJ9fdH1ashVGTPaMQ0O8b7XrizHdUefqVHJaMdpeMyj1eHr9rLPYUtGO7zbeKePepVkTkY7jv0xq3kVYXIy4mtXkl8y2JHmB1mnBhXVkmWwQ/ph4e4asDvjqVsmhpJr+8129MOUdzJFQuVvCHwJ5BfzVsX8CInkSonLbiYwqzGgIf4M7hI7eG1xgcb4B/J7h8GK2U51FYv5eRqc4vBvQO2yp0LxGC7mv0Ilh2+KxtUvwj4hLAXW5+8k0bhmkdGONBGZWNcz2rGiMT7nabn7c1ZHkgdZGexI84OMtTrEfLxNkeVfnZ/BH2tS+jPKjn5E0G8h8r0IgQvE/Ldx6TPN1BbBQKLHBFxCXg7S9IyXS2TW1RivdrrLuukIcwjGNTP9malT0eWWgkQvp5FLm9yzYImCK6Mdn6S+S4HGaSm/fWv9O4vqGEQmC2GDYwYuW19vvxv5bOKrwsFVlFD5GzgmMjQ4Jaa15a8cd93+ymz6Y61XSbGVwY40P0ibItvfDHb8ucFIS5dPL8fUS2nEFN+6ZFD6J0UMG3mnxZXtl9WOP0u13P8sQZU25O5PtlnyHQJKqWgx747Neamgn/XUslH5VOKkW7G47BYCViN21LjqGbCcDVnGxljDc4lc3bGMcsmHO8Dj+WezYzuw6pc18fuF2p77rY9HvttP6PdLNjt+Sfp8s2fxI0XKmtkldjjqwqZuJInGAnaY9TyR71o+388i/nDEv+avnyVZ1mULMelb1qPzithxlKH4TS7piq3v2eyQdcBDUDv6kOjmOJcdkmt3Yodlw8n5wo38CYFQApnFvJm9e/bz4k7CLBJ/BROQjbGH/0IbvqMyZWuM9W12OcD8rSW3xGJ077FjTC47luRnNQ6ed7py+kLnndWOHVbOwzIOO5XkogvsMMVxp4bBvKuCmN84Ors/HEL+irvD2e3YMPL4Ktux6DqSyw4jnYDnRMR10csejXRiBbUdS15cjbwLLN30iAdOeQ+BomJ+wWiJifcFte7UW30QRgoSXwEiO5V7G2OtQYWQ780HtK3fvVrrgIbCaNhjO5WA/P5OtTsiXx/+JbH9cpsdtg+TXFTaDtnu6cIaeQYImy1/+d1IMy2uzLruMWiXZUn5O6MduhimLZlY+9iX2Q6fLP/OkTEXOyuvE8xkh9muBsRnLlty2BFdFtn2Btj/51S+QMCPQHkx72hY9Zq5tyy3MTqVlMbVz5+Zz5KNUUAHLxvALuDarRU5GmOd3iYdl5g1O50CA85N/lfHf1bbKrLD5cdt6Bx+L2qHrDff9s7IM5PANNJMa1eNtiq2vh5CP/gxox1Ktj1Jo76DMrt+ymmHK/2DY7KeJ5mdyQ6zTCHxKe7ExfadGeww60VYvU259sDV/AQBi8AlYl4/FCJ3QknqiC0zKj0gO5Xves1cuwQWt1qWP6h3kD4Pacg3lmVojD+p6aUp+2UwO51niXnZoUTfJdEgs/lj42PPr9JHQeEo8yhph5H2pvPfOy7LFvK3keZ+fPskacZJ5ODbJyPXORntMOOkXTtcmHaPybY6VvyuGWTyh+mLkPisR8ybNgQu75N+SWq0VufwCQGbwEVi3r7t2aU2NrYtdR6RlXl5AC6kUbvRLKNBD2vEXM9LRA3gjDKU4yYb7CTB63LZRXa4sjZFWuJA5TY7Mg0OV0DF7DgQIUaeG5G/linm00gzrX6YcdKqCDb5R7U5MX5Yr8nojzVJn0/TdxliK5Md0eUy8k+wx0gnpn7IdiesH1TKjMfX6B6foOWcrAQuE/PmjJ5ev3xxZ5EVW2Biyx7HYs12pxuFArspBBbt6HRT4Po3hLsvloqZlUhujI8s/P1m2pooeH/J/r5dZMcvw9+3rLbdZYeRbwb/GOn5x/aPqvubyVqka+SZIFC2WRtpivy253l8N4XXxe1zLjtypePBy3nKLfkLwZijb81lh5GO7gN9YjRVQG88Y+Tvk/fm2uVralnk9RfXK2kOfz+WwHViXo5QvSr1k7jLSv0R9/rB2Dr/yfL6NELyGjGAibkbk9wY+9E1RVgGsSizvcgOma1riVtSyN1hh3V3K6ZTFmRK2GGk6Ygh8XuWWWMjzTQuTxDzRj2OaW9EmAT/mdEfvnmbfqttkOjqE4534jJ8uCxNTXjpUgZ/yPKEtZ/Sfp9+1NfznAeBH4EbxXzo7apfoVv+Jhve5UUld3Q6pxADGyHr7oPe9nE095yPsTNDY3xq6rIUXAw8wlrs8ywussMqiJGv78yYlcrvgJFemnj8Jer+pl8qo+/y9MvStNU/mfLMbodHfTHyrE10yaWQF4sOg02sj4UPNnVYv19CPzPTO7an1S9dG6c5z1s6s9jhrg/uowVm5XVGOe2wBuOfdsi+M63r+1rP18/EOMxgh9Vnb+LK7RPzqGlTbGybafIXBCSBC8W8aGhzvQFRWtTA36715PpFJnWtuhGdxIEQt+1ZGyyRRszt3wyNsU9ImA2uY1bVJ5Gjcy6ywyyCXeeSnwUoYoejnIaA/3Ts/WBuJ2raGvhXZjtkh+/s7408axfzq5gyP/teb7Orxe+UR/yubjPYrO3H+qPvp2hvdLyMrrdSmzatb37VS0Bsgemb9/e8LHb45ynjLrl+r1nntsMp6D8v8NL9nh5smYN27aMMfWIOO6yyhw0wzL4lNrZXx/AJATcBxLybS/mjVgOhG6+aKrroGHfEvNWZGOdJkRbWCC5OyNEYe3jTbHCfIeYt3yzPaXjAODqliD9knLjFlp5BneQr4I/KevRbTjtkXTbqwKYQRp5tivmf8P346OOTjY2xXw02ke2g9INjQCjL7/o7aflTDju8GYo2Omf/UcIO6+6tu55rn+iBe5YnyrLY4WifBp/B7OwYTEbGtndMcOJbCSDm7/S8s3HLMDuUxSbRUVgCxW7g7BdjyXMQ8x/xcEGDbnRi307TOV0cGCxGurnskHGy38kv/KxYDLRBn57RDnMgeMDEyPMZYn6N5ypmtA/E/HJXx1pKM6vlrqJj6U30e1AMHx/EQkTIykuswXqO+r1mUsyOz9K5T9zs1PMc9Tu3HQaPb7mdy7N0TH2WdLltjOgDV1v4hMABAcT8AZxrfnILmaTZoSwFPxDzjkGIu7zStoiGzGhEy3WOpiBrfGbeKWoi2Lvi6CJ/LFnPumOclrXOdseYaE8uO4x0TgR6yLku9q5jRprl6ofOWj/DoIXK0PfK9kfiM1A57LDivlfD6DeDKt+DEr2FYA47XH62jon2OeesvM6riB2fd324Ysc+lmlSK6Md1uAp6s5PYrtlxQEHIPAhcKuYzzmREOVQq/HfmSkwKm2ZyuhsKHLOUAQDEp3FWhaL2ZGAQMz/Yc/Yqfyl6fwi/LbE7pGPnInsH7zMDlGEebJePBctuHTSWeyQrE/aBiPPE+EvzN/900gzo593M/z+YLUDuu08sf8ozRx2GGkE8rXsiWRplCEyjSNO629GPg1MPlh8dbx8Bfv3QXdb0OvlNj6DsRWK49PglO4P+/mwI83wGUwaA8W1H3UUlUMQSCFwoZiXHV/iTE6K1eu1zgbmqHImdlhrvjufTkGf2pjt5HV+WAjxXj9MJmbkTh/aFT6PacgyN8Z7dj9jZl747DsIzTpovsgfbj/Z9kXblsEOWV9Py2LkGSg23UAyDUr2Ej857mg/TxnsJWmwiRRdRhrhAle2Ae67jXsGfI8bZYi04ySL7NvNuvLLacdkP4TsXBPvuOO7CPzooMo1aJeAfneo5EO7+gHxYXlQf13xL9qsFFtkMfgbAhsC14l5q+Ev1dBtrDv7apXpTMiXE/NSGCyNWIz4PbPZ+3fRCBl3J3xnTISYj2nIcnYqB7bLjjzbrhBrnsXtcPsrSpCsZXZ9FrfDlenmmJF/uGD7S8lIJ6Itkm2HT2wbeT5AzC9aSbSZPhz+nLD5YrCJ8IdOKsYnmyJYbXCMLTns2JTJ+dXIQ+8Ik+lh0W1mRh6R/ljSE33A6S52ru0pE+pKNju2cEK+m/Znb49DisK5jyZwnZg3KlWhBqhJV7kfCKqh0lsC9yvovcuW2Lku7jTiJqVTOQ4Oy9aYjvwoi8J2WOU/7TSPCnvwW2E7DnL+/CRjKlbIJNkhB06ey0uMPBMEyhaSkWa5+rHNcvvdEsC3+ONbIhkboXXYYBk5UDTSKOEPGXuF7nBnssNql7x8YtsYvYQrkx3bmA/6fnf+QYXl5JYJXCbmZaX2FoQt0z0tu6vRyvTgz2ne5ydYHXXoQ1ZGQxbZ6RhplOgcPxxkfLY0M2/76XPn5NzDEWdc5I/dkknBdot4NGfbXGt9Y48Ft4s3+8OKvVv8sUaL8EtoWQyWlYp5WcZQG1dUZ59GPrHtrvBHSP8h63nstrpZ7DiDtf+70a+U8tV+9vzyIgLXiHmrYsY2Dg/yjMVE366ujIvREIbfTTEasljbjDKU42OWNbIjPwrPQnZYYkrfPfGa/Toq7MFvhew4yNH8ycg/wVYjndC4kiJFLDURS9JChH3zYj429pL8sYaInBzxvGOyXm6UITK2jDRC42otyN6ntC/T3R1XdjnssPq4EH/YtkaFVg47XHy8jpntRHDd9sqDkyDwIXCBmLcrZVGx0YBnnU/Enz5MeodhZmMUNtgQ18bOSlzUGDcp5g02X0EZ1eMFxJaRZ26xcl4OOXiJ7iCT7BCxnSDepdAPtifJjnPeZ2fIehNc/jWDTHbI8oRUhyyxlcmOFYvxaaSt63uIODZSOv/DyCuynhtphE4G2bohKraMMkTacU7LeYYZiwV95cydg28jUFzMT4PYASV2hvYhnpEdxtKZxwrdC5iYDZL/TJC0M6oh1vZd1BhLO7MPOHPb4dghQpd53UOhWGjktiOooLKDT+ic77DDyNO/Lh0iMtJM4HGYyc6P1sxrQv657DDSCZldzxRbRv4JPCzksnyZ4sfK53sghx1GGqGDD9vekIHZn1lGGXL64y8Hxxf7Id6osjtS5hAE9giUE/OufaFLPZS3Z11Vx3cedK29llsdts8Mg5y59Llmx1kXNcZNiXnLJx/RUlzIaxdd5A9XNMgBYtIuHnfYYeSZSYwZaV4lVrR3bLGVNADOZodsezyZGPmHziJvotVIxzPvzeW7X410Q4Xxbqr7Pxj5RdrhaKe8uzvr2sgy5LBjn5L1y+elat+7pOsdO2+jreQ4AAFvAnnF/MkbAqNnZ73NqfVER8e3PNBzifxKhmIJ3cM7CbatSX6/qDG2bMzdAGezQ4qVBOERExnZ7AjJfLbfcZB6h+8OO4w8GxbzzomahAG7DgWDTaRw+4ZU8KAvl3DMbMe2hsj2KalN3Sa89z2LP+y+wG+ppqONi22Ps9ixB2l9K/KkxtHeS1/fdU9+6dV+1vwCAYNAtJiXaz2P/65nhxbD+iv+sDoKPWpP66yuKLaZh6Nx7Qc1TtvBiH6RhqNBi22E1wJka4wdNqwzJ0GfkaIlkx2yUz+ud2KGSNgZ5ZpMdmjx1usYGic16UmA1d9/n7Oa50lNO51kVNn/0s4rHrfJHn432NUm5ic19IMaVn9YDvn4Y7SWTWZqzww2qe2jo65/2yvDrJ03jyYJ5ax2fKPJ6kNS+RxG6efHXHZYZf+0SfqlUbreG/+0P5z1PcHeXHYoR0yJ9tRsi1+seQyn8sdVBAqL+c/rjEWVvcq2+/NxNWRVPujqgcply2FjlmnG+LbGeE8II+Z/nVauTnaPtet4Qp7bMM8WV9tET74beVYo5s/qs+v3XO2ZwSaDj2PaqxzLQHPbsYw7RT1IHsmexKn+OaMdepLn12YIW1wxZRxLjAUj75S0fMV8z2y8R3hxSn4CecV83y+zbZ/ZnfyFbTFF45bv4fKUBqzbe9220fh+Gutstxcvb4zPOhvE/K9jTugcDb+eMde/Z+4kjfwT7AiptkaerYv5zDOPBptM/ghorzrrTmOIYzfn5rbDGpRkYrMpsvNrdjv0nR+fev475zN77yyd/8FsdrjFfK81z7De0fIvFmdCIDcBbzGfO+M3pacFfTZxWwE4vfxB327vReOsGzY9kJN3T5OKnK0xTipF+sXYYTFc4kjfVu/ljldf8a7jyXU73kop4gD+sKEtyxxGNTjq9jKYWuq3Xh5hX5p8pKA/9tqrbhFijuUeKcYUtCOlWMHXlrJD9x3fOt/LSaDvZKBeepctxErZEQyUCyBQlgBivixfUk8l8JTGGDtSIyHv9fgjL8/U1PBHKsG81+OPvDxJDQKFCSDmCwMm+UQCdCqJADNfjj8yA01MDn8kAsx8Of7IDDQxuaf4IxEDlz+fAGL++T5u28KnNMbYUVcc4g/8UYIAcVWCanyaT/FHPAGufAkBxPxLHN2smU9pjLGjrhDEH/ijBAHiqgTV+DSf4o94Alz5EgKI+Zc4ulkzn9IYY0ddIYg/8EcJAsRVCarxaT7FH/EEuPIlBBDzL3F0s2Y+pTHGjrpCEH/gjxIEiKsSVOPTfIo/4glw5UsIIOZf4uhmzXxKY4wddYUg/sAfJQgQVyWoxqf5FH/EE+DKlxBAzL/E0c2a+ZTGGDvqCkH8gT9KECCuSlCNT/Mp/ognwJUvIYCYf4mjMRMCEIAABCAAAQhA4HkEEPPP8ykWQQACEIAABCAAAQi8hABi/iWOxkwIQAACEIAABCAAgecRQMw/z6dYBAEIQAACEIAABCDwEgKI+Zc4GjMhAAEIQAACEIAABJ5HADH/PJ9iEQQgAAEIQAACEIDASwgg5l/iaMyEAAQgAAEIQAACEHgeAcT883yKRRCAAAQgAAEIQAACLyGAmH+JozETAhCAAAQgAAEIQOB5BBDzz/MpFkEAAhCAAAQgAAEIvIQAYv4ljsZMCEAAAhCAAAQgAIHnEUDMP8+nWAQBCEAAAhCAAAQg8BICiPmXOBozIQABCEAAAhCAAASeRwAx/zyfYhEEIAABCEAAAhCAwEsIIOZf4mjMhAAEIAABCEAAAhB4HgHE/PN8ikUQgAAEIAABCEAAAi8hgJh/iaMxEwIQgAAEIAABCEDgeQQQ88/zKRZBAAIQgAAEIAABCLyEAGL+JY7GTAhAAAIQgAAEIACB5xFAzD/Pp1gEAQhAAAIQgAAEIPASAoj5lzgaMyEAAQhAAAIQgAAEnkcAMf88n2IRBCAAAQhAAAIQgMBLCCDmX+JozIQABCAAAQhAAAIQeB4BxPzzfIpFEIAABCAAAQhAAAIvIYCYf4mjMRMCEIAABCAAAQhA4HkEEPPP8ykWQQACEIAABCAAAQi8hABi/iWOxkwIQAACEIAABCAAgecRQMw/z6dYBAEIQAACEIAABCDwEgKI+Zc4GjMhAAEIQAACEIAABJ5HADH/PJ9iEQQgAAEIQAACEIDASwgg5l/iaMyEAAQgAAEIQAACEHgeAcT883yKRRCAAAQgAAEIQAACLyHwf9drEbFyl8HZAAAAAElFTkSuQmCC;" vertex="1" parent="1">
          <mxGeometry x="-49" y="-121" width="684" height="502.81" as="geometry" />
        </mxCell>
      </root>
    </mxGraphModel>
  </diagram>
  <diagram id="o-PxdrCJOVcrmBWonjP2" name="EJEMPLO 3">
    <mxGraphModel dx="2150" dy="1302" grid="0" gridSize="10" guides="1" tooltips="1" connect="1" arrows="1" fold="1" page="0" pageScale="1" pageWidth="827" pageHeight="1169" math="0" shadow="0">
      <root>
        <mxCell id="0" />
        <mxCell id="1" parent="0" />
        <mxCell id="pWCDDrrkoVqPYf1NJs71-1" value="Num1" style="text;html=1;strokeColor=none;fillColor=none;align=center;verticalAlign=middle;whiteSpace=wrap;rounded=0;fontSize=30;" vertex="1" parent="1">
          <mxGeometry x="99" y="437" width="60" height="30" as="geometry" />
        </mxCell>
        <mxCell id="pWCDDrrkoVqPYf1NJs71-2" value="" style="edgeStyle=orthogonalEdgeStyle;rounded=0;orthogonalLoop=1;jettySize=auto;html=1;" edge="1" parent="1" source="pWCDDrrkoVqPYf1NJs71-3" target="pWCDDrrkoVqPYf1NJs71-6">
          <mxGeometry relative="1" as="geometry" />
        </mxCell>
        <mxCell id="pWCDDrrkoVqPYf1NJs71-3" value="$" style="ellipse;whiteSpace=wrap;html=1;aspect=fixed;fontSize=30;" vertex="1" parent="1">
          <mxGeometry x="271" y="446" width="80" height="80" as="geometry" />
        </mxCell>
        <mxCell id="pWCDDrrkoVqPYf1NJs71-5" value="" style="edgeStyle=none;shape=connector;rounded=0;orthogonalLoop=1;jettySize=auto;html=1;labelBackgroundColor=default;strokeColor=default;align=center;verticalAlign=middle;fontFamily=Helvetica;fontSize=11;fontColor=default;endArrow=classic;" edge="1" parent="1" source="pWCDDrrkoVqPYf1NJs71-6" target="pWCDDrrkoVqPYf1NJs71-10">
          <mxGeometry relative="1" as="geometry" />
        </mxCell>
        <mxCell id="pWCDDrrkoVqPYf1NJs71-6" value="&lt;font&gt;K&lt;/font&gt;" style="ellipse;whiteSpace=wrap;html=1;aspect=fixed;fontSize=30;fontColor=#000000;" vertex="1" parent="1">
          <mxGeometry x="271" y="606" width="80" height="80" as="geometry" />
        </mxCell>
        <mxCell id="pWCDDrrkoVqPYf1NJs71-8" value="" style="edgeStyle=none;shape=connector;rounded=0;orthogonalLoop=1;jettySize=auto;html=1;labelBackgroundColor=default;strokeColor=default;align=center;verticalAlign=middle;fontFamily=Helvetica;fontSize=11;fontColor=default;endArrow=classic;" edge="1" parent="1" source="pWCDDrrkoVqPYf1NJs71-10" target="pWCDDrrkoVqPYf1NJs71-11">
          <mxGeometry relative="1" as="geometry" />
        </mxCell>
        <mxCell id="pWCDDrrkoVqPYf1NJs71-10" value="A" style="ellipse;whiteSpace=wrap;html=1;aspect=fixed;fontSize=30;" vertex="1" parent="1">
          <mxGeometry x="273" y="790" width="80" height="80" as="geometry" />
        </mxCell>
        <mxCell id="pWCDDrrkoVqPYf1NJs71-16" value="" style="edgeStyle=none;shape=connector;rounded=0;orthogonalLoop=1;jettySize=auto;html=1;labelBackgroundColor=default;strokeColor=default;align=center;verticalAlign=middle;fontFamily=Helvetica;fontSize=11;fontColor=default;endArrow=classic;" edge="1" parent="1" source="pWCDDrrkoVqPYf1NJs71-11" target="pWCDDrrkoVqPYf1NJs71-15">
          <mxGeometry relative="1" as="geometry" />
        </mxCell>
        <mxCell id="pWCDDrrkoVqPYf1NJs71-18" value="" style="edgeStyle=none;shape=connector;rounded=0;orthogonalLoop=1;jettySize=auto;html=1;labelBackgroundColor=default;strokeColor=default;align=center;verticalAlign=middle;fontFamily=Helvetica;fontSize=11;fontColor=default;endArrow=classic;" edge="1" parent="1" source="pWCDDrrkoVqPYf1NJs71-11" target="pWCDDrrkoVqPYf1NJs71-17">
          <mxGeometry relative="1" as="geometry" />
        </mxCell>
        <mxCell id="pWCDDrrkoVqPYf1NJs71-11" value="L&lt;font color=&quot;#ff0000&quot;&gt;B&lt;/font&gt;" style="ellipse;whiteSpace=wrap;html=1;aspect=fixed;fontSize=30;" vertex="1" parent="1">
          <mxGeometry x="273" y="950" width="80" height="80" as="geometry" />
        </mxCell>
        <mxCell id="pWCDDrrkoVqPYf1NJs71-14" value="" style="shape=image;verticalLabelPosition=bottom;labelBackgroundColor=default;verticalAlign=top;aspect=fixed;imageAspect=0;image=data:image/png,iVBORw0KGgoAAAANSUhEUgAABLMAAALYCAYAAACHYbDBAAAgAElEQVR4AezdCZKiShQFUNfFglgPq2EzLCY7sNoq84EyyOz5ET+qShkyz0tUbid4S/4jQIAAAQIECBAgQIAAAQIECBAgcBKB20naqZkECBAgQIAAAQIECBAgQIAAAQIEkjDLICBAgAABAgQIECBAgAABAgQIEDiNgDDrNKXSUAIECBAgQIAAAQIECBAgQIAAAWGWMUCAAAECBAgQIECAAAECBAgQIHAaAWHWaUqloQQIECBAgAABAgQIECBAgAABAsIsY4AAAQIECBAgQIAAAQIECBAgQOA0AsKs05RKQwkQIECAAAECBAgQIECAAAECBIRZxgABAgQIECBAgAABAgQIECBAgMBpBIRZpymVhhIgQIAAAQIECBAgQIAAAQIECAizjAECBAgQIECAAAECBAgQIECAAIHTCAizTlMqDSVAgAABAgQIECBAgAABAgQIEBBmGQMECBAgQIAAAQIECBAgQIAAAQKnERBmnaZUGkqAAAECBAgQIECAAAECBAgQICDMMgYIECBAgAABAgQIECBAgAABAgROIyDMOk2pNJQAAQIECBAgQIAAAQIECBAgQECYZQwQIECAAAECBAgQIECAAAECBAicRkCYdZpSaSgBAgQIECBAgAABAgQIECBAgIAwyxggQIAAAQIECBAgQIAAAQIECBA4jYAw6zSl0lACBAgQIECAAAECBAgQIECAAAFhljFAgAABAgQIECBAgAABAgQIECBwGgFh1mlKpaEECBAgQIAAAQIECBAgQIAAAQLCLGOAAAECBAgQIECAAAECBAgQIEDgNALCrNOUSkMJECBAgAABAgQIECBAgAABAgSEWcYAAQIECBAgQIAAAQIECBAgQIDAaQSEWacplYYSIECAAAECBAgQIECAAAECBAgIs4wBAgQIECBAgAABAgQIECBAgACB0wgIs05TKg0lQIAAAQIECBAgQIAAAQIECBAQZhkDBAgQIECAAAECBAgQIECAAAECpxEQZp2mVBpKgAABAgQIECBAgAABAgQIECAgzDIGCBAgQIAAAQIECBAgQIAAAQIETiMgzDpNqTSUAAECBAgQIECAAAECBAgQIEBAmGUMHE+gaVJdlakoinS73Z7+L1JRlKmqm9Qcr9X3FjVNnaqqTGXRtvW57f9/bx8vf/pw0C5oFgECBAgQIECAAAECBAgQOLTApDCrqWK40HOynoUP4fmiGgwh6jKs82574bmyHme9Zj/6tv1Ju4qqP7bp208e/Pw5tqFQWVb3EGic0PNSTaqyUKZMI5mfNzLy9ybV5dgxVqSy7rcZubPFF5s+dotUvqjv4o2zQQIECBAgQIAAAQIECBAgcBEBYVYIxF4FQtnjb0K53pBpVJoVQ6OfMGqJMCtr+60NUOrBUPFvfMd2rRRmNVUqZtSiGGX715s1f5seZv0PHA/UhzV9bJsAAQIECBAgQIAAAQIECCwhIMyaEaDcpoZZtxEB0Ksw50XQ0RuaTenLmz7kA2uLMKtOZWz7/8sJn9vSXsLXXr6Xh3O3dHth9LzuFr+3Ydb9MsiqTnXTpKYzcaxJTV2lMpvp9j603KLd9kGAAAECBAgQIECAAAECBM4k8FGYtXeGEAOdse2Zu96YwsZtP4KXoba9Wu9VUBOXf7n93/tP/V12+GjTu1Dur69rh1lx+z/hVCcH+mtQin1v+/Oy/0/rHenX7iyuEYHnkTqgLQQIECBAgAABAgQIECBAYCcBYdbCQchzSJHdwPxt2vIc6IQbh79YLwY6LxbLhlVcpw2BXl3G+Lfic9vaQGzZ0KXTppEzxuau99evvX/rzkYbU8O9W23/BAgQIECAAAECBAgQIEBgbwFh1pphVlU9XT73JgR6vsSwrNNzIPbxzKwwwjoh0GA4tWaYFQOdIo2/H3pc9/yzs4RZYbD6kwABAgQIECBAgAABAgQI9AgIs1YNs+rsmwBfhRXP4VW7zPPfry4FjKHUq213az41BFoxzKrL/P5X4ztx71Y0eBX8dQ2O8UhW51Gz5N60u3m6F1d7v7F312m+2YynCBAgQIAAAQIECBAgQIDA0QWEWYuGWXnw017ClwUuvWHNc7j0M3srCzleXHaXbXdiH7LtD4YoeZ+Wu8wwbnfGzKrnGW33G8i/mf12wCMx1qF3eIxpd8fh5/5os7c3Zp+WIUCAAAECBAgQIECAAAECOwkIsyYGQe/rlAc09zAhCxp6wpbn2Un/04cs5FghzIpB2Pv7ZuV9Wi7Meg7x5t6LK7ZtymWK7yu5/rPLtT0bL8/fCinNWr+M9kCAAAECBAgQIECAAAECmwsIs9YOs1IeWsR84TmIeDyXhU0bhFnvL8/L279YmPUc4rUBzIt+Dh0Rz37jbmg/tMWNno/9fxR/8u5jfZ6+tXKm6eQmWIEAAQIECBAgQIAAAQIECGwoIMxaPcxK7U2w/u4NlYUWz7OT/mZtZWHWixu058tMu0QvrrvHzKzYhveB2usjIm7nfV9eb2fTZ7LZem349NmMshjotaHe/X9h1qZltTMCBAgQIECAAAECBAgQ2EZAmLVomPUcTj0HTM+P/4VWzyHXcwiTBzRPyz+NiXyZ5309LfTi1xh+ZPlaZ50486e/PZ3VBh6I7X/u/8Cq+dPPQWEb4rzvTL7uxn81TZPqskjFI2y6//wsyLp3IRr83/6BKTaWtzsCBAgQIECAAAECBAgQuJKAMGuTMCv/hsJHyPAXKuWBRh709IdH+TJTwqznYG3MvarWCbP++v4zi+hhMvngikHOIWYjRbP/M6WyEOuWirJK9VLfOhi/zXCxDU+uiBUIECBAgAABAgQIECBAgMCqAh+FWb+XM4WT9FePzw4sXhDMDXTieq/a++rx1/3Ig6JsuefQ5f7E07IhgMnblwddD4p8mfFhVgyRhmdExWCmP1x7tGvsz9iOzGrsRtrlnl3bcRgsp2xquWWj2YswqyhT3SyVZi3XelsiQIAAAQIECBAgQIAAAQJHFhBmjQzinoOtl8FLuBdSvtxTeNXeB+sphImBUh5ULRVmNamuir97d937PSaYisHMmHWGh7ww6yngOkQAN1wzSxAgQIAAAQIECBAgQIAAgSMICLNWC7O6IVQMcH4Csu5y+WyjnudTSnng9Xpm1v0+TVUZ7tPUBin92+0OSmFW12TmI02TmrpOVRlDxbYey4SEM1tmNQIECBAgQIAAAQIECBAgcBqBj8KsfObR9n0eG+jEls1dL26n83c2M6snLHqajfU706tvVk62XM92esKs3+2NCeeKMlWjr247WZi196DsDIoXDzR1qoqn2Vlt3frGwovVPUyAAAECBAgQIECAAAECBL5VQJi15A3gB0Oo50sNf4KMeInhfSBm2+mfdRUDuXFhVpGKsk6jc6x7Y7YJs3odxhyVwerI32bY7U607a91dz2PECBAgAABAgQIECBAgACB7xUQZm0aZuXfavjyUr8Q0PRNNhodZhVtgFWmqm4mhliPgyIGLstcDtdpf18nH0148zNuZ3Yo9mYfqz4Van2uMG5VGRsnQIAAAQIECBAgQIAAAQK9AsKsjcOs7H5Yry4rCwFHX84TQ5y+ZXorPvnBdcKszKG9xG5mB+J9yGZuZrLKYitkl6a61HAxVxsiQIAAAQIECBAgQIAAgcsKCLO2DrPGDKUQcPTNNjp9mBX6OO8G6PGyzf77i40h322Z6PAq4NytgXZMgAABAgQIECBAgAABAgSOJSDMWjDMygOmDy7HCwHHJcOstEAQFZxOeQP1MAtv7gy1Y72saA0BAgQIECBAgAABAgQIEFhP4NRhVn6J2fhZOXnotNxNt/PtCrOGhm1ev1vqC+3ebePT9d9te6vn8jEz3WCrdtoPAQIECBAgQIAAAQIECBA4isCJw6z593KKAcJS91nKtyvMGhzkcVbSbYpZnNk1Zd3Blm20QBzD4wPZTgObKpXFzzdk3ooyVdO+srKzOQ8QIECAAAECBAgQIECAAIGjCpw3zIqXmE1IpPLQabmZWflMoQ/ClRF9W6sP3YEaA5cP+tXZeNz2+BvB59bnnNEUazj7Msk4Xtob6i94+WynbB4gQIAAAQIECBAgQIAAAQI7ChwszKpTVVapHpxV0g1BJmRZKYYIU9Z9V6s8YPkg9InhRE8D1+pDt3/R+oN+dTeeOt9qeBsKpppUl8U9rGkDm5//F25TXzsXfaxJdRX7MH9WVj7uHibjg8FFu2ZjBAgQIECAAAECBAgQIEBgZYGPwqy/MOHpBPo3YOh5bPCb2p4uHWsvlarr1GTBVpOa+ulyqse+esKed24xCFqqH3mo8EnA8uTQ9rGnf7EPPYu8I5jwXAyzeur6qMOrnwN1z93+b78oU50XPzVN/Xcp3e++5odAExCGF63LVLRjtqrv7c6G7X3t5t7+uipT8dv2P8v59XtTnwH34U5ZggABAgQIECBAgAABAgQIHE/guGFWzwl/b+g044Q9BkG92323/xf7zEKZF8uMGwIhzOrZVuzD/DBkqEVvwpJ3Rs/P9bQ/7rU72+ov6Hldn4MEWW1nOvf/GtP+dpnP+5CNu4nusQ7+JkCAAAECBAgQIECAAAECRxc4WJiVUtPOcHk+IX/ze1HWqTsDZpg8BkGvw5IXgURvOBNCn95lhtv2s8T3hVltv6fVvppV+7EVmLzc5DCrSHPHb6dtL/a9XsDZaYEHCBAgQIAAAQIECBAgQIDAZgKTwqzNWnUPNqpUlUUqHt/Q9j/UKooilVW8/HDLltnXugKPS0mLTqh59Nq3l0FW7WWERbwf1s8MrHv77/eEmxPBDqjHbzMcvvHcwAY9TYAAAQIECBAgQIAAAQIEjilw2DDrmFxaRYAAAQIECBAgQIAAAQIECBAgsKeAMGtPffsmQIAAAQIECBAgQIAAAQIECBCYJCDMmsRlYQIECBAgQIAAAQIECBAgQIAAgT0FhFl76ts3AQIECBAgQIAAAQIECBAgQIDAJAFh1iQuCxMgQIAAAQIECBAgQIAAAQIECOwpIMzaU9++CRAgQIAAAQIECBAgQIAAAQIEJgkIsyZxWZgAAQIECBAgQIAAAQIECBAgQGBPAWHWnvr2TYAAAQIECBAgQIAAAQIECBAgMElAmDWJy8IECBAgQIAAAQIECBAgQIAAAQJ7Cgiz9tS3bwIECBAgQIAAAQIECBAgQIAAgUkCwqxJXBYmQIAAAQIECBAgQIAAAQIECBDYU0CYtae+fRMgQIAAAQIECBAgQIAAAQIECEwSEGZN4rIwAQIECBAgQIAAAQIECBAgQIDAngLCrD317ZsAAQIECBAgQIAAAQIECBAgQGCSgDBrEpeFCRAgQIAAAQIECBAgQIAAAQIE9hQQZu2pb98ECBAgQIAAAQIECBAgQIAAAQKTBIRZk7gsTIAAAQIECBAgQIAAAQIECBAgsKeAMGtPffsmQIAAAQIECBAgQIAAAQIECBCYJCDMmsRlYQIECBAgQIAAAQIECBAgQIAAgT0FhFl76l9m302qqzKVRZGK2y3dHv8XVWou00cdIbCXQJOq4um4ut1SURSprGrH114lsV8CBAgQIECAAAECBHYVEGbtyn/+nTdVmQdYjyCr/SnMOn+B9eAAAt0w6zcwvrWhlsj4AEXSBAIECBAgQIAAAQIENhRYJsxq6lS1oUZR/M3KeYQa7WydskpVPf6Eq/m/vftMnzAj4X4Sd99mOWmbG5p+za6aqqfej7oLs75mHCzS0ebF7L7/46l9bSnKMlXtbKTxLyWLNG3/jbwLs35mbBUCrf3LpAUECBAgQIAAAQIECGwm8FGY1dRtgJVf/vI3Y6Dv8eFLY+qyb713j5mZsNloed5RU3VmZLWhZT0laajLbvh5K1P9vJ93v4f1y86KdSqfw7Ulft9lttlV+tFTzKZO5aTXkJ/XgiOEN4Nh7tN4u18WODHU79G6P3QP+8sYJBdJnvVKzOMECBAgQIAAAQIECFxNYGaYNTxT4F2o1Q0d/linh1n/g653G/3bvN8WEoh1mhUuhDDqMWZGbyus3x0CVwmBrtKPfPBNCYMeY+Pxc/QYyXe56F/z2z8c6o9paPuPCQ+P+8/uATBmM5YhQIAAAQIECBAgQIDA6QSmh1ntTIqnGQe/J1PFz2V/nYk5TZOaurrfHPyx7LtzrjYkKdptVfV9lk9ne+mxve5srSOc4J5uBMxqcAgz585Wiifjj3E1dnth/e64ejFWH/uZ83Ns22a5vlrpKv34619vEPTqNSSl1NxfR34uZ75ffnyAaUi9fZgypj4eS+E4nDKr8a8UfiNAgAABAgQIECBAgMDpBCaGWX0n1cWEe1c1qS7b5ZdxirODbk7mloEd3Eo+DmaHiCGMeoSd7c9uMNXTqLD+qHXCZmIgMWcbYZO7/HmqfvRdonqAcGpq4Uab/78fWO8l2R8GWnkbXGo4tYaWJ0CAAAECBAgQIEDgnAKTwqze8GjXmzHnocroEOSctTpOq0MYMTsACmHUc5g16psQw/pz2pGHASNDtONU4rclZ+pH53VkTuF+e77fL3PM4zrtmJ8dBrddz44BYdZ+o8GeCRAgQIAAAQIECBDYUmB8mJWdNLWX+B3jxCmeGJ/0vHjLmn++r5XCrPhtmIO1DGNycPmensdwYc42eja7+UPn6cd1Aui55nG9j2aUZsfAMV6TNx/8dkiAAAECBAgQIECAwNcJjAyz4r1ZPpxNsCBzDLM+muWwYLsuvamVwqyyDkHH0CVY2Yn8vFlVMVgQZq08csPYOUooPqfX88dOGOdjL6vta2R2DAiz+og8RoAAAQIECBAgQIDA9QTGhVnZCVM7K6tMC9326mPRGGadNYz4GGLLDYRAYrZ5GFftdvJ6Dpyc96w/lWF+IDF1T+suf5p+hLHznWFWHOcf/ONAdgwMHC/rDkFbJ0CAAAECBAgQIECAwGYCo8KsPGC4pdvs9GLpfsUZY07mlhbu3V4IJGYPh+xE/P/MqrDtt2Otb/3eBr9+8DQh0Osu3J85Tz+6s5LOOpvyE/O47myD7Bjw+jdwmHiaAAECBAgQIECAAIGLCIwIs7onn7PDi6XRshO5I4VsS3f0YNsLgdPs8RDq97OdCQFl7/rTrGKoMLsv03a7+NLn6Ues73Huvze1KJ+Yx3XfhrbvGpYdA8Ksd1SeI0CAAAECBAgQIEDgOgLDYVYILg5zWdBR23WdsfG6J8F+dgCUnYg/3fMqPP7yRD8sN6cdMVSYs43XUNs9c6Z+xLb+fItlkcp6169GnVys2I8pYyeua2bWZH4rECBAgAABAgQIECDwxQLDYVYIDG5DN+VeGbNpmlSXRSpu7YyOx/9mJKzMnm9+7TArxdk7L+obxuaUMOHRoRgqzNnGY1t7/jxXP2J9H8fxLd2KMlUnCbU+MY+Xbs8edwscA3uOW/smQIAAAQIECBAgQIDAHIHBMCuesG0XZr054f0NsW6pKKt0rHPf7mWZf6Hb00n7Ux9ePr9zcPhyQGUn0C+CppcrPz2RbedpZlZKqTPu+s7236z/tJe3v8b99O3m7QYO8uT5+jF0fBeprOp05Lla883ja8QHX6gRguXZM7wOMo41gwABAgQIECBAgAABAmMEpodZ7872Q7jwKqQZd8I1dLL7EwwVRZnq5kinvPFEdWKA9RxyHTLMCnX5pI1hvORDKzr2nPC/XX/M8O+GZnkbxm3jCEvND1b2bP3PLMtXrxOPx48XWP+YzTWPs7LGvR6+qlM4Httvmj3Sy+GrZnucAAECBAgQIECAAAECHwicPsx6nPBuN2NsSDuGMFcJs5rU1FUqi7w/H4U/A2FUDAs6J/0D6w9Vqn0+7uOj/ozZ4UrLnLofTZ3Koni6bDgfY49j/Gih1nTzJtVV7GdPSDt1jITjoL2v4X1Wm1BrqqTlCRAgQIAAAQIECBA4icCBw6wXgk0bqtSpKuNJYXsCvMCJ4YvdfuXDnZPk55BhgRt2h+13g6QYDIb6Dq4/XLXpgcTwNvdY4hL9+H8/vEd41f9zgXG3UIHGmt/v81eV4T5/7bH0wSW6oQ9N3bf9v+O1e2yFDfiTAAECBAgQIECAAAECJxKYHmbNuawshA6dGTZzwZo6VWGm0HFmaM3t1IHWC3X7CReK+33KFrmyM2y/74Q7BgbZ2Bmx/pBm3H5fG4a2cYTnr9KPH8s2sC5TEY/tp0tws3GwUwGieX/49hcoZc+3N7pffOZUO/Or3+2s43qn0totAQIECBAgQIAAAQIHFxgMs1IIDGaFRWEby56IxnvG5DcSP7j/sZsX6padjN8vZfrwbDxsv/eEO9zgOpt9N2b9AeEYSPS2YWAbR3j6Kv2Iln2Xtj5C1eXDoLj3939H8/z4eBFi3doweIUb23eOk3z/Zx3X7yvgWQIECBAgQIAAAQIEvlVgepg151K+EDosG2al1AncnLktP57vl3d2Z318VMswLl6VLd4w+3e5keu/w4iBxO+23610wOeu0o9+2hc3ip8zS7R/B7MejeYvw6yiDbDKVNXNOt/OGIOsdtbXWvuaJWUlAgQIECBAgAABAgQILCswHGbFE6U593kJocNHAUhf/2Mbdz3Jjfd5ymdIvDzhfbqE6neZXfvRB90+FvsX7mP1arW+x8O4eBkkvarv2PX79v3/sRhIvGzDm20c4amr9OOdZQw1l7zn1Lv9vnruKOaZyyFfM14JepwAAQIECBAgQIAAAQLzBIbDrNS9jG9yGBVCh8nrD/XtVdgxtN4qz8ew52phVncm3OwAKIyLd9vJTtgfgeqE9V+V+iiBxKv2jX38Kv1439/usfVuzLzf1ufPHsM8N9nT43NRWyBAgAABAgQIECBAgMA4gRFhVnsVXwhkpv7rfwgdFg+zwvZvu57R5SeXv7Os+mZeDT021XlczT9fKoSHs7lD3d5uJ+zzXuMp67/o9TECiReNm/DwVfrxvsvdYP3tmHm/sY+fPYR5dlws9+2IH+PYAAECBAgQIECAAAECBFYUGBVmpeyEqQ22Jp40hdBh6TArnlQuvf0V/c+56TAeZnuHcfE+mIhBRpGqqkzPYeH79fup49iZs43+LT8eze/3VJRVqj+8b/5jy88/r9KP5z51f+8GxdPrtVw91jfvCnQeyY7Fia/LnY15gAABAgQIECBAgAABAucQGBdm9VxqOOlbDUNoMTv86DXtCTlWCAt6d/2tD2Yn0Lc0u55hXAwGE2H5oigOH2bFwOMnfPvgPmMvxlzcz6Dli+28ejhuf61+vNr//fEw7iaH6imlJfsRt7W0+VuLx5PZMSHMerD4SYAAAQIECBAgQIDAtQVGhlnd+yS1J7OjQ4zshGvCeiPs4wnlpJBtxPYt0iMQQoXR4yBuKoyL4TAgBpf55a/D68cGdMONOdvobvXxyOv2zjZ7bDr8jMfBWfsRupX9+fHlzn2h/P9LfefUY13zrOuv/8iOIWHWayjPECBAgAABAgQIECBwJYHxYdY9z8rDg3ugVdbDXzefnXAtFWY1qa7ymTlzZmpcqZib9WW3MKs/VP2ZJXRLcwKcdQOJ12HW0qHrVfrxagzH/rU1n17vZesR2zS9Pa96O+Hx7LVVmDVBzqIECBAgQIAAAQIECJxYYFKYlVJ7v5luoNWGSD/3AorX9zWpaepUlXno9HIWRF2moihTVdWpbpqekOxne3VVpqLn5um7nEyeuPizm75nmPVmds2c+q8dSMTtP4K3223ZSw3jfuZYvBsPcftz+9Fupz3Gy6pKdV2npj3O48vG/4a0z9VVlcqi+5pTzOzgUv1omxi3NbNJ79iHnxNmDRtZggABAgQIECBAgACBywlMDLPa/uc3UP47qe2ecL567l2Y9Wqd94+bkbDpyNw1zOqGCI+xMSdM2CKQ6A+AzxVmteNriX5E70ftpvycG2Q9jpEl+nF/JQwzQ+eMv0ebZv8UZs2msyIBAgQIECBAgAABAucVmBFm/XS2qftnTAydlL79NrfsxGxMONbOCBtxmeN563PMlu8cZqXU/Va7dtzNCRNiuDJnG8NF6mvv+cKsfvdp/YjeQ68X2fNFudA3QS5Tj9iXdcbOwOjKXjOF+gNaniZAgAABAgQIECBA4CICs8Os3/63lxG2l/0VRffSv/axxyVFr64l+t3Qzy/3yxL/by87kb1fVthur0hlWd0vQwyr+nMrgaXCrK3au/t+eu7VVFQ9l9Hu3tCBBizTj/vlg20YXv5/3QjfSvk47u+vKeXPZccvrkQcaO+rp5fpx6utb/q4MGtTbjsjQIAAAQIECBAgQOAYAp+HWcfoh1ZsKSDMmqjdDU9eXmo7ccvbLq4f23qP2JswawSSRQgQIECAAAECBAgQuJqAMOtqFd2kP+EyrV2ur9qko8vsJIR/p/3WTf1YZjwsuRVh1pKatkWAAAECBAgQIECAwEkEhFknKdSxmhlm6JzykrmtRINVe7nsKcM//dhqxEzZT34z+2n3L5uyH8sSIECAAAECBAgQIEDgSALCrCNV40RtyU+ib+mcl82tCN40qW7v/Xa/19vTlxmcLfjTjxUHyYebzmZlnTUk/dDA6gQIECBAgAABAgQIfKWAMOsry75ApzuXnN3SzzdVLnur7gVauukmYsj3uJn5/eeJgiz92HTYTNtZGzCWRcrG1sxv85y2Y0sTIECAAAECBAgQIEDgGALCrGPU4ZStaKruCXV2gn2i8GapAvSHQEUqq/pU316oH0uNiCW203OJZ5zxd8pLV5ewsQ0CBAgQIECAAAECBL5RQJj1jVVfsM9N36V0jxPtbw6ziiIVZZmqujlViPUYGr9hln48SHb8+T7MKgRZO9bGrgkQIECAAAECBAgQ2ENAmLWH+uX2+XN/qLINPh5BVvvzC8Osy5VWhw4g0A2ziuL/bL/vvqr3ALXRBAIECBAgQIAAAQIE9hAQZu2hbp8ECBAgQIAAAQIECBAgQIAAAQKzBIRZs9isRIAAAQIECBAgQIAAAXdtsagAACAASURBVAIECBAgsIeAMGsPdfskQIAAAQIECBAgQIAAAQIECBCYJSDMmsVmJQIECBAgQIAAAQIECBAgQIAAgT0EhFl7qNsnAQIECBAgQIAAAQIECBAgQIDALAFh1iw2KxEgQIAAAQIECBAgQIAAAQIECOwhIMzaQ90+CRAgQIAAAQIECBAgQIAAAQIEZgkIs2axWYkAAQIECBAgQIAAAQIECBAgQGAPAWHWHur2SYAAAQIECBAgQIAAAQIECBAgMEtAmDWLzUoECBAgQIAAAQIECBAgQIAAAQJ7CAiz9lC3TwIECBAgQIAAAQIECBAgQIAAgVkCwqxZbGdaqUl1VaayKFJxu6Xb4/+iSs2ZuqGtBAgQIECAAAECBAi8EWhSVTx93r/dUlEUqaxqn/vfqHmKAIFzCgizzlm3Ua1uqjIPsB5BVvvzozCrTuXztu6/l6ke1aojLXSVfmxhehUr/dhitIzfx1XqMb7H85e8ipV+zB8Da6x5lXqsYRO3eRUr/YiV3ffvpevRDbN+/yH71oZa/il733rbOwECSwoIs5bUPNC2mqr4m4XVCZ5WCLM+Csf2guv5AHHKfmzht7JV8zODsP3Xw78PXe04LVJRVqlulvrwtXI/tijFfR/r9qOpq1SWYTbn87/uLlWOtG4/NivHJju6ipV+bDJcRu/kKvUY3eEPFryKlX58MAhWWHXperwLs35mbBUCrRXqaJMECOwhMCLM6nmR7QtHpjwmMFi31k3VmZG1bCDQ80Z5yppepR/rDqefra9l1aS6DAHWq9eSokz1xyHKWv3YogbP+1inH/cQK1yekIWLT7UpyiUuWVinH89S1/n9Klb6cawxeZV6bKG6gVVd5v+g8/81t1x06vsG/diiHGmhfvR8Zn71vjf8+JyrFBbqxwvzpqlT1fmcVSR51gswDxMgcCoBYdapyjWusXUZrpVf/B1r3Tfecb1cYqmr9GMJi6FtrGHVs82nsKT/Q+OnH8B69imIvRd/cDZnX20+trtKPYaOnyWev4qVfiwxGpbbxlXqsZzI6y2tbxU/v/2+Dy6aZq3fj9eGSz6zUD8uHmY9xJsYlC46ph578ZMAAQLbCgiztvXeYG/hzf3jk82+Jod9tCe5p3xTvEo/+mq09GNLW/Vsr72XQ9083aC0Se2Hr+yLC+6Bypx/+Xx49OzX2E3dIKu9vLNO+dWd/y8FjaHWR35XqcdjfK358ypW+rHmKJm+7avUY3rPp6+xttW7KyE+ed+LPV27H3F/a/29UD+WDLNmvR8u1I9B5rifJcfU4M4tQIAAgVUERoRZw/uNJ0KzXsuHd2OJUQL5h6G1rovv/OvhSYt+lX6MGhofLrSkVXzNePuFBE0+pu//Uv3BeFuyHx+SfrT6Yv3ofJAfmP3WqcfA8gO9XKwfA/u5wtNXsdKPY43Gq9RjC9VVrbKZM0UqwiXfH7ztdWhW7Udnb+s9sGs/pr53vmHYqh/5Z6/P3rvfdMdTBAgQ2ExAmLUZ9UY7Cm+uS374ee7BVm+8z/tc4/er9GMNm7jN5axiODXiXwfDuL7d5n8IW64fUWjbv5fpR/yX2lsa9ZqRnXR9NjNzmX5sa7/X3q5ipR97jaD+/V6lHv29W/bRNa2ybbez6hd8nY0K2b5OO7s+pT37Eff9yT8ex22tdrVDNqbmf46K48nfBAgQ2EtAmLWX/Fr7DSf9o05MZ7Ql/9edW/rkTXzG7hdb5Sr9WAzkzYaWspq7naU+7M3d/xuaXZ5apB/h9eLtDLmslzEEm/+heJF+ZG277h9XsdKPY43Rq9RjC9X1rPJ/5Pn5TJU/Nv71eVhivX4M73vJJXbrRxYKffoN4alzqf9qn6mzds9/316yhrZFgACBTwSEWZ/oHXHdcHIqzHpfpN0+CL1v1iGfXcYqhiAjZmU9NMLYvt0mrPvYRtrwQ+PTPtf4dYl6fLKNT9Z99lhqO8/bvOrv61m196erUll2L21qZ0EWRZnKaolvr/ypzHr92Lby+rGt9xH2tlrNX4QM+T/iLBc+rNaPjYu0Tz9CyHgbOaP5jc1m/Xgxzt40zVMECBA4tIAw69DlmdG4cMK/VZi11n5mCExaJX6AOGs/JnV65sKLWIXxOW0qfQzC5n2wX6QfMw2XXG2JfuQnShM/kH9Uyz+JJfrxt7Vr/7a0VfuV7WVRpN9vTIs39+/5+/7FAB8yL92PD5sze/Xl+tE9OZ5Sk0/vI7hcP2ZTnmbFtayy1+LnL+7JwoflZsGv1Y+tC7lHP+I+p32O6ReK21zts2g2nuZ9hurvgUcJECCwj4Awax/39fYaTjBXe0Ncrwe2fGWB7IPUtPCk75sNV5uKf+Ua/PYthoPT6pFSOAF/PgH73YdfDisQ3ismhSfeWBYuaziWekLEwfqoycI12XJzof5ZLcNzXme3LEx3X53XzXkzxLsb3uiR7DOYMGsjdbshQGBFAWHWiri7bDq80WafiXZpkJ0S+BPI/vV5wk3c6/LF7BED/A938m+fhllx/ZN9qJ/sdbEVsveKIpVVleqmSU3o5qvZW4LkAPXRnyGwmBFmqcdHBdh35Sxg6P6jwtz3zX07dcW9x/e85WbKbaaVjTVh1mbudkSAwGoCwqzVaHfacHaC0v1QtFOr7JZAe7eqVGVfNT4m/Ijr3PJLovwr9UcjKz9Jmvp6EWszpp4fNdfKSwo0VSqL8h5gjdlsHCtL3ox6zP4t8ySQnZB+fvPppy37dQeB/Njqvo7GS9AElzsUqd3lFY67rA/CrJ1Gkt0SILCggDBrQcxDbEqYdYgyaESfwMTw434/n+fwqkhle5Pq51kLwqw+6NGPxZOkqff+yE/CfDAeDX/KBePsIfXep4yxDt3wY5922es8gVDPvtnG4XOdIHme9GdrhTpNmFn+2X4XXjsLs6b+A9bCbbE5AgQILCDwZWFWfDN6PlGe+PtRT6KzNyonGwscIzaxmEA4/t4cQ937Yz3GctjGzG80XKxLZ99QPEma6CnMOvsAmNb+vN5OhKbpLbO0GizjeJitZJ/ZXh1T8R+CHu+Hh+nF5RsSj7up//BzGKDwnm+W32EqoyEECMwUEGY9z/KY8vubE/GZtVhgtfCB55BtXKCbNnFSgRBEvRifndlC2XJhjE8MX04Kt2Kzo+cttR/S432Tug1oUl2VqcheM51gdZ2u9Ug8NvsmkVyrx8fqTfQ/7Qn1sVh3bU0ekryeZRdrL4TYsGwhALqd+nNHfM9vLzXf0NKuCBAgsLCAMCs7GZswOys7wV64KpM316Smvfwqux/Rq3/hm7xxKxBYSGAozIofsm6p6AQrcZnXH/4XavT1NxNmBty/Na0oU1XHm4H/vM5Ur27Gf+oP+Ncv8xI9jCfUwqwlVEduI55QH+ozyMg+WCwIDL0nPi2u/k8YW/4aP3Nc4LN15z2//QKQOjVCrS0Hln0RILCQwJeFWQupHWEznTej5yCuvbeQd6UjlEkbngXefHDv3B/r1bcExQ+Wwqxn4bm/x5DiHmhNDvrVYq7/WdaL40SYtVXlwmvnWe/XsxXXWfYTPse9n20V3/vMhN2izPE17yr3K+veyuH5HOICgd0Wg8M+CBA4hIAw6xBlmNGI8CHo5+SzSEVZ+deVGZxW2UIgnJA9ZhbEf3F+e6IWP9AfIEDptD//UNgfDB2g3aHkQx9u8378/Etu9u2Uj3qG7frzBALNz2WjZVGkIszwzeuej+3DhFkXOQZfjZT8UjQnmq+czvZ4XtfhcCoGK+/Dr401LnkMhs8sbz+bbOy9yO7+3y6g5zX/MK/ti/TTRggQuLKAMOus1e0Nsx4nGu2JpplZZy3tddsdgqiiSnVVpOxkuRi6f0P4cHmEAOVSH+IflywX4X5Yt1QURSrLKtW/1yKEevr0e75Dt6nT68tGH+8nr38epuSXOgbDMIrv9YdBD+3050SBGe9lcSwc4f3v0esLHoN52PhqtvgD4GQ/B+rlZeZk9dRcAl8sIMy6QvGb9gS07PyL+qH+1e4KzvrwoUAIP8JlbN37Y/XtLpwAHOET18CHwiys++3z8WZm9Wm/fyyvhdeb91qHe3bWuM2DrSMcfnfXWX05wTHY6dcJ2ny4gX7QBoVgatzrZ/6aezvSTKHOWM1fK073Phjqc+6bvodjINaq9x6ZYR1/EiBA4KACXxZmxQ8CY95sXyxzpH8R+x1csX8++P7S+OUQAvFfOh8fcMd9kE8pxQ9hhzmbPgTvto3IPuwPXyKzbePs7b1AfK9o3+eGbwIcL3Ny+L1X/uzZGP47xj7zPNba+Xvh+Nrm611sttBhShSPvWtd2puNoUOeyxxmIGgIAQInEBBm/c6UeBFavXr+qG8A2Qnmtd6AT3A8aeKAQDwZnvwvy8b3gPB2T/tAvJ310nvqHodDl/f+tCCuJ8xaujJ/28uOr5vQ4k/mCr/1hckTP4M+Ppse9bPoicsUX+dul3qhy8fepbp24jGn6QQIzBcQZj0+EEz9edQPEGHmijeq+QeHNVcQCGHU1G8Gyk/wxv9r9go9+fJN5h+IR8+s+3K1Y3R//qyDeJLn/WWlisbXSdArQe+02VjfqZ8/s+W9Dy5bxfy9bfI/uC3bmOW3lp0jGDvLA9siAQJbC3xZmLU17w77y96o/GvuDhUIu2xSXf7d5Lz9tsn6q+/N/8kHxbDuUQPlMAKu+GceKh79cmbHYD4Gw3E04b47wqxccp2/Yn2OfnyNUXAMPivlr58zZ2Q9BVr+MeFZ97PfY20uZ5udIwizPhst1iZA4AgCwqwjVGHJNmRvVMKsJWnnbCue/P3cI+oKJydzNH7WmfthMVpe7kPmfNIN12xPSvOTr6NPGonjxjE4Nyw5X+03PDAW2tX8WXMLNWCVzTgGn1nnHn9/2+h4Hv1F+K/px/4tzpi74j+YZX0UZh17QGodAQJjBIRZY5TOtIww60DV6p6YTL7h+YF6s1hTwhgd9y1Bn58ALNb+L91QU1epLPIg6/j3EnEMdodrPJbGnND0OzqH7up+8kgMKa4R2PePnfa98Br9m1jxLEy4pVmvobPeQye28+sW747TS76+ZeNvzGv/1w0EHSZA4GQCwqyTFWywueFDzld+WBxE2mqB7oejR5g19V5RW7V4q/3E2T3vPbqOxvX6lWqaJjV1naqqTMXTJS2PMVyUdTr+FbPdsfNo//sxt77vfnvomrw9npqeEPP/eLjkyd5ehclOMm/pOuOzO96++RiM733zjqGu6bzt7DXYj7ffGCTPChmP161ui7LXGWFWF8gjBAicTUCYdbaKDbVXmDUktOnznQ9Iv6HAd19qmFKcHdKevJWpym4o1oYpPUGKT+0Lj+GeWvyO0zAT6/54kcqsTgs3Z+HNOQZ7QLMTmp8ax3CyaepUFn/3+2sDiKLMj0eHYo/trIemHoN9x+VxZzo5Bh+DItZ5/ueAjqmD8YE8/Wf43Pwbtr59H+w/Bu+vk9WB/5kne+0XZk0fLNYgQOBoAsKso1Xk0/aEN+W3/+L+6b6sP0og/kvszwel+R9iR+30DAuFsTrqA+QV72Gxe63iCdarD+lFioHH7k0f2QDHYITqzuwYOv7uAWY4Zp0/R9eZf2cnmK+Ov+HHj/x+7xhMKcU6f3IAhWNx3OX6M8fnxVfrBIMzQ6zHa+iRj8N8DAqzLj60dY/AVwgIs65W5vAB59Bvqlezf9mfvrBAmHXnus/+GD5Jaz8knjVIeTksDvNE3/i8paJow6sylVV9gW/g7Ovjtx+DIwOtdsbk70SD3PGTc/HDDP8jNCSGHDNPpo/9fp+PnZ8T/+86BmOg91m9usev43HewSzMmudmLQIECBxBYJEw6wgd0Yb/AsKsAw6F7ofO69wPZRnu9pKmqixSEW4w3gYqbZjS/J5ML7M/W/k2Acfgq4r/HntZgNIei/Gy31db8DiBMQKOwTFKliGwqkAWnJuZtaq1jRMgsImAMGsT5g13IszaEHvsrrof4j/7F9mx+7UcAQI/Ao5BI4HAvgKOwX397Z1AvNRVmGVMECBwfgFh1vlrGHoQpvKbdx58dvgzBIy3mw8QO1TBLr9ZwDH4zdXX9yMIOAaPUAVt+HYBM7O+fQToP4HLCQizLlfS8K+fbpi9c4VDPdpLeQSMO9fE7r9LwDH4XfXW2+MJOAaPVxMt+kaB/L5t33XPum+stz4T+AYBYdYFq5y/WR3367ovSP/XpaZJdZV/jf39hrfCxT8jvxFYU8AxuKaubRMYFnAMDhtZgsBWAtmsLP+wuhW7/RAgsK6AMGtd33223pnO334TXJVqd9FevR4xSHx8VbMga3V6OyBwF3AMGggE9hVwDO7rb+8EMoE2VC6LlH0evd2SiwQyJX8QIHBSAWHWSQs31OzBrxrebYZQuKdX9g1at86bbXzzHfX3bn1Lqf9D/P9v5BsqmucJEPhYwDH4MaENEPhIwDH4EZ+VCXwo0HNZb/ysLcn60NjqBAgcRUCYdZRKrNCOpu8yt8cb2m6Bz5eEWUWRivLnq+2bFWprkwQI9Av8nkg7BvuBPEpgZQHH4MrANk/grcD7MKsQZL3V8yQBAucSEGadq14zWvtz76ayPbF7BFntT2HWDEurECBAgAABAgQIEDiqQDfMKor/Vwj419WjFk27CBCYKSDMmglnNQIECBAgQIAAAQIECBAgQIAAge0FhFnbm9sjAQIECBAgQIAAAQIECBAgQIDATAFh1kw4qxEgQIAAAQIECBAgQIAAAQIECGwvIMza3tweCRAgQIAAAQIECBAgQIAAAQIEZgoIs2bCWY0AAQIECBAgQIAAAQIECBAgQGB7AWHW9ub2SIAAAQIECBAgQIAAAQIECBAgMFNAmDUTzmoECBAgQIAAAQIECBAgQIAAAQLbCwiztje3RwIECBAgQIAAAQIECBAgQIAAgZkCwqyZcFYjQIAAAQIECBAgQIAAAQIECBDYXkCYtb25PRIgQIAAAQIECBAgQIAAAQIECMwUEGbNhLMaAQIECBAgQIAAAQIECBAgQIDA9gLCrO3NL7jHJtVVmcqiSMXtlm6P/4sqNRfsrS4RuJ5Ak6ri6di93VJRFKmsasfw9YqtRwQIECBAgAABAgROLyDMOn0J9+1AU5V5gPUIstqfwqx9i2PvBEYLdMOs31D61oZaYunRlBYkQIAAAQIECBAgQGB1AWHW6sTX3UFTFX+zsJ5DrMfvwqzrFl/PLibwLsz6mbFVCLQuVnPdIUCAAAECBAgQIHBegXFhVl32hBZlqsf2O6xfdlasU/kIQJb6KUgZW515yzVVZ0ZWUVapbqbN4IiBWHds9Dcvrne7FWn/c+0YCEw4Rvq7eZxHwzH8mLUztl5bd6Q7PvJL6B7tv/9sL48ty1TVzbEuqes1nzCmwvpTatU0darKGFYf4RjbeiTZHwECBAgQIECAAAECRxT4IMy6pdH/Uj94UiXMOuLgeNemuszDgdFjIWw0hg6jTrjDeGoDiVHrhX0v/+d1w6xY798w6BjwnVLGcfXb3hFheVEe5D5RPeO87cfoYy2sP6dUTdjGbc5GOtXxAAECBAgQIECAAAECBD4T+CjMGn1PpHBC1D0fEmZ9Vsat1w6hzQez4GLo0B0bsW/dsTL65D5uavG/g8ttwiyaxduy5Aa75n/h0DH7GMfVX3vzEPbl4x+M6cXkw+vmb1vHti2sP3xs9bX8qmO6r68eI0CAAAECBAgQIEDgLAKfhVljZ8QscFIVT07nnZidpSxHb2cebnwSJk2razyxvqVjzRSJ7Ttm0DN5dGXHb5GK8K13RzwWR4+rpklNXaUy9OkeHO3dscw9D+FGNS2sP2qdnsGRW7rUsIfIQwQIECBAgAABAgQIbCzwcZg1anbWAidV+QnVUS4r27haR9lduF/W3JPktjtT6hqXHTX2NjW7ZpiVXWLYzgoKx/OxAsWfgsexMmaMZv28X464cxgZnZ8vkRwzOyusP8ag93DJtiPM6jXyIAECBAgQIECAAAECmwrMCrOKIr8x8OBJUnYyNC+ImnNyuqnkN+1sjzArjKHbIS/hu2KY1TcLL3/seKHitJD079AN/Ro78/RvA8v+Fsb8Hq+79w5l7RBmLVtkWyNAgAABAgQIECBAYI7ArDCrrMNJ39AsgexkSJg1p1CHWmfzMCuMt0N8c2FfRS4YZmXH7l+Qkc9i+nu8T2WPx+aG33m/JtxsfY1OZvbt62Y4DjZ43b13K2vH8Wq9Br1tEiBAgAABAgQIECBwbIGZYVZK+UnfwAlOdjIkzDr2kBjRuk3DrBgQ7RwwvOWJbd35MrW3bR33ZHacP4cn4Zj+5L5p41oybam5YVZcb9d+BeN2BmxWj6FQt2f9aYr/l862M/BaP2sHViJAgAABAgQIECBAgMA0gdlhVgqBxtv75mQnQ8KsaSU64NKh9oOXmb7pQgwP4rbi82/H2Zv9bPPU1cKsMBMoK0547jno2gb77V7iuMma/mbNPCzaOTjte90Mx97b46Fv/Td9f/lUth1h1ksnTxAgQIAAAQIECBAgsJnA/DArxRP3Nyc52cmQMGuz6q61o3BCPTYo6GvO29AhjJsj3psp71M8Jk4+Myv4xzrnwc+b4z9H2uSvt+PqZQti/ea9Vr3c/NQnev1jG9+4964/tRGpnQ6W7t/ueL8B/Zv9zdi0VQgQIECAAAECBAgQIDBH4IMwK57k3NLLWQLZydC8E8R5J6dzSKwzKLBJmBVm/hzyhu9RKgYN5w6z8rCq25d4TO56SV4oRWxbDOLC4j9/hnG9+5cMvHrdDI+v+bp7h8n2J8zqHTseJECAAAECBAgQIEBgU4HPwqyxs7OykyFh1qYVXmNn4aR/VFDwoh39oUMMhc5yAh3b3Q2AXjAc8OEQJvYVOYyDI82c6x9Xb5ib0N+9v8mwberL1804zl4cHy/Xf+PQ99RS2+nbtscIECBAgAABAgQIECAwQ+DDMCuleNLYO0tggZOhuJ++c+sZ/V9hle5J8d8lOreny3VG/H6w+xD9YmX1fHEi/bvw+1/66tr32PutHOXZGDKcOMzKavwqgI79/WwsLFnFsWOoaZpUl0Uq7pfQ/R2Th5hl9qYGsX9rve7eaxJCy0PYLDlYbIsAAQIECBAgQIAAgdMJfBxmpRTDm54T+DcnZWPF4smbMGus3NLLhQDjw8CtU9fy+f48O9+AezJdsDnFpZH9nRy6xPCxVqzfUYKO2K7RgXJRpqpuHt3b9+fb181tXnd/AHrG9UGI9i2QvRMgQIAAAQIECBAgsJfAAmFWd3ZW54T27UnZuK7Hk1Nh1ji35ZZqUlNXqSz+Zq+0AcGndYh1jaFDZywt16EVttRz0r/CXtbfZAhK3gWWYdbOUS41HBpXcZw9/i5OE2Zt87r7O9bCa/jtVqSyqlMj1Pol8gsBAgQIECBAgAABAtsJLBJmDc7OCidCcwKQeHI6ZxvbsV5kT6FujxP+n59FKheYwdKpa1V1Lvk6T60vEmaFur8PFGOfj3GpYRxX+djNA9ne54oyLTC8P3shCHXoHgchdIwzAQfXn9a8pi47x+azXbd907ZvaQIECBAgQIAAAQIECIwVWCjMGpglsMBJVTw5deI0tsQfLBfq9gixirJabEZGb107+z1GQDIsGYOdnktuhzey+xL5JYbD9rGG78OvbboX2/Ty9aJ5zDgseu5nN9z3VXsTjoO+PsR+ZvYj1p/e/ibVVZmKMEOzfW3oa9/07VuDAAECBAgQIECAAAECwwKLhVkpXm70PEtggZOqeNLmxGm4uB8vEer2PAvj5zKjz68xelXXPFC5paNcvvbe9AphVpjt8+4SwwdGHCdj1nmsu9LPV+Pq7e46r2E7j7vg2vua12nzU4A6Zv23IOHJzr7yGW697Qub8CcBAgQIECBAgAABAgSWEFguzLp/k/yLk5sFTqpmnZwuIWQbPwL3GSzdGRnZTJAZVq/rGoOhW+r9xrYZ+1xvldjmp2BhvZ0uu+VwrI6rbwjAbjvPaErdmaKjg5ZOYLNjX0ItXvUhBr+/y41cf9QAii7/7y32eZw9au8WIkCAAAECBAgQIECAQCawaJjVmZ31mKGxwEnV69Aj688B/ogn9nnAl89uGnju4XeAXv01Ifbvs8DmbV3jCfTt6N9ueP4wKw9Gxgc5+Xr71+ntuPobzD2/xRru2Jexr5vxOHm8boxdv0chPpTV97H9uJC/CRAgQIAAAQIECBAgsJHAsmFWZ3bW/5PhBU6q5p+cbiT5u5sY9gwEVrc3zx/1pHGBej64Busa9nXse/PEIOSzoO9htN3P64zdwXH1BjULbvYMUMPY/51x1dP2vM3Lve7+7CofF+/a0dM0DxEgQIAAAQIECBAgQGBxgcXDrM7srPbMZ8JJ2asefnJy+mqb6zyen/hNmokVg62jhllhJsgnJ7dj6pqfqLfh31FDopOHWeE4/Wjs7nyp4Zhx9er4j+Nt3KWWr7b2weOhHm+Ps3BM3i/JnbL+u2Zm2x4/W+/dJj1HgAABAgQIECBAgACBTwSWD7NSPKEvUlWV2TeFvT0pe9GbT05OX2zSw3MFspPbzy7DGlfXOKaWujF3k+ry71vs2m9prD+6CVBs51ah2zL9iCHOZ2HWnHGxTD/aYT1uXPUdALGGc76lb6F+TAqjYruXed29C2XHuzCrb9R4jAABAgQIECBAgACBbQVWCLPu1xpm4VVR/AUGcy8Tm39yui3oV+wtO7mdE1r8KY2ua9jnPWiZk4r+7boTePyEN58EUDFQ+GRbTw0d+DUazutHnFE4ve2ddkysT2f9+0zF6e1oueK2RjelM86m7z/ue149uq+jg30I4dcSr7v3oZdtV5g1cDh6mgABAgQIECBAgACBDQTWCbM6s7Py+0INnpT1dDyeIM7ZRs9mPTRHIJzwf3IZ1qS6ZifVP2Nq/r5j8PQ3Rpfb5vQgZHo5FupHtJ1zgIVxMe1y0IX68R9w0rh6oDcxK+6fDQAAIABJREFU0JsT1C7Yj1CT4ZK83ncbqA2v/4AIP7N2CLOCjj8JECBAgAABAgQIENhBYKUwqzur4Gd2wk9gMOekatbJ6Q6gX7HLEFrMD3+mz6CJ4+A2+95Mb078Z9+rLG5z3zDrNqEf8RLDOcdo6gmxx28n2v2Fi1P68Tj+4jh53Y4mNU2dqqfLTX9fqyb4PfbbZzB7e1mINDKMCuv87luY9VcivxEgQIAAAQIECBAgcHqB9cKsnhPbx4nV6xPL157jT05fb8MzCwnsGGb1hwXzQqM4ph7jc9qMomfTN4FMvLn/q79nBCif9yPOSJrn2Up02jLhYO+s+2s0vT2vt/UUkv1uv+exGXV4jITX+57YjxBMjaN8PQbHrf/oxdPPrB1mZj3J+JUAAQIECBAgQIAAgZ0EVgyzek5s/588zjmpiieIc7axk/H1drtrmNVyxvBl/g3h44ykn0BrYujwW+HXQcJfUNYTnDyHKjNDlI/6kYUVt3T/JrzfPk38JYyNqcHgR/14amp8vRjtfytS+dm3ANxbsUg/Ql3Gvua96vvY9Z8Yf37N2iHM6vh4gAABAgQIECBAgACBzQVWDbN6Q4eZl7vEE7TZJ2abE19whyGw2PIyw1/N7AT7f0A0a1D0BGO384VZ/cfauH7E4OWTevbNnJtWlmXqEV8vXodZRSqKMpXVp99k+Tsy//+yQD/CGB/v2LfvkZcpxm60f2ftEGb1EXmMAAECBAgQIECAAIFtBcaFWdu2yd6OLrBgmLV/V3tmU82cHbVvX/RjX/+496vUQ5gVK+tvAgQIECBAgAABAgT2FxBm7V+D87Xg4mHWZzOT9ipnNzzRj71q0e73KvUQZu05iuybAAECBAgQIECAAIF+AWFWv4tH3wqEy5jGX//0dqu7PBmCufnfjrhL6/92qh9/Fkf47Sr1aC1dZniEEaUNBAgQIECAAAECBAg8CQiznjD8OlYgzDo55WV5bV9DP9obsZ8ymNOPsSN3m+WuUo8frfyeauPuw7aNs70QIECAAAECBAgQIPCtAsKsb638h/3OT3Bv6VSXtDVNqqsyFc/fItj+frZQTj8+HMULr36VejyzZLOyzhr2PnfI7wQIECBAgAABAgQIXEFAmHWFKu7Rh85lVLdUlO03wjV7tGbUPmMAl33D3YmCLP0YVe7NFrpKPTKwNpgri5QdIzO/iTbbrj8IECBAgAABAgQIECCwgIAwawHEb91EU3VPdrOT34MFRP2hQ5HKqk7HjeC6o0s/uiZ7PnKNevRcGhlnLp7yEtw9R4Z9EyBAgAABAgQIECCwloAway3ZL9lu03e53uMk+KhhVlGkoixTVTenCrEeQ+o3PNGPB8muP69Rj/dhViHI2nWM2TkBAgQIECBAgAABArmAMCv38NcsgZ97UJVtuPIIss54D6pZfbcSgSsIdMOsovg/a/FM0xavUAp9IECAAAECBAgQIEBgUECYNUhkAQIECBAgQIAAAQIECBAgQIAAgaMICLOOUgntIECAAAECBAgQIECAAAECBAgQGBQQZg0SWYAAAQIECBAgQIAAAQIECBAgQOAoAsKso1RCOwgQIECAAAECBAgQIECAAAECBAYFhFmDRBYgQIAAAQIECBAgQIAAAQIECBA4ioAw6yiV0A4CBAgQIECAAAECBAgQIECAAIFBAWHWIJEFCBAgQIAAAQIECBAgQIAAAQIEjiIgzDpKJbSDAAECBAgQIECAAAECBAgQIEBgUECYNUhkAQIECBAgQIAAAQIECBAgQIAAgaMICLOOUgntIECAAAECBAgQIECAAAECBAgQGBQQZg0SnXuBuryl2+3n/6Jqzt0ZrSdAgAABAgQIECBAgAABAgS+XkCYdekh0KSq+AuzyvrSndU5AgQIECBAgAABAgQIECBA4AsEhFmXLnKdyv+zsm63IpmYdeli6xwBAgQIECBAgAABAgQIEPgKgc/CrKZJdVWmsihS8Rua/M0EKtrHyzJVVZ0aV7htP6Ca6qkuZTIxa/sS2CMBAgQIECBAgAABAgQIECCwrMC8MKupU/l0+drjnkxDP92zadnidbbW1Kl6Ey629WkDxrKqUi1d7PB5gAABAgQIECBAgAABAgQIEDi+wOQwq6mK3xuKD4VX8Xlh1joDoqkr4eI6tLZKgAABAgQIECBAgAABAgQIHExgUpjVG2QVZarqpvcywqZpUlM/zRZy06aFy9+kuhQuLoxqcwQIECBAgAABAgQIECBAgMCBBcaHWdn9l37ui2Wm1b6Vrcu/+5M9ZsEV5c8lhO0typ6f/6lVGzrWf/c5Ey7uW0B7J0CAAAECBAgQIECAAAECBCYLjA6znoORe3BSup34ZO0lV6jLcLln/LbCJlVP9zVTriXxbYsAAQIECBAgQIAAAQIECBDYS2BkmFWnMnxboXBkr5K1+82DqjZc7NbjuWYx6Nqz7fZNgAABAgQIECBAgAABAgQIEJgvMC7M6lxiKByZT77Amp16lKkzTy5bpuf5BZphEwQIECBAgAABAgQIECBAgACBrQWEWVuLL7G/ziWGPWHV8zJFldp7aPmPAAECBAgQIECAAAECBAgQIHB2gXFhVnq+ZM3N33cvejbrqq1Hz0w5YdbuZdIAAgQIECBAgAABAgQIECBAYHmBkWFW9x5NvQHK8u2zxV6Bbrh4CzfNaqri7wbx4bneTXqQAAECBAgQIECAAAECBAgQIHACgZFhVkpZOPJ7M/gilbUL2Paoc+fbJduaFFV6lOP5+aJSoz1qZJ8ECBAgQIAAAQIECBAgQIDA8gKjw6y+b9Brv0Xv/n9RpuqRoizfRlvsFeiZnfW/HkVZpbL4X5vebzrs3aAHCRAgQIAAAQIECBAgQIAAAQKHF5gQZrV96bvc8C80aS89LKv6wDcbfx0A/QZzj4Bu6OcRbqreuXfWcy0ev/fcT+vww1IDCRAgQIAAAQIECBAgQIAAAQL9AhPDrHYjTarLp/sxvQh92tlBx5usdbEw617TJlWD9ShSUdapcbVh/1HgUQIECBAgQIAAAQIECBAgQOA0AjPCrP99a+pUFmcLta4YZp25Hqc5TjSUAAECBAgQIECAAAECBAgQOIjA/DDr0YFmzEwtN4p/cK3/c2Q93BR+/VLYAwECBAgQIECAAAECBAgQILC4wOdh1m+TmtTUZSqebjwe70PlW/V+sVb9pf+bJx/30Pr72V566D8CBAgQIECAAAECBAgQIECAwJkEFgyz/rrd1Pm36f2FWm5G/qe03m91+RRYtTOw3syeEzCuVwdbJkCAAAECBAgQIECAAAECBJYXWCXM+mnmi8vdjvAtgMs7HmiL+TdOZpOv2vucdW7YXybzsw5UPk0hQIAAAQIECBAgQIAAAQIE3gqsGGb97Pd5ltDPDK09Z2f1hTl/s5j+ZpCNeOywoVzexyzMakvSVKkIgVZnmbdDxpMECBAgQIAAAQIECBAgQIAAgf0EVg+zUsrDlTYw2i886bZlUoD1HAKdIszqCw7zmVtt/11quN8BaM8ECBAgQIAAAQIECBAgQIDANIENwqxueCLMmlakSUtnM6/6LiHs1kOYNUnYwgQIECBAgAABAgQIECBAgMCOAhuEWd3ZUPuFWTtKb7Xruky/s816Z4+px1alsB8CBAgQIECAAAECBAgQIEBgeYH1w6xsplB7L6q+S9+W79i3brGpir8wqy81fA677pdN9s3e+lY9/SZAgAABAgQIECBAgAABAgSOLrB6mNW5AXzvbKGjM52nfZl3DLM6waL7ZZ2nslpKgAABAgQIECBAgAABAgQItAKrhlnZLKH/N0+P+YoyTBdoXYuiTGVVpbpuUtM0qblvJr8f1s+9sJrU1FUqi6cZW48b2QsWp+NbgwABAgQIECBAgAABAgQIENhVYFSYlYcn9U948pOedBrfBit11YYn7SWF+f+FJKvjNeeBvpAwWg/+LciaQ28dAgQIECBAgAABAgQIECBAYGeB0WHWYDgSgqu4vCBruUp/FGYVRSrrF0nkck20JQIECBAgQIAAAQIECBAgQIDAKgLrh1lFmWQny9euaepUt5cPlmUqiiIVL8PExyWJtTosXwZbJECAAAECBAgQIECAAAECBDYWGBVmtW26Xz74HJ703YPpdvsJVsoyVVX9/z5OG/fom3f3/E2FLiP85pGg7wQIECBAgAABAgQIECBA4LICo8OsywpcqGPZ5YfuT3ahyuoKAQIECBAgQIAAAQIECBAg8BAQZj0kLvCzLp9uuC/MukBFdYEAAQIECBAgQIAAAQIECBCIAsKsKHLiv5/DrKJyk/cTl1LTCRAgQIAAAQIECBAgQIAAgRcCwqwXMOd7uElV8Tczy8Ss81VQiwkQIECAAAECBAgQIECAAIFhAWHWsJElCBAgQIAAAQIECBAgQIAAAQIEDiIgzDpIITSDAAECBAgQIECAAAECBAgQIEBgWECYNWxkCQIECBAgQIAAAQIECBAgQIAAgYMICLMOUgjNIECAAAECBAgQIECAAAECBAgQGBYQZg0bWYIAAQIECBAgQIAAAQIECBAgQOAgAsKsgxRCMwgQIECAAAECBAgQIECAAAECBIYFhFnDRpYgQIAAAQIECBAgQIAAAQIECBA4iIAw6yCF0AwCBAgQIECAAAECBAgQIECAAIFhAWHWsJElCBAgQIAAAQIECBAgQIAAAQIEDiIgzDpIITSDAAECBAgQIECAAAECBAgQIEBgWECYNWxkCQIECBAgQIAAAQIECBAgQIAAgYMICLMOUgjNIECAAAECBAgQIECAAAECBAgQGBYQZg0bWYIAAQIECBAgQIAAAQIECBAgQOAgAsKsgxRCMwgQIECAAAECBAgQIECAAAECBIYFhFnDRpYgQIAAAQIECBAgQIAAAQIECBA4iIAw6yCF0AwCBAgQIECAAAECBAgQIECAAIFhAWHWsJElCBAgQIAAAQIECBAgQIAAAQIEDiIgzDpIITSDAAECBAgQIECAAAECBAgQIEBgWGB0mNVURbrdbqP+L4oilWWVqroZboElCBAgQIAAAQIECBAgQIAAAQIECIwUWCXMykOvIpVVncRaIytiMQIECBAgQIAAAQIECBAgQIAAgZcCG4RZ/2dzFZVA62UZPEGAAAECBAgQIECAAAECBAgQIDBGYHaYVdYvNt80qa7KVBQ9lyQKtF6geZgAAQIECBAgQIAAAQIECBAgQGCMwPJh1tNe++6zVVQuOHwi8isBAgQIECBAgAABAgQIECBAgMAEgVXDrLYd3UCrTK8mdU1ot0UJECBAgAABAgQIECBAgAABAgS+UGD1MCulOpXhWxBfXqL4hQXQZQIECBAgQIAAAQIECBAgQIAAgfECG4RZKdVlfv8slxqOL5AlCRAgQIAAAQIECBAgQIAAAQIE/gQ2CbPipYbCrL8C+I0AAQIECBAgQIAAAQIECBAgQGC8wC5h1s11huMrZEkCBAgQIECAAAECBAgQIECAAIFfgV3CLDOzfv39QoAAAQIECBAgQIAAAQIECBAgMEFgkzAr3jPLxKwJFbIoAQIECBAgQIAAAQIECBAgQIDAr8AGYVb8NsMy1b+73/qX2Jb8xvS38K2Lb/8uqtRs3Xz7I0CAAAECBAgQIECAAAECBAh8ucDqYVaclbXvJYbCrC8f77pPgAABAgQIECBAgAABAgQInFxgxTCrSXVVpHx2056zstpKCbNOPl41nwABAgQIECBAgAABAgQIEPhygcXDrKZpQ6wyFZ1L9opUuS7vy4eb7hMgQIAAAQIECBAgQIAAAQIEPhOYHWblM64G7j1VlIKsz+pkbQIECBAgQIAAAQIECBAgQIAAgZTSymFWkYqydqN0Q40AAQIECBAgQIAAAQIECBAgQGARgeXDrKINsMpU1Y0Qa5ES2QgBAgQIECBAgAABAgQIECBAgMBDYHaYVdaPTZzppxvAn6la2kqAAAECBAgQIECAAAECBAgQiALCrM6N6gfu//VYvqjMPIujyd8ECBAgQIAAAQIECBAgQIAAgZUFhFmPcGrqT2HWykPT5gkQIECAAAECBAgQIECAAAECXYEvC7O6AB4hQIAAAQIECBAgQIAAAQIECBA4j4Aw6zy10lICBAgQIECAAAECBAgQIECAwNcLCLO+fggAIECAAAECBAgQIECAAAECBAicR0CYdZ5aaSkBAgQIECBAgAABAgQIECBA4OsFhFlfPwQAECBAgAABAgQIECBAgAABAgTOIyDMOk+ttJQAAQIECBAgQIAAAQIECBAg8PUCwqyvHwIACBAgQIAAAQIECBAgQIAAAQLnERgdZp2nS1pKgAABAgQIECBAgAABAgQIECBwVQFh1lUrq18ECBAgQIAAAQIECBAgQIAAgQsKCLMuWFRdIkCAAAECBAgQIECAAAECBAhcVUCYddXK6hcBAgQIECBAgAABAgQIECBA4IICwqwLFlWXCBAgQIAAAQIECBAgQIAAAQJXFRBmXbWy+kWAAAECBAgQIECAAAECBAgQuKCAMOuCRdUlAgQIECBAgAABAgQIECBAgMBVBYRZV62sfhEgQIAAAQIECBAgQIAAAQIELiggzLpgUXWJAAECBAgQIECAAAECBAgQIHBVAWHWVSurXwQIECBAgAABAgQIECBAgACBCwoIsy5YVF0iQIAAAQIECBAgQIAAAQIECFxVQJh11crqFwECBAgQIECAAAECBAgQIEDgggLCrAsWVZcIECBAgAABAgQIECBAgAABAlcVEGZdtbL6RYAAAQIECBAgQIAAAQIECBC4oIAw64JF1SUCBAgQIECAAAECBAgQIECAwFUFhFlXrax+ESBAgAABAgQIECBAgAABAgQuKCDMumBRdYkAAQIECBAgQIAAAQIECBAgcFUBYdZVK6tfBAgQIECAAAECBAgQIECAAIELCgizLlhUXSJAgAABAgQIECBAgAABAgQIXFVAmHXVyuoXAQIECBAgQIAAAQIECBAgQOCCAsKsCxZVlwgQIECAAAECBAgQIECAAAECVxUQZl21svpFgAABAgQIECBAgAABAgQIELiggDDrgkXVJQIECBAgQIAAAQIECBAgQIDAVQWEWVetrH4RIECAAAECBAgQIECAAAECBC4oIMy6YFF1iQABAgQIECBAgAABAgQIECBwVQFh1lUrq18ECBAgQIAAAQIECBAgQIAAgQsKCLMuWFRdIkCAAAECBAgQIECAAAECBAhcVUCYddXK6hcBAgQIECBAgAABAgQIECBA4IICwqwLFlWXCBAgQIAAAQIECBAgQIAAAQJXFRBmXbWy+kWAAAECBAgQIECAAAECBAgQuKCAMOuCRdUlAgQIECBAgAABAgQIECBAgMBVBYRZV62sfhEgQIAAAQIECBAgQIAAAQIELiggzLpgUXWJAAECBAgQIECAAAECBAgQIHBVAWHWVSurXwQIECBAgAABAgQIECBAgACBCwoIsy5YVF0iQIAAAQIECBAgQIAAAQIECFxVQJh11crqFwECBAgQIECAAAECBAgQIEDgggLCrAsWVZcIECBAgAABAgQIECBAgAABAlcVEGZdtbL6RYAAAQIECBAgQIAAAQIECBC4oIAw64JF1SUCBAgQIECAAAECBAgQIECAwFUFhFlXrax+ESBAgAABAgQIECBAgAABAgQuKCDMumBRdYkAAQIECBAgQIAAAQIECBAgcFUBYdZVK6tfBAgQIECAAAECBAgQIECAAIELCgizLlhUXSJAgAABAgQIECBAgAABAgQIXFVAmHXVyuoXAQIECBAgQIAAAQIECBAgQOCCAsKsCxZVlwgQIECAAAECBAgQIECAAAECVxUQZl21svpFgAABAgQIECBAgAABAgQIELiggDDrgkXVJQIECBAgQIAAAQIECBAgQIDAVQWEWVetrH4RIECAAAECBAgQIECAAAECBC4oIMy6YFF1iQABAgQIECBAgAABAgQIECBwVQFh1lUrq18ECBAgQIAAAQIECBAgQIAAgQsKCLMuWFRdIkCAAAECBAgQIECAAAECBAhcVUCYddXK6hcBAgQIECBAgAABAgQIECBA4IICwqwLFlWXCBAgQIAAAQIECBAgQIAAAQJXFRBmXbWy+kWAAAECBAgQIECAAAECBAgQuKCAMOuCRdUlAgQIECBAgAABAgQIECBAgMBVBYRZV62sfhEgQIAAAQIECBAgQIAAAQIELiggzLpgUXWJAAECBAgQIECAAAECBAgQIHBVAWHWVSurXwQIECBAgAABAgQIECBAgACBCwoIsy5YVF0iQIAAAQIECBAgQIAAAQIECFxVQJh11crqFwECBAgQIECAAAECBAgQIEDgggLCrAsWVZcIECBAgAABAgQIECBAgAABAlcVEGZdtbL6RYAAAQIECBAgQIAAAQIECBC4oIAw64JF1SUCBAgQIECAAAECBAgQIECAwFUFhFlXrax+ESBAgAABAgQIECBAgAABAgQuKCDMumBRdYkAAQIECBAgQIAAAQIECBAgcFUBYdZVK6tfBAgQIECAAAECBAgQIECAAIELCgizLlhUXSJAgAABAgQIECBAgAABAgQIXFVAmHXVyuoXAQIECBAgQIAAAQIECBAgQOCCAsKsCxZVlwgQIECAAAECBAgQIECAAAECVxUQZl21svpFgAABAgQIECBAgAABAgQIELiggDDrgkXVJQIECBAgQIAAAQIECBAgQIDAVQUWD7Pq8pZut5//i6q5qpt+ESBAgAABAgQIECBAgAABAgQI7CCwcJjVpKr4C7PKeoce2SUBAgQIECBAgAABAgQIECBAgMBlBRYOs+pU/p+VdbsVycSsy44bHSNAgAABAgQIECBAgAABAgQI7CKwbJjVVKn4DbPKZGLWLjW1UwIECBAgQIAAAQIECBAgQIDAZQU+C7OaOlVVmcqieAqx/i4zbO+dVRRFKqsq1Y37Z51tFDVV8Xv/s7aWYy8bjeuZpXe2ymsvAQIECBAgQIAAAQIECBA4rsCsMKupq1Q+3RvrccP3oZ9uCH/cgdDXshhKjQqz6jILwKaEYH1t8BgBAgQIECBAgAABAgQIECBA4FlgYpjVpLrMZ+sMBVjPzwuznumP//v0MOv5nmm+0fL4FdZCAgQIECBAgAABAgQIECBwPoFJYVZd5pcQtkFVUf5cQtheRPj8/E9w1aSmqVP9uBTRHeFPNUKmhVn5N1neQ8xRU7lORaKxBAgQIECAAAECBAgQIECAwM4C48OszuVj8dsK8zBDjrFzZRfY/ZQwKy57K6rkLmkLFMEmCBAgQIAAAQIECBAgQIAAgUxgZJiVB1XtrJtuWPV8iVkMurJ9ftUfbchTlPUpg50YUHVr/r+UnaDTN1l+1SDXWQIECBAgQIAAAQIECBAgsKHAuDCrqcK3FfaEFdkyPc9v2Kmj7CoLg044Uylrf2+A2Uo/h5jtZaiCzKOMP+0gQIAAAQIECBAgQIAAAQJXFBgXZo2ZefO8zAmDm8WLm4V7/+81VpSpPtG1d8NhVnfGnpv8Lz6SbJAAAQIECBAgQIAAAQIECBB4EhgXZnWCmZ7ZN8KsJ9b/v3bczjVzaSjMis/fXl6H2KXxCAECBAgQIECAAAECBAgQIEBgjsC4MKtzKdktxeAiCzaEGn+1aOpUFt1vgSxPMEUrq2m8zPA5vLzdkhu+/5XcbwQIECBAgAABAgQIECBAgMB6AiPDrJTqshvItAHGI5N5ft6lZrFg3cvx2pvotzeGP/J/r8OseJ8s90g7ch21jQABAgQIECBAgAABAgQIXElgdJjVvdH3X7hVlFU2++jgGc1u9YvhUBtoHXlGU2zvT11jMNdzyeluwnZMgAABAgQIECBAgAABAgQIXF1gQpiVUuq9B9RfqHUPZ3yb3dsx09Rl+GbINtA65o3h+8KsvsfedtiTBAgQIECAAAECBAgQIECAAIEFBaaFWfcdN6kqi/QTXMUg6/F3cb+ErjnRN/ctaDq8qd5Q8HgznDrBVVlmdXc56XCpLUGAAAECBAgQIECAAAECBAgsKzAjzPrfgPuNzYdCrfa+UH/31Vq26SffWu+N4Yt0pBvDxzArBpjCrJOPQc0nQIAAAQIECBAgQIAAAQInFJgfZv12tkn1iJlaZWWa1i/Z7y/x/lM/M9uOEhLFMKusqs4lku6P9ltMvxAgQIAAAQIECBAgQIAAAQIbCCwQZrW30hqeodXO6jnUt/f1Xur3uEzy1c91vrWv16+o0t7xX2zXPbiq80sNb+6RtsFhahcECBAgQIAAAQIECBAgQIDAQ2CRMKsu/8Kf+6yi5vVsraPMOhp3M/u/fv1cYrdOmNUWIwZH9/2V9a6BVmzTYxbWc73v7TxA8PYY0H4SIECAAAECBAgQIECAAAEC1xZYIMzKL5V7BB53tva+ULftAqFJpTIza5DrVZiVUl7zR/A2uEELECBAgAABAgQIECBAgAABAgQ+FFggzMoDqyzMahvXExp1lvmwE+ddvX8G21Fmr70Os/rrepR2n3c8aDkBAgQIECBAgAABAgQIECAwJLBwmFWk7n3eu7N4hB5tWbou7f2njvxthp0QsnP/rFvqLDM0Aj1PgAABAgQIECBAgAABAgQIEJgg8HmYlc286runVDe0+fowKzN7XIbZFwROqOQKi76dmfV/f537Z936xsAKjbNJAgQIECBAgAABAgQIECBA4CsFPg+znmfn9N4IPL8Msb2/0jfP3mnqMhXxPmJFmeq9v7qwZ/iPCbN6Z5j1joOeHXiIAAECBAgQIECAAAECBAgQIDBR4OMwKws8+lKq57DrHuJ878ydzOoRaB04+Int7Svvfbz1zTR7ufDEEWpxAgQIECBAgAABAgQIECBAgMCTwMdhVnaZWQwwekKO77zE8MWN3qPXU2GO8OvoMKttbCe0vKXvrPURKqcNBAgQIECAAAECBAgQIEDgugKjwqw21CgKktRjAAAgAElEQVSKMpVVleq6SU3TpJ+r4vL7Yf2EF01q6iqVRZHaSwqz/w88C2m9EudGD48j3ej9Vd8nhVn3LziMNT/efcBe9dXjBAgQIECAAAECBAgQIECAwDkERodZjxBm9s9vDLJ6Zqa131jY/cbHYw6WqWFW7/2z3BD+mMXVKgIECBAgQIAAAQIECBAgcFKB9cOsokhnmIW0eP36gqyD3uj9Vd+nh1ntlro3/L99Y5D5CtXjBAgQIECAAAECBAgQIECAwEcCo8Ksdg9NU6e6vXywLFNRFN1v5Pu9pPBxSWJ9yG/o+0hr4spZGHTCQCdr/5Rvoey5f9bt4PcHm1haixMgQIAAAQIECBAgQIAAAQI7CYwOs3rb9xxanDCs6e3Twg+2gVBR1v/vMbbwxm2OAAECBAgQIECAAAECBAgQIPBlAh+FWdnMHTNvvmzo6C4BAgQIECBAgAABAgQIECBAYHuBj8Ksunz6tkJh1vbVs0cCBAgQIECAAAECBAgQIECAwJcJLBZmFWf5ir4vK7DuEiBAgAABAgQIECBAgAABAgSuJPBBmNWkqvibmWVi1pWGhb4QIECAAAECBAgQIECAAAECBI4p8EGYdcwOaRUBAgQIECBAgAABAgQIECBAgMB1BYRZ162tnhEgQIAAAQIECBAgQIAAAQIELicgzLpcSXWIAAECBAgQIECAAAECBAgQIHBdAWHWdWurZwQIECBAgAABAgQIECBAgACBywkIsy5XUh0iQIAAAQIECBAgQIAAAQIECFxXQJh13drqGQECBAgQIECAAAECBAgQIEDgcgLCrMuVVIcIECBAgAABAgQIECBAgAABAtcVEGZdt7Z6RoAAAQIECBAgQIAAAQIECBC4nIAw63Il1SECBAgQIECAAAECBAgQIECAwHUFhFnXra2eESBAgAABAgQIECBAgAABAgQuJyDMulxJdYgAAQIECBAgQIAAAQIECBAgcF0BYdZ1a6tnBJYVqMt0u93+/1+kqll287ZGgAABAgQIECBAgAABAgTGCAizxihZhgCBlIRZRgEBAgQIECBAgAABAgQIHEBAmHWAImgCgVMICLNOUSaNJECAAAECBAgQIECAwNUFhFlXr7D+EVhKQJi1lKTtECBAgAABAgQIECBAgMAHAsKsD/CsSuCrBIRZX1VunSVAgAABAgQIECBAgMBRBYRZR63ModtVp/L3RuCPG4KXqT50m/sad5V+9PVthceEWSug2iQBAgQIECBAgAABAgQITBUQZk0Vs3xKqScEKqp0vi+3u0o/NhqUwqyNoO2GAAECBAgQIECAAAECBN4JjA6zmqpIt6fZOOXIaThxvdutSNX5Uo93hl/4XJOq4jEj6//PU4ZZy/WjO86Dz9OxcyuKVJRlqurmXAHgFcKsrA9/NRr7evaFB7suEyBAgAABAgQIECBA4HAC64ZZPSeOThoPNwZmNGi5EGjGzhdcZbl+TAqznoOt2y0VZX2OUCs7ns8ZStflX4D1HM7fvDAteFzZFAECBAgQIECAAAECBNYVWDHM6l7CVZiStW41N9t6Twh0yjBguX58EmbdQ5UzzGw7fZjVfU36C7TOeM+3zQ54OyJAgAABAgQIECBAgMChBFYKs5YLCQ6lpTG/Ap0ZLqcMs1Jaqh8xzHrJ0TSpqatUxss029laL1f6Zd/3l7OHWaH9RajB0fn3Lb69EyBAgAABAgQIECBA4DgCq4RZ8cT+doZZJ8epySlaslQItHdnl+pHHPNjgpHOvm8Hnx0UwqCzTbTMvNvXpKw/JwgT9z5Y7J8AAQIECBAgQIAAAQIHEVg+zIoniEc/QV+5EG3IcZp7Ik2wiOHNWS8hXaofcTtjwqy+b4Uct96EQi25aHZsn+2eWfklhj/jNX9M6L7kYLEtAgQIECBAgAABAgQIrCewcJgVTg6//JsLs4DjYrPTsr61NzE/2zSd/8fUUv2I2xkbSmWzhY7ueOYw60Xbc/+zBXTrvTHYMgECBAgQIECAAAECBI4ssGCY1b1P1lkDjkUK1lSpCN9adyvKVDeLbH33jcwNb3ZveGjAUv2Yu5243qGPmReBUCA95J9ZaPUcLGd9Om8oe0h0jSJAgAABAgQIECBAgMBKAouFWfGk/PA3s14JNNtsX6D15bPVMp8L/RHHv5lZRypumDGaFSc89xx0HakL2kKAAAECBAgQIECAAAECvwLLhFlhdoN7z/z6ptTUvd9cV15litZTV7/513lhVnc2Y5azHA00O85PdEle1u5bisbZrC1h89FGnfYQIECAAAECBAgQIECgI7BAmBVmNnz5Dd87wvcHuqHFrb0/Ujyr7l/ZoycQmBVmdWbu+TbDNUqdh1Vd41i7Q1/quQaQbRIgQIAAAQIECBAgQOBkAh+GWTGkOdFsjR0KFU+a20DLLLYdCrHCLmNtB3PKdsZeuKfa4DortHvSJrMZTmc51oNzH3IMFV1qOGlYWJgAAQIECBAgQIAAAQJbC3wUZk0+gd+6dwfcX1OXl74x/AHJN2nS2GOhaZpUl0VnDJxiNtAZw6yszd1LDH8Gh1B+k4PETggQIECAAAECBAgQILCQwPwwqyzTfWbR/9klpzgZXwjt483EmSB3w7PMdPm495fcQAyzno+Nt78XZarOcv+0LBg6x3gdusTwMRhj/byePWT8JECAAAECBAgQIECAwPEEZodZ8QTdyd/E4vbeGL5Ibgw/0fEgi8cwJB4fr/4uhFkrVjBcYvju8sEYML9bdsUW2zQBAgQIECBAgAABAgQIDAvMDrPKqupcKtV3O5rhJnzzEvHyptt9tptg8HxjYm6Y9RtyFWU6/ASts83Mytp7S++Pq3gsnmPm2fmOFC0mQIAAAQIECBAgQIDA5wLzw6w6pRROFm9n+lr7OBMj3Iz7N2TIHu9+E9rnJUipNwgxM2QJ2s22EWv4MthtmtTUVSqLIrtM92e8HTxAyY73g7f1/vL0Ew6PtY01fB9+bTa07IgAAQIECBAgQIAAAQIEgsBnYVbnhPFE3853oDCrrUk8kb6fgJd1akLB/HlMgVi/l2HWc/P7xuCRQ8xThVkTLjF81CTr34leyx7t95MAAQIECBAgQIAAAQJfIvBxmJVSvDznlm6jzuR3Fu4LErJZWM+zOh6/m5m1c9UOu/tZYVbbm844PPCMpyzsOXA7W9esrUOXGD6GVQjAzjTT9NEFPwkQIECAAAECBAgQIPAFAguEWX0n5GNPHr9A+G0Xm1SX3cvNXN70Fu2QT84Os3rC4MPWPwuIjh1m5d9iOL6t+Xpexw55sGkUAQIECBAgQIAAAQJfL7BMmNUyZie6PzOZzjBBa78R0DOj7ebbDPerx2d7nh9mtYfOY+bfz09h1me1SCnOsMp9+++H92KZI1/2+SmT9QkQIECAAAECBAgQIHBSgeXCrL77Z93WuSzvpNZ/ze5cWtaeSI+fPfK3Ib8dRUCYdZRK9AfrkwKs7HJjx+WBKqspBAgQIECAAAECBAgQuAssGmb13j/LzIZsqDV1mYrsZLm90XSZand6z5zO9sf8MKs7Q++wMxqz2ZfHDXniTLf5QdbBZ8qd7SDRXgIECBAgQIAAAQIECCwksHCY1X//rFPcEH4h0HebiYHH/SRb2PeO7DTPxdqODqQ6s/QOPJvxFGFWvMRwumespdev0xyGGkqAAAECBAgQIECAwJcILB9mtXDZSa/ZDe2Mtd4bvY9OPL5kNJ64mzEAGVXaJgYvB7/heHZcH3RmVtbGmd+seqaA8cTHjKYTIECAAAECBAgQIEBgrsA6YdZ9glb8lr6DnvzOlRu9XvcysnZGVum6wtGCZ1hwfJjVpKapU9XzLZa3o8/Sy4KiYx7P8RLDUaFiZ4B1j9l52+ls2AMECBAgQIAAAQIECBAgsIDAamFW7/2zvu2G8J0ZHm70vsCYPeQmYpg1+T5NRw+yWvXDh1lxptv0Swwfg6tTT2nWg8ZPAgQIECBAgAABAgQI7C6wYpjV9i2eXLY3O6/SV9zrvC/IcqP33Qf8Wg3ohB/xJv8v/y7OM0vv6GFW1r6Zlxg+Bkjn+J0fjD026ScBAgQIECBAgAABAgQILCOwcpgVZ3P83D/rW26onAUc3xLiLTMuT7eVrNYvg6ufmXlFUaayqs73DZZZWHS8ywzjJYZF9Uls7lLD0x2EGkyAAAECBAgQIECAwNcIjA6zvkZk4Y62IUdR1t8xG21hO5s7mMDBw6yDaWkOAQIECBAgQIAAAQIECKwkIMxaCdZmCVxOQJh1uZLqEAECBAgQIECAAAECBM4oIMw6Y9W0mcAeAsKsPdTtkwABAgQIECBAgAABAgSCgDArgPiTAIEXAsKsFzAeJkCAAAECBAgQIECAAIEtBYRZW2rbF4EzCwizzlw9bSdAgAABAgQIECBAgMBlBIRZlymljhBYWUCYtTKwzRMgQIAAAQIECBAgQIDAGAFh1hglyywoUKfydku3Nf8vKt8euWDFfjclzPql8AsBAgQIECBAgAABAgQI7CcgzNrP/kv3LMw6beGFWactnYYTIECAAAECBAgQIEDgSgLCrCtV8xR9EWadokx9jRRm9al4jAABAgQIECBAgAABAgQ2FhBmbQxudwQIECBAgAABAgQIECBAgAABAvMFhFnz7axJgAABAgQIECBAgAABAgQIECCwsYAwa2NwuyNAgAABAgQIECBAgAABAgQIEJgvIMyab2dNAgQIECBAgAABAgQIECBAgACBjQWEWRuD2x0BAgQIECBAgAABAgQIECBAgMB8AWHWfDtrEiBAgAABAgQIECBAgAABAgQIbCwgzNoY3O4IECBAgAABAgQIECBAgAABAgTmCwiz5ttZk8BxBOoy3W63//8XqWqO0zQtIUBgIQHH+UKQNpMJGFcZhz8WEjCuFoK0GQIHFnCcH7g439E0YdZ31Fkvry7gzeTqFdY/Aik5zo2CNQSMqzVUbdO4MgYIXF/AcX79Gh+8h8KsgxdI8wiMEvBmMorJQgROLeA4P3X5Dtt44+qwpTl1w4yrU5dP4wmMEnCcj2Ky0HoCwqz1bG2ZwHYC3ky2s7YnAnsJOM73kr/2fo2ra9d3r94ZV3vJ2y+B7QQc59tZ21OvgDCrl8WDBE4m4M3kZAXTXAIzBBznM9CsMihgXA0SWWCGgHE1A80qBE4m4Dg/WcGu11xh1vVqukGP6lT+3mz8cdPxMtUb7HnZXVylH+ki99JZrh5NVTzdEP+Wyk0H53L9WHa829rpBS7xofEqx8dV+uH941ivC8aVeqwhcKFxtQaPbc4X8Llkvt3ia37ncS7MWnwgfcMGew6Wokrn+wK9q/TjwicjM8fV4cKsmf34hlcTfZwgcNUPjac8Prx/TBi5Gyx6lXpcpR8+l2ww6Cfs4kLjakKvLbqBgM8lGyCP3cV3HucTw6wmVcW/9u7FWFEYCgCodVEQ9ViNzVBMdvCtSsJH/gI5O7Pz/AHJuQmQa8DXTJz67xln44xtED7XL5C2g1u4nXIwcpV6XOWkcb14/DaZtV49+vugd7IUuMRJ41X6x1Xq4fgxel8S9b/PufC6M3+1q9Hx2OWD68UjPS+5ta5w+LSpW1GEoizD/VGt9EXxevXYhd1GziMQ7ReLcD/fzIYQwkr9o7qHYqhfT3pvTo5lpXqcp/U9SyqZdbKAHaO4V+ksV6mHwUjaL9KTxnUHG+nW0ucXaldp1Tz/rYCTxt/6R1u/UD/XrqLI9j15lI1kQ3NQsuoBRrvq8//N6+vFIz0vGUxmNdvX7RaK8rEwqbVePX4TB1s9rIDjxyc0klkfix0fSWbtiH2dTXUcFFc9mdtL6ir1uHAya2a7Sk8aZ65mZkO8ULuaKWCxjQSuetK4bwddKTgX6ufa1Yg20XH5xjvhMOcb9L5Nald9Mr95fb14pOclU5JZz88uugJivXr8Jg62elgBx49PaNZMZs06L8qzn0tmfZqgRxMEWt9Qzup0Eza40UevUo9wiYNJfR/75Jvvme0qPWmcuZrZrW6teswugAWvKaCfHyqul+nn2tX3dpUYFdEtN9b9kRHt6ns49vzEWvEYfV5SVaF63EOZtLFnQmvBycxa9djT3rZOIJDsG895meF6449ZEWslweZfrpljP5fMmtXqLHSVznKVekhmxX1y9EljvNhqzy7TrlYTsaJVBJw0rsK41kou08+1q69NIop1PUMmMruF24IkQ7rxaFv17K8V151ua9PnkdH8wdmmZRyx8rXiMee8pLXtBfcqbq3rrO1qRMx8ZEcB/Xwxdto3iwUZwXRdpz1+TFCVzJqANeej9cFr+bXuc7a87TLpQXlJx9u2pMNrv0o9rpLMWise6Xr2PmdLt3/W/jHce7y7u8BFThqv0j+uUg/Hj289Ob7E8G9/Hr+25o/gaFff4rHv+2vFI13PuPOSpJ3d5s8CTLfvvGTfdnTZrTkvWRbayG/5D6rl2M8ls5Y1wcGlowa16Fr3wc385M2obvXNKRdkkeMK/J9eXRYhncZ/u9WvlaG8L70R5meL29Xjs41dHkU7w/N+A7pWPNL1pCeNf1P4i/hXR4pitbaVbn+9/rFLa7KRowro54eKzGX6uXY13K56fOJvwNc77mpXw+HY+9214pGuJz0v6atX3M7mn2+n23de0ifu9UkCPfvHSes4wId/0z/WS1a/CH9Tj9fWf/NXMmsr99b1r3W2tQyPU/5kaRsp7SxjD8rtNf29UlWPUBZFmHJDzDVmvK1dj776bf76RQ8mc9tVb1yrnvtQvG/k+9dPl+Zme7e/eUOwgUsL6OdJeNsnglOOIUvvQXOZfq5dJe0qfholE5pfTEZu85MM8dZC0K5Skd8+Xysec9eTLjc3CZWuZ+751W+jYeuHE4j2g+sl9feu5y/6R7rNNS4JTNeZQz+XzNqyt3QltG7n7eibUXU6JTcCbyYbmo9z6KVj4C9yMBlT1TGf6dyZP8p4JlazHbUer/nrVGNK7DMERgjo5wnSb5NZSWHO+1S7Gohd0saic47kvWaia2CN2bylXUWh7jwviT7R/SRKpq56JUT39rxKYJKAfj6J6/3h1tjXuONtM/GBZNZEsMkff844aidmyqtM0ZoM0rFA1KHrS73u4VH/mkvy0b7ZW3O/pUpWf+6nDiZR/OKTxiLcH/c4kfWcJflpYVXXjK1o0BKt3hMCvxHQzxP3JJnQSkq3j73pzC3Hj1D/jFNjVrQv3KJGFtm071cUJxrY9duxic9L2m0psns/qcI9+VVDpyZvHA+OIBDtI/XzcSFp92vnIuPkuj4lmdWlsvpr7UZbn1DXl8n5F+o59aFMkgtDLvHJ4/Kb5Q1t6zTvOZhEoUpPGpsD2P4DRjowdlCOUD35vYB+viwGkZ9jxxszcrHfe7s883zNhGj7m/P0WNN/fGmuNZPH2lUU6LStjBoCRF/21m2x3QajjXhCYG8B/Xy6eGTmXGQ6YLyEZFbssemz9ED2HGCblj7DXNKhhRbtGA1GOvvamOn5keOJfxK91UC8cAmBqH3q59Nimh43DArfftrVmyJ+kLSZruxDmmxwTvch1K4+Fs/vbeP7wnY1p3iBpP0t+CXDaL2eEFhTQD+fqJn2a+dyEwFbH5fMapFs+0LVdd+eC90Yflu9z9rT2VlfTwo+i17zkYNJFNfOZNaoRpIcZAxMIldPfiygn88OgGPGAJ121Y0TufRdFpbOvDcweWNGflzS85K+U5KqqsKj/kXv5LJps/7eLcuDIwno55OikZ6LrHHT90kFuOCHJbN+EdT0m7znAcuBfkooxp4UTFnnqT/rYBKFL20ftwlJqfhAo19GsJ78VkA/n+Xf2h/0jSJnrf0CC2lXnUGMjwX9M/nS9iXp8J9Tu4raVdpOmrc/GHxclOHuPruRpScHEtDPxwejNf7vP66MX6lPSmb9qg103hi+CG4MPy4g6UlB9mMTB5Oo4SxpH0uWjQrhCYG1BfTz6aLpyeOExPb0jZ10Ce2qI3ATZulqYx1+flggRUnPLQYTWI1ZWYVkVkrp+ZEEHD9GRiOdxds323fk6nzsLSCZ9ab4xYN2w64Pbr7V+x6L9KRAMsuvUTVbzZL2sWTZZhk8JrC6gJPGiaRJQuJmpmUnoHbVZolMvp2Xpedy2tkTNDJkkp5bjE1mvT/nliTtfuqV3wvo56Ni0Or/vlgb5TbmQ/kms9Jv0hrfgrwPHK3XtpkO2Grg9XZzbeT1vQLuZSiLIhTJzxH3x0V220+rx7u7tE9NSnZGB+Zvg5h4u54R2FQgapsGh9+s48vEHCd6vbSrFk3cdr73tfSY40tJM7PSRpW2kd7zkqoK1aP+le/4hvF/58Df22K6Xc8JbCrg+DGC1xdrI5Bmf0Qyq5Wwav4Mc/p4m2RWHb30IPc8aJWPUM0O7ckWrB7hXnYduNMYdD/vPSk4GcPs4jqYRHRpf5rUPiJLyawI1pPfCkRt06BmMBiRlV8mHW+lXYWQDDzGfLmYtrcxywwG5QJvRiba1azzkq4v3rWtC3SOC1VBP/8azPjLEeOKr2ATPyCZdYBkVnqAeyaycjpYdR2sJ8XFN+5mZsV7vrRPSWbFPp6dVMBJ47jAtY4p230RNa5AB/+UdhUHKPIYO/BIEmAuaQ3OS+JmNfu8pLU/kxiMZT37qUC0v9Q2W7GIfOoJGc5HWkYLX8g3mbUQbp3F/35+N718Lq/p6ekJYN3Ri1DeH6EamJY2+6RgncAdby3RztLBZFH7iCwlSo/X2DMuUdQ29fPuluD+Rd0uA69qVxFO/C36+H4WLzc2CRZt+lpPtKsonvPPS9J9mrYVwXryWwH9fMC/3Xcnfbk+sGZvfQQksz4WOz9qN/BnEiezn99ND+7PjPVAEusVpHS57HcODiavpvH8u6R9LFk2KoQnBNYW0M+/ikoofCVqf0C7aph0fcHWfXuD9IvI1vOcZtg3BN8Ptas3Rf1gybmF/VpE6cmRBPTz3mikff6W/WC1l2rRG5JZi/hmLtyaMvw3G+k+Iokzc4sHXayd0Bvbz9MdxNjlDgqxvFgOJpHhkvYRnzSO/1Y+KoAnBLYQ0M+HVSMf98kaxmq8G7llvs+LLGYmsd63SWD5SfBlbiGZ1djheHgpgWifqZ9/Ypt+McLmY7PuI8msdT2/rq16lKF4n+j8P1HK9ud253f0JcmKr0E64wccTKKozW8fSZvM/Zv1SNWTnwvo5wMhSPqu+1IMWCVvaVdvkPjLjKXJrMwvB9Ou3u2qfjD/vGT+F79RATwhsIWAft6pmh5L8rqFUCfJZi9KZm1G215xeiB7fmOV9WB57uCjvtdYfJJpZlYZfAP66XNpXxvdPqKDcuYDkVCFx72RfC/KcF/9MuirbOPT9jZ9FLVP3/J9rA32PhYzHmlX/9HmnpN8zNNjT9aXlWhXn4axJJnVupoj5xtIX+WcYY96RM1vuyf6eds2MrmFW9Zj/TbP2q9IZq0t2rm+nhu9jx5hd670Ai+mJ45jBmftQUudxEEpmdXsEOmAYlz7SNtjzieM9Q9RxQnjV7J0nGUzGv2Pr7KN/hqu/E50gjRmf7ny9g+6urS/+wZ0YqC0qz+wyGHmZaoSD5/GF3naX6X7qVHH0io9L8n7S7arnDPsUY9PR9z4kX6eALfHqaP6erIWT8cLSGaNt5r5yXaj/ku+ZHeDrA6/ts3gIKS6h7LYfoDdUdDjv+RgEsVo+knjxLYYbe2CT1oDska/W+sbpqtsY8/w6+dt7cjEN6BtoBGvRIb5Jh3SAea8AUj7WDJvPSPidvSPaFdRhMafl1Shqh7hXhaNGff/j8FrHX+jkp3kyVXOGfaox54h1c8j7bSfZz07N5LZ7snCZFZjgJPeB6rveU474s4dVr4nip3NONoJ/rWnonyEZqqvPqiXRXxQL8rG5U9mZtXTaBonPdpY62Byu4WivIfHo4raVqiSqd6v/Va2o4//vTRqT+l+fqUZa1fZRueObaMXIzP9PIT2rIXXDMIpfwe/RNkolIdarXYV2m1p/n6udfzJ9XiiXUXdvNUuXucbY//mNH6K5P4/idqT85Iuop+8FsUl8/OSznF/2lbHP8/+3GRkg5bMGgk1+WNdDTrbG70P6bW/xfw2CCnr+/YkvrmeK75lHUzeFPWDRSeNuZ8w/gG2f6jidcK9lk/Sh6N+f6ZtRC1v4yf6eQwceYw/QYzaWp3ozu+nhAccMx2MpG1pyUlFa982PzEWB+pkzyLTTNtVI2Tzz0uK8Dzvbawry4etftXY55/pnGGPeuzZQPTzt/b8Pt5oy69zbecmb9dvDySzvgkteD9q1GvtaBeU57iLjkxo1Tegfk/Zir+RX3LeeVyXCSVzMImxHvdQ9FySmg5kP8+LUH4aWLy+DJ+ll9y8nNbsa1fZxm7NQz+PqSOP7pPBV7sd+iuZZWZvui9a1iba5zRr7jfjTnDgZ1H/lMyKxgSNAWt731SEoihDeb+H1X9z5cDNZUzR0n76sluzf11lG2M8V/mMfv5mHN/Hx52vLDsOvYt1+QcTk1mX91i9gnXDTi+bW30jF1nh6x4BRXSQ/zuor/8rahdBe1XDweQlkfytQvW4h3t9WWpRdMw2+rSvd540WUO+T5NLMP2a4e+bgn7++xhcsQTa1RWj+vs6aVe/j8HlSuC85HAh1c8PF5LcCiSZlVvE1feaAg4m14yrWhFoCujnTQ2P1xLQrtaStJ6mgHbV1PCYwDUF9PNrxvVEtZLMOlGwFJVAr4CDSS+NNwhcRkA/v0woD1UR7epQ4bhMYbSry4RSRQj0CujnvTTe2EdAMmsfZ1shsK2Ag8m2vtZO4AgC+vkRonC9MmhX14vpEWqkXR0hCspAYFsB/XxbX2v/KiCZ9ZXIBwicQMDB5ARBUkQCCwX084WAFu8U0K46Wby4UEC7WghocQInENDPTxCkaxdRMuva8VW7XAQcTHKJtHrmLKCf5xz97equXW1nm/Oatauco/VVUekAACAASURBVK/uuQjo57lE+rD1lMw6bGgUjMAEAQeTCVg+SuCkAvr5SQN38GJrVwcP0EmLp12dNHCKTWCCgH4+ActHtxCQzNpC1ToJ7C3gYLK3uO0R2F9AP9/fPIctalc5RHn/OmpX+5vbIoG9BfTzvcVtLxGQzEpAPCVwSgEHk1OGTaEJTBLQzydx+fBIAe1qJJSPTRLQriZx+TCBUwro56cM25UKLZl1pWiqCwECBAgQIECAAAECBAgQIEDg4gKSWRcPsOoRIECAAAECBAgQIECAAAECBK4kIJl1pWiqCwECBAgQIECAAAECBAgQIEDg4gKSWRcPsOoRIECAAAECBAgQIECAAAECBK4kIJl1pWiqCwECBAgQIECAAAECBAgQIEDg4gKSWRcPsOoRIECAAAECBAgQIECAAAECBK4kIJl1pWiqCwECBAgQIECAAAECBAgQIEDg4gKSWRcPsOoRIECAAAECBAgQIECAAAECBK4kIJl1pWiqCwECBAgQIECAAAECBAgQIEDg4gKSWRcPsOoRIECAAAECBAgQIECAAAECBK4kIJl1pWiqCwECBAgQIECAAAECBAgQIEDg4gKSWRcPsOoRIECAAAECBAgQIECAAAECBK4kIJl1pWiqCwECBAgQIECAAAECBAgQIEDg4gKSWRcPsOoRIECAAAECBAgQIECAAAECBK4ksDyZ9SjD7XZr/S8fV2LKuS5VuBfN+JZhzdBW96LVdrra0/O1oghFWYb7owpVziFRdwIECBAgQIAAAQIECBAgkLHA4mTWo2wmOhqPZbMu0qwOlMxKkqZF+ZDUukgrUw0CBAgQIECAAAECBAgQIDBWYGEy6xHKJMHwmVWz7gyesRXyubUFjpvM+putdZfQWjvk1keAAAECBAgQIECAAAECBA4ssCyZFV1iWIQiuhztFkzOOnDkRxdt32RWb5upqlA97qFM2tgzodW70OhK+iABAgQIECBAgAABAgQIECBwEoFFyazoEsPiHqoouXULN0mGkzSDoWIeJJnVKGLU7p4zA80CbPB4SIAAAQIECBAgQIAAAQIELi2wIJkVX2JY3Otbcsev3eoE16X5vleuvsH5ue/tdLxkVqud3cwC/N4SfYIAAQIECBAgQIAAAQIECFxDYH4yK5qFVYRnLqtOZ0U3hP+8fg2uabWIfqnvtIm9Iyaz0nZ2C3/J1Gnx8WkCBAgQIECAAAECBAgQIEDgfAKzk1lR0qqZqImSXBknGap7KNKb4xdleJxuqtoxk1lRovCWcTs73z5HiQkQIECAAAECBAgQIECAwCKBmcms5HLC6N5YyXvNRNeiop5w4a6E1u1ss9WOmcyKkqmSWSfsHIpMgAABAgQIECBAgAABAgTmCcxLZiWzr6JclksN40hUj85f4CtPM0XriMmstEzumRU3Os8IECBAgAABAgQIECBAgMB1BWYls+JZMe1fknMJWNpg2smXWz2bKM0Cposd4nla9na8lxQzbSujSFoz3tYt05L6WJYAAQIECBAgQIAAAQIECBDYVmBGMiu5jLAr+5AmG3K+1LARvzRxUye0jv+LjwdLZtUz3ZJ7kXU1wQa7hwQIECBAgAABAgQIECBAgMCFBKYns75cYvhnkyZAznafqO0iXD3Kk90YPo3lurOg0gRfX2KqqqrwKIuWnV8x3K6tWjMBAgQIECBAgAABAgQIEDiiwORk1rdLDF+VTJMUkg4vmRBCOnPtOdPoqAm/fZNZz9lqycyrzteKMtxPc9+xRuw9JECAAAECBAgQIECAAAECBBYJTExmJZd4DV0+mCZshj67qAonXbjzxvBFON6N4Y+ZzCoks07a8BWbAAECBAgQIECAAAECBAgsE5iWzEouMRyebZUmQY4682gZ4LKlU6NbeN4Y/l4tW+2qS6dl3PYyw85ZWEMztYoymKC1asCtjAABAgQIECBAgAABAgQIHFpgUjIrvsTwe3Lq0JcapjPHhhIm7/fWTeS8Wkbq9EzoHGYm277JrL57ZoWqCtXjHsqieCb84qTX97b4svaXAAECBAgQIECAAAECBAgQOLfAhGTWhEsMXybJTK5D/XLfgZJZNVdnQqt8hN/P0TpIMuvVpv6wWjeCP1TbapbVYwIECBAgQIAAAQIECBAgQGBVgfHJrCQxNXyJ4auMSQLsdqAZNAdKZnUmsszMejWi7r+t+B2obXWX2KsECBAgQIAAAQIECBAgQIDACgKjk1lTLzF8lS1e7hbGJcFeS1/9bxUeZfuyuWMZHXBm1rNZpOXStq7eW9SPAAECBAgQIECAAAECBAjUAiOTWekMq78blcf3LRr52mFmHP26AbSTMbebXzPsvWdWR7gkSjtQvESAAAECBAgQIECAAAECBC4uMC6ZlVxiOCuJ9b6JusvBQusSuToReFSXNOm27k3w00ssJbMuvsdRPQIECBAgQIAAAQIECBAgsFBgVDIrnQGzLJmV9+Vg1aPsuHl5GR6/v9N7T1M6ajIrLdctTEmE9VTWywQIECBAgAABAgQIECBAgMDBBUYks9JLDKfPzEln39wyzTq0HOrZaoe/7DJNGk2P/1AfSE1GN43W7LZ1yzVUZu8RIECAAAECBAgQIECAAAECvxP4nsxKLzEcnW1oVCr7xEPPjd7nWDZY93l4wGRWlSZY857tt087sBUCBAgQIECAAAECBAgQIHAMga/JrPQSw3n5lzQhktMlYe2615dplse9rjBpmWn5150BNX5mVhWq6hHuHb/+ePzZbQmppwQIECBAgAABAgQIECBAgMBsgS/JrHQGzPxERpq0yOJSw9aMtCPf6L2vDaXJrJG/Wvm+4f/wpZStdtFcbszjw1+m2efqdQIECBAgQIAAAQIECBAgQGCOwHAya41LDF+laiV25ifGXqs89N9WfeukzpFv9N6nedRkVnGi2W19tl4nQIAAAQIECBAgQIAAAQIEpgoMJrPSSwyL+5Kf3GsnReZdsji1ir/7fDTr6LQziNpxm/xrlgN1j4wGZ2IVoSjKUN7vB/7lx9+1NVsmQIAAAQIECBAgQIAAAQK5CAwms3JB2LKedbKmKB9hSRpwy/JZNwECBAgQIECAAAECBAgQIEDgTAKSWWeKlrISIECAAAECBAgQIECAAAECBDIXkMzKvAGoPgECBAgQIECAAAECBAgQIEDgTAKSWWeKlrISIECAAAECBAgQIECAAAECBDIXkMzKvAGoPgECBAgQIECAAAECBAgQIEDgTAKSWWeKlrISIECAAAECBAgQIECAAAECBDIXkMzKvAGoPgECBAgQIECAAAECBAgQIEDgTAKSWWeKlrISIECAAAECBAgQIECAAAECBDIXkMzKvAGoPgECBAgQIECAAAECBAgQIEDgTAKSWWeKlrISIECAAAECBAgQIECAAAECBDIXkMzKvAGoPgECBAgQIECAAAECBAgQIEDgTAKSWWeKlrISIECAAAECBAgQIECAAAECBDIXkMzKvAGoPgECBAgQIECAAAECBAgQIEDgTAKSWWeKlrISIECAAAECBAgQIECAAAECBDIXkMzKvAGoPgECBAgQIECAAAECBAgQIEDgTAKSWWeKlrISIECAAAECBAgQIECAAAECBDIXkMzKvAGo/kUEHmW43W7//xfhXl2kXqpB4CwC+uBZIqWcBAgQIECAAAECFxCQzLpAEFWBQDCQ1ggI/FZAH/ytv60TIECAAAECBAhkJSCZlVW4VfayAgbSlw2tip1EQB88SaAUkwABAgQIECBA4AoCkllXiKI6EDCQ1gYI/FZAH/ytv60TIECAAAECBAhkJSCZlVW4VfayAgbSlw2tip1EQB88SaAUkwABAgQIECBA4AoCkllXiOLudXiE8n2z8ddNx8vw2L0cSzd4lXqEcI17Zl0lHlepx9L+ldnyl0hmXaXtXqUemfUh1SVAgAABAgQITBCQzJqA5aMvgY6BQnEPq/2AXlWFx70MRVE0fqHvFm5FEYryHh7VWlvauB4vrj3+XnUgvWa72iMOz21cqF3tZnaBDemDX4NYPe6hLItQJF+G1Pv68v4Iq+3agz74NRg+QIAAAQIECBA4ucC4ZFZ0kj5jJk6yfHm+KTwnD/Paxa/CvXi1g/9/V0k6VOFRJgmsZNBzez0vyvBYnNPaqh5re49YX9THinBfbDNim6t/ZK94dLSzVXdKe9Vj9QBY4RIBfbBX75nESo8Zr3158rcoHyt8MaIP9gbDGwQIECBAgACBiwgsSGbdQjF2xByd5N/CquPGiwTiXNXYYqDQsc5kkPNOZL1fX5q06djmKkm5H0Qz6mNLXX5Q/ucmt47H/xl/7/bTSMiuulPauh6/io/tDgrog5081X3kFxTNfrl4P6wPdgbDiwQIECBAgACBCwksSmbdxp5wRif5klnnbz8dA4VFyYCO9d2KUD6qxjf0VageZevylNttyb26Ora7qB4/jGzUxy6UzFopHt1tZ8dk1kr1+GELs+lvAvpgS6idyKovFU8vJ+xJMi/qMxfat7dUvUCAAAECBAgQIFALLEtm3UYmpqKT/JHLiM+hBR5lIxFQf6O+YODRGvAMJUmrjnuhLNj2mvX4acCiPnbWZFZ9H/v12lUdj67Lm+rB9H3l7aSxX7se6fo9P6CAPhgHpbonXz582S+19u1fPh9vrfVMH2yReIEAAQIECBAgcCmBxcmsUbOzopN8yawrtKD1BgppcmrETKupg6QB8PXqMbCRPd6K+tiyQeAexe3bxmrxqAfGrXv0/M32q7e92nZ6KrL1+ns26+VfCuiDDf32zKhR3zlEhsu+JNEHG+HwkAABAgQIECBwQYFZyaz0V+a+nqQmJ6hfP38h6HrW0To3tD0WSjqbavT905JqzF3PWgOVudtPqvH7p1EfO28ya614tNpHUf8K5idMrfdX3imtVY9PiT06vIA++AlR+oXD0Gzbz1L1XMrkx0Xm78v0wQjWEwIECBAgQIDA5QRmJbPKRzKb5tuJanSSn8/MrOhk+pvRyZpWVLfbhB8DiOqZDlxGzMp6LZ8OlmbeO2uderwK9cO/UR+bPwD8YQ2em14tHg2PrkSrZNavI33B7Tfa3O2Wdx9c0o+XLNtsVWutp7lOjwkQIECAAAECBI4jMDOZlV6m8+XEPTrJzySZ1Uq23MKtKKPZIcdpBtNLkg4UZk1sSY0mrSRNhH1pgz1VXKUePeve9eWoj82z2LW8PRtbLx5VuJf9DnsnsyY17R4bLx9cQB98ByjtX5Pa/6LjwrsIYb19yWedHhEgQIAAAQIECBxHYHYyK0w54YxO8jNJZtUxTo2ePz3eP8A+TrPYqSQL2kXXr9N1zcDZqSa/30xkqY19C0g62F7yAwbftuX9TAT0wf+BTr9omHrMnzjzO5PmpZoECBAgQIAAAQKxwPxk1pR7W0Qn+VNPbOMCn+5Z542oa4PGDXxOV6l1ChwnFMYnYB5lEW7PxOC6v3y3Tq1+tJaoj423/FFpf77ZuO0tu9H0zyujAMcQ0Af/x2FpMitdfsLl58doCUpBgAABAgQIECCwg8CCZNbzJ8HipELftQTRSX5myaxnENOT878kTH1j+Hz/pSZjBizpMkky62L3JZvUNqI+Jpn1zU4y65uQ9ycL6INvsrR/TTvUpfv5MceG96Y9IECAAAECBAgQyERgWTJr7Oys6CQ/x2TWX2tK7+HxnF2UbQJm4oClNcOtCOXjHsrmDK1sLdPEsmTWt/13Oth2meE3Me9/FYiOc3n3wdaxblo2K8T9M2/Lr+3OBwgQIECAAAECmQosTGbVt4VKLvnqOmmNTvLzTWbVbazrXk9XujH8+H40/r4obbPX4CZZx8xfNBxf5gN/MupjL58Dl/fHRYsHyy4z/HE4rrF5ffATx9b9IqfNror7p/3ZB9YjAgQIECBAgACBl8DiZFYIIxIK0Ul+3smsJ3zrRL++XC63E/ak3fTMqmolS6PPTZzd9Wr1V/wb9bHc2tL0gMaDZcms6YKWaAnogw2SdN/818e+3ymyCo97GYrmjNvsjo0NRg8JECBAgAABAgR6BVZIZrVnZ7V+VS46yZfMekajddncX0IrnxvDf0tmtQdD9T3G4sFQ+plp3/739oozvhH1McmsbyGUzPom5P3JAvpgTBZ5/L+/YVGG+6Nq7cerxz3c+37YI+cZt7GoZwQIECBAgAABAg2BVZJZX2dnJSe1XVciNsqU0cM0GfN3wt9KBl5SZCCZ1ZHo6zZJ/SSz/n7lUTLrW5eRzPom5P3JAtFxTh+s/Voza6MZV/8TXF9fy3i/PrkRWoAAAQIECBAgkI/ASsms9klrlHyITvIPMjOr81K/byfX25xUd57wR5fTXbFB9iSzWnEZGhRKZr1bRtTHhszeS2T9QDIr6/BvU3l9sNO1fc/DoeNsEcr7I9yLxmcufyzsZPMiAQIECBAgQIDAF4HVklmhlYRoJH6ik3zJrK6YdCa0WpfVdS151teSRFRxD4/0xwSKMjzi6wqTyvYkxJJPZfE06mOSWd9iLpn1Tcj7kwX0wQGyKtSXEpZFkdwP6xaKoghleQ+P6rWzT44NpnIPuHqLAAECBAgQIJCvwHrJrBCSn9NuJK2ik/zG6790byXfGt8E91720EjQrVj2zkTW5b+NTgYsiXn7/lhd4EkyK+dBT9THJLO6WkvzNcmspobHqwjog6swprctiGZ5r7QFqyFAgAABAgQIEDi/wKrJrNbsrFdCJjrJP0gy6xCxq8Kj46a3uZy8txIK/xNao+ufJiQls4J7Zo3r2K22l3PbGUfmU98EouOchPI3rt73OfbSeIMAAQIECBAgQOAjsG4yqzU76/8JfXRyKpn1x981M6kI+fyaYfs+a7epP8GuXX16cmRhIP2B6X4kmdXt4tUFAvrgArzPolHffH0h9nnbIwIECBAgQIAAAQJPgdWTWa3ZWfWMh+gkXzKrZfSckZRhAiJpF7eJA5do0DM1EXa1HUBkmWFbmhjPuO3cws3MrImCPt4S0AdbJNNfiC8dHz1Ld/qGLEGAAAECBAgQIHBygfWTWSGdcVSE+738f/nT332pch43dv6y09cbnZ+8lfUWPx64TJuZlSw7MRHWW6SzvmEgPSlyklmTuHx4jIA+OEZp8DNxv9zmHpWDBfAmAQIECBAgQIDAaQQ2SGY9rzWMklf1rxX93csn72RWnjd6H+4L8eDlFsZ+E59ajl1uuDQnftdAelLw0nZnZlYXXxUe9/Lz63NFGe7DPy/atZIvr+2xjS9FWOttfXCBZH3/yPhHWHL+0msBpEUJECBAgAABAtkIbJPMas3Oyv0ktedG787W6xtnfQbLz8stx3wbn8zKuo1Z5uJ92kB6UoDTgbNkVpuvZfT/BxrW3G3tsY12zTZ6RR+cBVs97qEs4nME/XEWpYUIECBAgAABAlkJbJTMas/OyndmVnrZ5Wt2WpVVQxuqbGtAO3jJYNsz+1lZNa6B9FATa73XanNrZmhaWzvhC60kcyPZMNg/J9R1j21MKM7ij+qDowirqgrV4/G8/UDxP0HaPD8oykdwdBxF6UMECBAgQIAAgawFtktmDczOymbc2DlYc3Pudo9LZ1rdwq11SVM9AGpc8vQaBGXTmNpq0SsG0hFHCB1t6tVmJv3NdNZf1J4aiayn3Uome2wjaRWbPo3qYz8/vQ/m9Wu+m7ZFKydAgAABAgQIZCCwYTKrvoIsvlfW69vXLPIPXYmsbG/0PqIndXl9SzqsNUNkRPEO/xED6SREklkJyLSnQ/1xrX63xzam1XrZp/XBxG9sHyyC2VgJnacECBAgQIAAAQJfBTZNZvV9M5tFMiskyby1BoBfQ3riD1SP9r1TehJaBj9JnA2kU5BQ9rSdV1J93N+VZiElpTvD09almP8919x/77GN3az1wYS6O5lV/yBMUZahvD/C6r8nkJTAUwIECBAgQIAAgesKjEtmXbf+m9esnp0m8TKNuaoe4V4WoUhuClwPguoBUOWGKm1QA+m2iVcWCuzxS4N7bGMhw9jF9cGxUj5HgAABAgQIECBAYLGAZNZiQisgcAABA+kDBEERshbQB7MOv8oTIECAAAECBAjsKyCZta+3rRHYRsBAehtXayUwVkAfHCvlcwQIECBAgAABAgQWC0hmLSa0AgIHEDCQPkAQFCFrAX0w6/CrPAECBAgQIECAwL4Ckln7etsagW0EDKS3cbVWAmMF9MGxUj5HgAABAgQIECBAYLGAZNZiQisgcAABA+kDBEERshbQB7MOv8oTIECAAAECBAjsKyCZta+3rRHYRsBAehtXayUwVkAfHCvlcwQIECBAgAABAgQWC0hmLSa0AgIHEDCQPkAQFCFrAX0w6/CrPAECBAgQIECAwL4Ckln7etsagW0EDKS3cbVWAmMF9MGxUj5HgAABAgQIECBAYLGAZNZiQisgQIAAAQIECBAgQIAAAQIECBDYS0Ayay9p2yFAgAABAgQIECBAgAABAgQIEFgsIJm1mNAKCBAgQIAAAQIECBAgQIAAAQIE9hKQzNpL2nYIECBAgAABAgQIECBAgAABAgQWC0hmLSa0AgIECBAgQIAAAQIECBAgQIAAgb0EJLP2krYdAgQIECBAgAABAgQIECBAgACBxQKSWYsJrYAAAQIECBAgQIAAAQIECBAgQGAvAcmsvaRtJ1+BRxlut9v//0W4V/lSZFNzMc8m1O+KivmbwgMCBAgQIECAAAECWwtIZm0tbP0EDHLzawNiLuaS1vm1ATUmQIAAAQIECBDYTUAyazdqG8pWQGIjv9CLuZhLZuXXBtSYAAECBAgQIEBgNwHJrN2obShbAYmN/EIv5mIumZVfG1BjAgQIECBAgACB3QQks3ajtqFsBSQ28gu9mIu5ZFZ+bUCNCRAgQIAAAQIEdhOQzNqN2oayFZDYyC/0Yi7mp0pmVeFxL0NRvH6o4v/fogjl/RGqU9Ulv6anxgQIECBAgACBHAUks3KMujrvKyCxsa/3EbYm5keIwr5lOGnMqzqJ9f611SSZ9X69TmrJaO3boGyNAAECBAgQIEBgSGB0Mqu6F+H2PrHtO+H9fJtblGW4P6rg9HeI/wzvVeEefVtfhseKxc6iXZ1lkBuV89XHJ8Q7Wb7saShivmIHWmFVaTz64pZuKl3uditCX76j/dlX++r4WxThlMePqP33W6SOv3w+KS63WxjbNn5ZJ9smQIAAAQIECBDIQ2CbZFaS9CrKh6TWadvTgZJZZ21XZxnkRuX8JBmKvgxF2qaT5fsGvlMH0M0k+mn2JZHFsRMbaTz64haFO6rfX1sZWi7dRjOm3x6LeSS/3pPqnszIKkIZfQFVhUeZfok1Ibm9XkmtiQABAgQIECBAgEBLYJdk1nOwUtwltFr8Z3jhuMms07SraOB/4MRGVM5PMus2tu8my/clN5YkNsR8/X1GGo++uH22/Ahlmlj+kvBMt/EtgdV6f2wb/BRy/0dR+z9wP/8v8ygbfXxg1lX6udHJ7f0jYIsECBAgQIAAAQIZCcxOZvUOeKoqVI97KKNL0/6fNPculJH46aq6bzKrt4mcuV2dZZAblXPcQDdqzsnyfbFMExt9n6vvOn3afUlkcezExuh4PIOd7g9u4dYbwE/rGL0NMf+gbfooSUgOJQvTGVwj4r1p0a2cAAECBAgQIECAQAhh/WRWgzX9Rvd2c4lCg+ckD9PB67oxHD3IbWidrl2dJbERlTNOZo2anZUs3zfmFfNGYz7AwynxSD87ql2EENLl+tpGk0M/b2qs/HhKgmrKZ1cuptURIECAAAECBAgQ6BPYNJkVQvLt78ClDH0FPPvr9SDuNPd86cQ+XjLrdO0qSvIceJZOVM5bKIr4fjlfExDJ8n2fn5PYEPPOzrnKi6PjkcR3ypcTo7cR1ehkx4/I58D9vDaekqCa8tkofp4QIECAAAECBAgQ2E5g42RWCOm36zndbyMawA1dxrFdfFdY8xGTWSdrV2cZ5EblrH+5LEkmfGvDreW7m1/ULyYkuE+1L4ksjp3YGBePpC0M/HJhV9THbaO9pJi3TVZ5JU1QDfXtqC3fQk7H8FWsrYQAAQIECBAgQGATgc2TWekgJpsT4XSwUN8wuSjDo9okjhuu9JjJrFO1q2gweODERlTOOpmVJg2/lL1j+a6GmcaubwZXumy63KH3JZHFF7e0ojs/T13b8Uj3AdMTGt+30V3pdDkx73aa/urY5GQa+2O35ekOliBAgAABAgQIEDirwObJrFN9s752FLsSWhNnNKxdpOnrSwczv79nVl2HU7WrsyQ2onL+JbMmXY7UtXxHg0sTFO3kScdCYt6NssKr3+KRvj/mhu9psdJ1iHkqtP/zdB/ajmu67x93s//9a2KLBAgQIECAAAECOQpsnMxqnwyPHcRcJhjVo/OXHcvTTNFKY3iEZFZapv+Jl6M2mijJc+CZDVE5X6ap9UD5O5dvB2VeYiMtx6t87fUf4pXIYsDsAIUdjEdUj3p26T3MmVw6uI1eAzHvpVnjjTS2zUt+O49b6+7716iCdRAgQIAAAQIECOQrsG0yqzUzKdeT4fag7Ha7PW8Mf/yml5Z93RjOGuSerV1Fg8YDJzaicjaSRcnr7Rkc/1tx8rm+xLWYH6vX98cjvRRtft/v38aAhX4+gLPOW63ZWbcylGX8ww/1sep5s/85Wcx1imktBAgQIECAAAECBFoC2yWz6m92nyfB9Ynw3/++wW2rVBd9IR3QPV1mznTYj+hgyawztqsoyXPCZFZI20BPHaJ6NpJhSWNN+8HX/YKYJ4LrPu2Ox8iYjyxK9zYGFhbzAZwV32olDD/H69dxuyjnzcZbsZRWRYAAAQIECBAgQKAlsHoyq6qq8CiLUCSJrEPfuLfFst0L1aNs2Rz7xvDpoHb+7Iwu1bGD3FO3qyjJ05MI6sLZ+7WonHEyKo1T5+ysgeWbVUnX1ZfMEvOm2naPu+LR9dqSEoxdDQ5+fgAADMJJREFUn5gvUZ63bBqbVxKrPi7dT3M5/Ly6W4oAAQIECBAgQOC8ArOTWe8T3iRp1XrdCXG7dXR+G37UJMe+yaxW++lrX2dqV1GS56hxft5h/T2Lso5DnGRKZ1p2JDWjeqbLf7pB7+C5L9av18X8g7jiozQeZVlG7WCNLyLSbejnKwZwwaqqe8eXK//7W9z/F2zEogQIECBAgAABAgQ2ENg8mVWcaQC6AXDvKuvLaIr0ko4iHO/G8MdMZp2qXUVJnrMms0JIExKtJEdUz/WTWWLeuzdZ9EYa1zTR1IrzjK1920a6zddzMZ+BPWqRvxnUL+fuvz37qvTLGFmvUeI+RIAAAQIECBAgsK7A5sms90lyUQZXLKTBSxNFf8mtNQaP6ZbmP0/L2DEjZ/7KWwmSd3t5zcb59vcM7SpK8vQMEBcYrrZoVM6uZNSX2Vlfl/8r6dzExrttiPlqIa9XlMajvN9bl0IvzVek23jH8lv/fr0v5qvGvH3j9/qLlHvrPpfPG7+nW5bMSkU8J0CAAAECBAgQ+IHA7GRW7+CmqkJVnxQXXb+IdKCBfHpC/ho0Df5dN5HzinfnQO8wN4bfN5l1+nb1Cmrzb5TkOVAfaJaxfhyVsyuZ1U58RInXEcvXm0nbu5ingdj3eWc8kljebsvabec2uqp5luNHV9kjs2VeXatf7bWonPUXKI2ydh0X02NR8ploH7BaIa2IAAECBAgQIECAwLDA+sms5vaSk97nt/HpiXHz83s+7irbYCKrPunfJplVVzsd7D2tykf4/a+hHySZ1WwbXbE7SrtqlvP1OBo8NgaOr/eP8jcqZ3cyK7TsG31izPIdbb03mdV0aW33Fm5i3hSa/Tjd97zi0Zq9s8C7bxuDhRbzQZ55b6b7845+nvTj17Hovb3kfcmst4wHBAgQIECAAAECOwpsm8yqK9IakBxkMN8qV3r/qq7njYH7ikFKB3qHSvqFdPCzrkFa99dA+itvK34HaVddBY8Gf2cpZ8cg93/d0iTHO2ZRPfuXF/OuRvK71/rjkfb9W+j8FcsRRe/fxpeF9fMvQBPfTvpoXzzTeNXHpHfSKlnHu/9PLIqPEyBAgAABAgQIEFgisH0yq5UMaZwULyn5JZbtvgnve9BwiDqmA9qDJLPO1K6iwd/5k1mtBPVrxk5Uzw2SWWK+yR4hTVxEyYlWMmne/ntwG4O1Svc/87Y/uIm13oza/zH7+ZQ4pEnrOqFVt414Hces51ohtR4CBAgQIECAAIHjCuyQzKpvxRPPcjpWsuZXwWkP0up7l+T+a4bRQPpLaE7Trk4wyH1SR+XsT0bVn43t/w9oRy4fD4aHt5M2gXi7Ehupz5znX+ORxPWV1Jiyra/bGFiZmA/gTHwrtvyWiEp/8OHvUvsyOp6v++XGxOr4OAECBAgQIECAQMYCklm/CH7HbIfoJry/KFPvNtOk27qDF4PcXvj930iSFoOJxbQN1x8eubyY7x/aoS2OiUecBPlLajyGVpq8N2YbySLvp+m2D/tlSNT+vyWK3tXb9UFsOaKMaT9P7ys5uJPYtWo2RoAAAQIECBAgkJnADsmsNBkybSbG1eJRPcrWz97fDv2z82n8jpLMSst14HZ1gkHus59F5fzmmfoX4X4vw/N+b/8HvH3j3PmJjXSb38r4w71HZDkiafDDoo6LR9t+yg34x22jC6G93b521bX0rq+dIOaTk1k1YFSveJb1YWOxa+BtjAABAgQIECBA4BcC2yezWt/srpsM+QXa3G2mA7rnwP91v6G5K918uXQwuW78UpPRg6MztatoMHjgxEZUzhGJouTzRVFsm8wS8016++g+2PIff0P40dtIa9ja5rr7n3Rzi55H/eGY/TyNw9hZbulyf0nrA8diUSAtTIAAAQIECBAgcAaBbZNZVfueG2NPns+AN76MPTd6H525Gb+l9T95wGTW2drVCQa5z3YTlXNEMqvjhuybzcwS8/W79v81pomKwd1S0kbqeI/Zp0/axqumYv6SWO9vK35jE1L1MSyelVXHfrCtrFdqayJAgAABAgQIECDQEtggmVWFqnqEexnP0ngOcg8/C6nls8ILaTLob0BwvBu991U1Lf/YwU/f+uLXxw9yT9yuogHkMWdsPKMSlXPkQDVZZt1klpjHvWWbZ+P74N/208+Pud9fukx/EkTMt4nya63p/vwWxlwumsbv088PvD97VdlfAgQIECBAgACBSwrMTmZ9Tmbb39Z2vpdjIqt1iUxtdbaT/47BT3oT4G/PB2LfP0i6ULuKEj4Hjn9UzpHJrIHZWX0JCzE/1rEkjUdf3D6l7tonDCe50210HiOG9iMD+5BPuX78KOo/5+nnz1gUf7+kWzUJqyo87/FYfNkXnyE2zXp5TIAAAQIECBAgcAmBHZJZfyfJl9CaUomuRNahb/TeV7mugeuXwU06KB0Y7Mwf5J6oXZ10kPs9qfHXZvpi2Ld83+e/JzjEvK+XLnk9jUdf3OJttC8hH5rhk27je6xf+xgxj93XeTY7HvUxLNqf/Y/TuEazTuGthQABAgQIECBAgEAIYYNkVhGKogzl/R4e0de8+XlHA4aBhM6xZY6SzDpxu4oGf+eZsTF+fNqR2Bi4n07UL9LEZ/RczPfYN6TxGB33qF0PJzXSbfQns8R8j5jX2+j8Zd2o/70SivXfIpT3R3gd0rviOebeaXvVzXYIECBAgAABAgSuLzA6mXV9im1qWJ/0F+VnELDNVqz10ALRoP/AyaxDI56scGJ+soCtUNyTxrx63ENZ1knEZvKqvpdWfewqwz33b6VWaBpWQYAAAQIECBAgsL6AZNb6ptZIIBY46SA3roRnkwTEfBLXJT4s5pcIo0oQIECAAAECBAicQ0Ay6xxxUsozCxjknjl688ou5vPczryUmJ85espOgAABAgQIECBwMgHJrJMFTHFPKGCQe8KgLSyymC8EPOHiYn7CoCkyAQIECBAgQIDAWQUks84aOeU+j4BB7nlitVZJxXwtyfOsR8zPEyslJUCAAAECBAgQOL2AZNbpQ6gChxcwyD18iFYvoJivTnr4FYr54UOkgAQIECBAgAABAtcRkMy6TizV5KgCBrlHjcx25RLz7WyPumYxP2pklIsAAQIECBAgQOCCApJZFwyqKh1MwCD3YAHZoThivgPywTYh5gcLiOIQIECAAAECBAhcWUAy68rRVbdjCBjkHiMOe5ZCzPfUPsa2xPwYcVAKAgQIECBAgACBLAQks7IIs0oSIECAAAECBAgQIECAAAECBK4hIJl1jTiqBQECBAgQIECAAAECBAgQIEAgCwHJrCzCrJIECBAgQIAAAQIECBAgQIAAgWsISGZdI45qQYAAAQIECBAgQIAAAQIECBDIQkAyK4swqyQBAgQIECBAgAABAgQIECBA4BoCklnXiKNaECBAgAABAgQIECBAgAABAgSyEJDMyiLMKkmAAAECBAgQIECAAAECBAgQuIaAZNY14qgWBAgQIECAAAECBAgQIECAAIEsBCSzsgizShIgQIAAAQIECBAgQIAAAQIEriEgmXWNOKoFAQIECBAgQIAAAQIECBAgQCALAcmsLMKskgQIECBAgAABAgQIECBAgACBawhIZl0jjmpBgAABAgQIECBAgAABAgQIEMhCQDIrizCrJAECBAgQIECAAAECBAgQIEDgGgKSWdeIo1oQIECAAAECBAgQIECAAAECBLIQkMzKIswqSYAAAQIECBAgQIAAAQIECBC4hoBk1jXiqBYECBAgQIAAAQIECBAgQIAAgSwEJLOyCLNKEiBAgAABAgQIECBAgAABAgSuISCZdY04qgUBAgQIECBAgAABAgQIECBAIAsByawswqySBAgQIECAAAECBAgQIECAAIFrCEhmXSOOakGAAAECBAgQIECAAAECBAgQyEJAMiuLMKskAQIECBAgQIAAAQIECBAgQOAaApJZ14ijWhAgQIAAAQIECBAgQIAAAQIEshCQzMoizCpJgAABAgQIECBAgAABAgQIELiGgGTWNeKoFgQIECBAgAABAgQIECBAgACBLAQks7IIs0oSIECAAAECBAgQIECAAAECBK4hIJl1jTiqBQECBAgQIECAAAECBAgQIEAgCwHJrCzCrJIECBAgQIAAAQIECBAgQIAAgWsISGZdI45qQYAAAQIECBAgQIAAAQIECBDIQkAyK4swqyQBAgQIECBAgAABAgQIECBA4BoCklnXiKNaECBAgAABAgQIECBAgAABAgSyEJDMyiLMKkmAAAECBAgQIECAAAECBAgQuIaAZNY14qgWBAgQIECAAAECBAgQIECAAIEsBCSzsgizShIgQIAAAQIECBAgQIAAAQIEriHwD1FdLizRvKfrAAAAAElFTkSuQmCC;" vertex="1" parent="1">
          <mxGeometry x="-142" y="-270" width="1045" height="632.39" as="geometry" />
        </mxCell>
        <mxCell id="pWCDDrrkoVqPYf1NJs71-15" value="&#39;N&#39;" style="ellipse;whiteSpace=wrap;html=1;aspect=fixed;fontSize=30;" vertex="1" parent="1">
          <mxGeometry x="273" y="1110" width="80" height="80" as="geometry" />
        </mxCell>
        <mxCell id="pWCDDrrkoVqPYf1NJs71-20" value="" style="edgeStyle=none;shape=connector;rounded=0;orthogonalLoop=1;jettySize=auto;html=1;labelBackgroundColor=default;strokeColor=default;align=center;verticalAlign=middle;fontFamily=Helvetica;fontSize=11;fontColor=default;endArrow=classic;" edge="1" parent="1" source="pWCDDrrkoVqPYf1NJs71-17" target="pWCDDrrkoVqPYf1NJs71-19">
          <mxGeometry relative="1" as="geometry" />
        </mxCell>
        <mxCell id="pWCDDrrkoVqPYf1NJs71-22" value="" style="edgeStyle=none;shape=connector;rounded=0;orthogonalLoop=1;jettySize=auto;html=1;labelBackgroundColor=default;strokeColor=default;align=center;verticalAlign=middle;fontFamily=Helvetica;fontSize=11;fontColor=default;endArrow=classic;" edge="1" parent="1" source="pWCDDrrkoVqPYf1NJs71-17" target="pWCDDrrkoVqPYf1NJs71-21">
          <mxGeometry relative="1" as="geometry" />
        </mxCell>
        <mxCell id="pWCDDrrkoVqPYf1NJs71-17" value="L&lt;font color=&quot;#ff0000&quot;&gt;B&lt;/font&gt;" style="ellipse;whiteSpace=wrap;html=1;aspect=fixed;fontSize=30;strokeColor=#FF0000;" vertex="1" parent="1">
          <mxGeometry x="494" y="1085" width="80" height="80" as="geometry" />
        </mxCell>
        <mxCell id="pWCDDrrkoVqPYf1NJs71-19" value="&#39;u&#39;" style="ellipse;whiteSpace=wrap;html=1;aspect=fixed;fontSize=30;strokeColor=#000000;" vertex="1" parent="1">
          <mxGeometry x="494" y="1245" width="80" height="80" as="geometry" />
        </mxCell>
        <mxCell id="pWCDDrrkoVqPYf1NJs71-24" value="" style="edgeStyle=none;shape=connector;rounded=0;orthogonalLoop=1;jettySize=auto;html=1;labelBackgroundColor=default;strokeColor=default;align=center;verticalAlign=middle;fontFamily=Helvetica;fontSize=11;fontColor=default;endArrow=classic;" edge="1" parent="1" source="pWCDDrrkoVqPYf1NJs71-21" target="pWCDDrrkoVqPYf1NJs71-23">
          <mxGeometry relative="1" as="geometry" />
        </mxCell>
        <mxCell id="pWCDDrrkoVqPYf1NJs71-26" value="" style="edgeStyle=none;shape=connector;rounded=0;orthogonalLoop=1;jettySize=auto;html=1;labelBackgroundColor=default;strokeColor=default;align=center;verticalAlign=middle;fontFamily=Helvetica;fontSize=11;fontColor=default;endArrow=classic;" edge="1" parent="1" source="pWCDDrrkoVqPYf1NJs71-21" target="pWCDDrrkoVqPYf1NJs71-25">
          <mxGeometry relative="1" as="geometry" />
        </mxCell>
        <mxCell id="pWCDDrrkoVqPYf1NJs71-21" value="L&lt;font color=&quot;#ff0000&quot;&gt;B&lt;/font&gt;" style="ellipse;whiteSpace=wrap;html=1;aspect=fixed;fontSize=30;strokeColor=#FF0000;" vertex="1" parent="1">
          <mxGeometry x="741" y="1239" width="80" height="80" as="geometry" />
        </mxCell>
        <mxCell id="pWCDDrrkoVqPYf1NJs71-23" value="&#39;m&#39;" style="ellipse;whiteSpace=wrap;html=1;aspect=fixed;fontSize=30;strokeColor=#000000;" vertex="1" parent="1">
          <mxGeometry x="741" y="1399" width="80" height="80" as="geometry" />
        </mxCell>
        <mxCell id="pWCDDrrkoVqPYf1NJs71-28" value="" style="edgeStyle=none;shape=connector;rounded=0;orthogonalLoop=1;jettySize=auto;html=1;labelBackgroundColor=default;strokeColor=default;align=center;verticalAlign=middle;fontFamily=Helvetica;fontSize=11;fontColor=default;endArrow=classic;" edge="1" parent="1" source="pWCDDrrkoVqPYf1NJs71-25" target="pWCDDrrkoVqPYf1NJs71-27">
          <mxGeometry relative="1" as="geometry" />
        </mxCell>
        <mxCell id="pWCDDrrkoVqPYf1NJs71-30" value="" style="edgeStyle=none;shape=connector;rounded=0;orthogonalLoop=1;jettySize=auto;html=1;labelBackgroundColor=default;strokeColor=default;align=center;verticalAlign=middle;fontFamily=Helvetica;fontSize=11;fontColor=default;endArrow=classic;" edge="1" parent="1" source="pWCDDrrkoVqPYf1NJs71-25" target="pWCDDrrkoVqPYf1NJs71-29">
          <mxGeometry relative="1" as="geometry" />
        </mxCell>
        <mxCell id="pWCDDrrkoVqPYf1NJs71-25" value="N&lt;font color=&quot;#0000ff&quot;&gt;B&lt;/font&gt;" style="ellipse;whiteSpace=wrap;html=1;aspect=fixed;fontSize=30;strokeColor=#FF0000;" vertex="1" parent="1">
          <mxGeometry x="974" y="1391" width="80" height="80" as="geometry" />
        </mxCell>
        <mxCell id="pWCDDrrkoVqPYf1NJs71-27" value="&#39;1&#39;" style="ellipse;whiteSpace=wrap;html=1;aspect=fixed;fontSize=30;strokeColor=#000000;" vertex="1" parent="1">
          <mxGeometry x="974" y="1551" width="80" height="80" as="geometry" />
        </mxCell>
        <mxCell id="pWCDDrrkoVqPYf1NJs71-29" value="&amp;amp;" style="ellipse;whiteSpace=wrap;html=1;aspect=fixed;fontSize=30;strokeColor=#0000FF;" vertex="1" parent="1">
          <mxGeometry x="1205" y="1554" width="80" height="80" as="geometry" />
        </mxCell>
      </root>
    </mxGraphModel>
  </diagram>
</mxfile>
